<svg width="614" height="450" viewBox="0 0 614 450" fill="none" xmlns="http://www.w3.org/2000/svg">
<path fill-rule="evenodd" clip-rule="evenodd" d="M66.8068 401.026C113.148 451.447 292.354 422.484 410.353 422.484C461.258 422.484 632.089 447.985 561.545 272.851C330.246 -301.384 -80.0273 241.268 66.8068 401.026Z" fill="#FF3D68"/>
<path fill-rule="evenodd" clip-rule="evenodd" d="M271.848 405.082C272.073 404.909 272.309 404.722 272.408 404.456C272.722 403.602 271.488 403.034 270.578 403.055C269.257 403.085 267.563 403.974 267.968 405.231C268.202 405.959 269.098 406.296 269.851 406.162C270.603 406.028 271.242 405.548 271.848 405.082ZM275.775 390.11C276.773 390.423 277.757 390.809 278.626 391.391C280.257 392.482 281.367 394.177 282.432 395.825C283.196 397.007 283.97 398.211 284.351 399.566C284.763 401.032 284.69 402.598 284.413 404.096C283.552 408.763 280.671 413.021 276.658 415.557C272.645 418.094 267.56 418.87 262.973 417.646C262.08 417.408 261.181 417.083 260.494 416.465C259.917 415.946 259.528 415.254 259.172 414.564C257.303 410.943 256.044 406.92 256.187 402.849C256.331 398.777 258.006 394.656 261.178 392.097C265.158 388.886 270.894 388.579 275.775 390.11Z" fill="white"/>
<path fill-rule="evenodd" clip-rule="evenodd" d="M486.446 168.6C484.259 168.573 482.208 170.406 481.991 172.581C481.903 173.47 482.28 174.576 483.165 174.698C483.829 174.79 484.411 174.278 484.857 173.778C485.8 172.721 486.611 171.546 487.263 170.288C487.482 169.866 487.674 169.325 487.387 168.947C487.177 168.671 486.792 168.605 486.446 168.6ZM485.499 158.845C488.605 159.928 491.42 161.833 493.58 164.313C495.436 166.445 496.849 169.212 496.459 172.011C496.316 173.038 495.937 174.018 495.504 174.961C493.866 178.533 491.048 181.956 487.179 182.647C485.149 183.01 483.056 182.575 481.104 181.911C478.846 181.144 476.694 180.067 474.726 178.72C473.682 178.006 472.645 177.159 472.187 175.98C471.872 175.167 471.862 174.273 471.874 173.401C471.903 171.246 472.046 169.055 472.798 167.035C473.749 164.479 475.61 162.369 477.583 160.486C478.377 159.729 479.219 158.983 480.238 158.577C481.905 157.913 483.805 158.254 485.499 158.845Z" fill="white"/>
<path fill-rule="evenodd" clip-rule="evenodd" d="M483.927 386.023C485.418 383.498 487.266 380.717 490.161 380.238C491.302 380.049 491.903 378.81 492.292 377.721C497.076 364.308 497.537 349.392 493.591 335.709C492.464 331.803 493.851 327.662 495.223 323.836C498.765 313.962 502.306 304.087 505.847 294.213C503.818 290.705 498.469 290.809 495.728 287.823C492.201 283.981 494.861 277.873 497.624 273.45C513.766 247.612 529.908 221.773 546.049 195.935C548.027 192.769 552.366 191.777 556.004 192.621C559.641 193.464 562.747 195.752 565.739 197.985C577.511 206.774 589.284 215.563 601.057 224.352C607.375 229.069 614.35 235.095 613.986 242.969C613.785 247.326 611.29 251.2 608.877 254.834C599.547 268.886 590.217 282.939 580.887 296.991C575.631 304.908 577.082 315.305 575.494 324.673C572.984 339.475 562.829 351.631 553.426 363.337C544.022 375.044 534.613 388.115 534.085 403.119C533.455 421.001 524.956 438.466 511.27 450C515.24 440.374 490.161 444.214 461.473 432.805C466.194 416.112 475.106 400.962 483.927 386.023Z" fill="white"/>
<path fill-rule="evenodd" clip-rule="evenodd" d="M168.917 427.887C167.128 426.424 166.557 423.956 166.242 421.661C162.588 395.109 178.278 368.902 175.483 342.246C174.043 328.509 167.728 315.692 159.782 304.419C154.294 296.634 153.987 286.205 156.034 276.89C158.081 267.576 162.211 258.866 164.997 249.747C177.384 209.194 162.311 165.872 147.409 126.182C177.104 111.829 211.756 114.609 244.653 116.554C277.55 118.498 312.93 118.636 340.348 100.273C344.107 139.998 335.82 179.767 327.58 218.803C369.389 214.732 411.197 210.661 453.005 206.59C454.204 206.473 455.515 206.383 456.511 207.064C457.84 207.971 458.044 209.823 458.121 211.435C460.075 252.748 461.26 294.098 461.674 335.455C461.685 336.492 461.649 337.649 460.921 338.385C460.298 339.015 459.346 339.146 458.468 339.244C399.893 345.769 341.319 352.293 282.744 358.818C277.679 359.382 270.463 358.063 270.76 352.952C272.083 330.164 271.311 307.254 268.457 284.608C252.89 284.02 237.217 286.392 222.515 291.563C219.179 292.737 215.169 295.891 216.968 298.947C228.869 319.163 214.098 349.549 230.262 366.519C235.82 372.354 235.436 381.533 234.334 389.532C231.973 406.679 227.962 423.596 222.375 439.971C225.076 421.124 170.567 437.994 168.917 427.887Z" fill="white"/>
<path fill-rule="evenodd" clip-rule="evenodd" d="M1.37759 0.0273531C1.42763 0.429813 1.20976 0.852415 0.852812 1.04525C0.568541 0.76098 0.284271 0.476707 0 0.192434C0.426157 0.00613096 0.909467 -0.0470079 1.36595 0.0422515L1.37759 0.0273531Z" fill="#00160A"/>
<path fill-rule="evenodd" clip-rule="evenodd" d="M274.751 390.11C275.749 390.423 276.734 390.809 277.602 391.391C279.233 392.482 280.343 394.177 281.408 395.825C282.172 397.007 282.946 398.211 283.327 399.566C283.74 401.032 283.666 402.598 283.39 404.096C282.529 408.763 279.647 413.021 275.634 415.557C271.621 418.094 266.537 418.87 261.949 417.646C261.056 417.408 260.157 417.083 259.47 416.465C258.893 415.946 258.504 415.254 258.148 414.564C256.279 410.943 255.02 406.92 255.164 402.849C255.308 398.777 256.982 394.656 260.154 392.097C264.135 388.886 269.871 388.579 274.751 390.11ZM269.158 414.353C271.653 413.974 273.849 412.345 275.283 410.269C276.717 408.193 277.453 405.704 277.806 403.206C278.008 401.78 278.026 400.145 277.019 399.115C276.416 398.499 275.554 398.223 274.728 397.976C271.626 397.049 268.084 396.26 265.306 397.922C263.282 399.132 262.154 401.374 261.131 403.498C259.934 405.985 260.23 409.124 261.871 411.344C263.512 413.563 266.427 414.767 269.158 414.353Z" fill="#00160A"/>
<path fill-rule="evenodd" clip-rule="evenodd" d="M388.729 278.09C388.772 277.561 388.836 276.994 389.186 276.595C389.529 276.204 390.068 276.064 390.574 275.947C403.609 272.913 417.073 271.726 430.439 272.433C432.141 272.523 434.33 273.099 434.443 274.798C435.088 284.545 435.734 294.292 436.379 304.038C436.412 304.532 436.428 305.078 436.113 305.459C435.856 305.769 435.44 305.889 435.05 305.991C421.149 309.613 406.496 310.327 392.308 308.074C391.943 308.016 391.559 307.947 391.275 307.71C390.932 307.423 390.812 306.955 390.714 306.519C388.622 297.216 387.95 287.594 388.729 278.09ZM391.802 294.259C392.058 297.94 392.831 301.584 394.09 305.052C395.346 305.233 396.589 305.494 397.84 305.705C408.622 307.53 419.649 305.694 430.429 303.861C431.194 303.731 432.033 303.558 432.505 302.942C432.988 302.314 432.923 301.438 432.836 300.65C432.465 297.292 432.094 293.933 431.722 290.575C431.692 290.304 431.654 290.014 431.471 289.812C431.248 289.568 430.884 289.528 430.554 289.506C422.893 289.002 415.207 289.574 407.551 290.145C403.319 290.46 399.087 290.776 394.855 291.092C393.86 291.166 392.731 291.313 392.159 292.13C391.737 292.731 391.751 293.526 391.802 294.259ZM391.922 280.212C391.252 282.358 391.132 284.674 391.576 286.878C391.655 287.274 391.767 287.692 392.068 287.962C392.514 288.362 393.194 288.296 393.787 288.209C400.997 287.153 408.284 286.629 415.571 286.641C416.599 286.643 416.915 285.26 416.903 284.232C416.887 282.727 416.87 281.221 416.854 279.716C416.844 278.845 416.801 277.885 416.204 277.25C415.487 276.487 414.289 276.511 413.245 276.591C410.831 276.775 408.417 276.959 406.003 277.144C404.848 277.232 401.785 278.016 400.377 278.109C397.926 278.499 395.476 278.89 393.025 279.281C392.763 279.323 392.488 279.371 392.286 279.543C392.09 279.71 391.998 279.966 391.922 280.212ZM424.246 286.76C426.161 286.785 428.08 286.593 429.953 286.19C430.399 286.095 430.868 285.973 431.186 285.646C431.653 285.166 431.648 284.414 431.614 283.745C431.515 281.804 431.416 279.863 431.317 277.922C431.282 277.23 431.204 276.45 430.662 276.017C430.186 275.636 429.514 275.659 428.905 275.7C426.775 275.845 424.644 275.99 422.514 276.135C422.177 276.158 421.822 276.186 421.54 276.372C421.024 276.713 420.947 277.427 420.933 278.045C420.885 280.102 420.969 282.163 421.184 284.209C421.247 284.802 421.333 285.426 421.699 285.895C422.271 286.627 423.317 286.748 424.246 286.76Z" fill="#FFB61D"/>
<path fill-rule="evenodd" clip-rule="evenodd" d="M422.09 235.497C424.938 234.265 428.432 234.677 430.914 236.539C433.396 238.4 434.77 241.637 434.383 244.715C436.128 243.772 438.341 242.843 439.97 243.976C441.808 245.254 441.388 248.007 441.112 250.229C440.629 254.111 441.255 258.124 442.897 261.675C443.575 263.141 444.157 265.367 442.653 265.958C442.399 266.058 442.122 266.081 441.85 266.103C424.213 267.524 406.575 268.944 388.937 270.365C388.454 270.404 387.912 270.425 387.546 270.107C387.173 269.782 387.126 269.228 387.106 268.734C386.937 264.587 386.768 260.441 386.599 256.294C386.553 255.182 386.532 253.982 387.16 253.063C388.2 251.542 390.379 251.547 392.199 251.255C394.019 250.964 396.137 249.429 395.436 247.725C394.655 245.825 397.317 244.437 399.348 244.128C401.38 243.819 404.075 242.609 403.459 240.649C402.787 238.508 405.734 237.18 407.959 236.884C409.529 236.676 411.171 236.474 412.661 237.013C414.15 237.551 415.409 239.084 415.074 240.631C414.689 242.402 416.848 244.053 418.55 243.427C420.252 242.801 420.941 240.477 420.08 238.882C419.376 237.579 420.731 236.085 422.09 235.497ZM431.198 262.823C430.539 261.6 430.534 260.145 430.528 258.756C430.5 252.234 430.099 245.713 429.328 239.237C429.289 238.91 429.227 238.545 428.959 238.353C428.728 238.188 428.418 238.207 428.135 238.234C426.757 238.363 425.125 238.667 424.58 239.939C424.348 240.481 424.375 241.095 424.407 241.684C424.756 248.22 425.105 254.757 425.455 261.294C425.487 261.903 425.568 262.602 426.075 262.942C426.35 263.127 426.698 263.162 427.03 263.18C428.427 263.256 429.834 263.135 431.198 262.823ZM407.475 252.772C407.304 253.861 407.064 254.942 407 256.043C406.893 257.882 407.281 259.71 407.666 261.511C407.913 262.667 409.407 263.235 410.502 262.79C411.596 262.344 412.257 261.177 412.439 260.01C412.621 258.843 412.408 257.655 412.222 256.489C411.491 251.906 411.175 247.257 411.278 242.618C411.304 241.444 410.158 240.384 408.989 240.499C407.82 240.615 406.905 241.88 407.162 243.026C407.875 246.217 407.982 249.542 407.475 252.772ZM419.075 246.512C418.388 245.612 416.812 246.091 416.275 247.089C415.738 248.086 415.902 249.296 416.035 250.421C416.383 253.358 416.416 256.333 416.134 259.277C416.051 260.145 415.959 261.093 416.438 261.822C417.176 262.942 418.794 262.932 420.129 262.797C420.548 262.754 421.029 262.673 421.24 262.309C421.386 262.055 421.351 261.741 421.312 261.451C420.697 256.882 420.081 252.314 419.465 247.746C419.407 247.313 419.34 246.859 419.075 246.512ZM434.353 248.475C433.835 249.181 433.726 250.1 433.681 250.975C433.526 253.974 433.924 256.97 434.32 259.946C434.477 261.119 435.013 262.626 436.194 262.546C437.391 262.465 437.703 260.865 437.675 259.666C437.602 256.492 437.528 253.317 437.454 250.143C437.435 249.308 437.347 248.341 436.654 247.875C435.927 247.386 434.871 247.769 434.353 248.475ZM398.2 247.725C398.2 247.725 398.726 251.868 398.909 253.979C399.139 256.629 399.432 259.274 399.788 261.91C399.84 262.293 399.909 262.708 400.192 262.971C400.682 263.428 402.571 263.125 402.92 262.552C403.268 261.98 403.248 261.266 403.218 260.597C403.122 258.481 403.026 256.365 402.93 254.249C402.827 251.98 402.288 247.089 402.288 247.089M391.345 262.727C391.496 263.202 391.675 263.698 392.058 264.016C392.808 264.635 394.023 264.252 394.613 263.48C395.204 262.708 395.337 261.69 395.45 260.725C395.589 259.54 395.723 258.309 395.339 257.18C394.955 256.051 393.893 255.057 392.704 255.162C391.611 255.259 390.764 256.257 390.509 257.324C390.254 258.391 390.469 259.51 390.734 260.574C390.915 261.298 391.119 262.016 391.345 262.727Z" fill="#E7EAEE"/>
<path fill-rule="evenodd" clip-rule="evenodd" d="M264.694 401.554C266.244 400.377 268.171 399.615 270.113 399.741C272.055 399.866 273.977 400.979 274.79 402.747C275.662 404.644 275.118 407.001 273.758 408.585C272.398 410.169 270.348 411.044 268.28 411.333C266.868 411.53 265.185 411.353 264.412 410.156C264.039 409.578 263.954 408.867 263.879 408.183C263.745 406.957 263.61 405.73 263.476 404.503C263.419 403.984 263.363 403.444 263.531 402.949C263.727 402.366 264.205 401.926 264.694 401.554ZM270.824 405.082C271.05 404.909 271.286 404.722 271.384 404.456C271.698 403.602 270.465 403.034 269.554 403.055C268.233 403.085 266.54 403.974 266.944 405.231C267.178 405.959 268.074 406.296 268.827 406.162C269.58 406.028 270.218 405.548 270.824 405.082Z" fill="#00160A"/>
<path fill-rule="evenodd" clip-rule="evenodd" d="M538.756 111.584C538.587 109.583 537.247 107.614 535.301 107.112C532.829 106.475 530.433 108.215 528.471 109.847C527.89 110.33 527.284 110.849 527.038 111.563C526.621 112.774 527.371 114.05 528.11 115.096C528.957 116.294 529.861 117.499 531.096 118.29C532.332 119.082 533.979 119.39 535.275 118.702C535.935 118.351 536.449 117.778 536.896 117.178C538.096 115.567 538.924 113.586 538.756 111.584ZM533.273 116.716C532.435 116.842 531.566 116.503 530.95 115.923C530.026 115.053 529.659 113.655 529.982 112.428C530.322 111.137 531.407 110.07 532.704 109.751C534.002 109.433 535.458 109.876 536.358 110.863C536.324 111.132 536.296 111.403 536.268 111.674C536.172 112.594 536.077 113.517 535.758 114.381C535.345 115.5 534.453 116.539 533.273 116.716Z" fill="#00160A"/>
<path fill-rule="evenodd" clip-rule="evenodd" d="M523.987 104.411C526.625 101.091 531.433 100.613 535.674 100.717C536.665 100.741 537.684 100.789 538.586 101.2C541.095 102.343 541.627 105.619 541.712 108.373C541.789 110.88 541.775 113.419 541.166 115.851C540.556 118.283 539.296 120.626 537.28 122.119C536.374 122.79 535.323 123.279 534.211 123.465C532.493 123.753 530.734 123.312 529.101 122.704C526.925 121.895 524.861 120.783 522.987 119.411C522.072 118.741 521.127 117.863 521.098 116.73C521.03 114.116 521.323 111.493 521.965 108.958C522.376 107.338 522.948 105.72 523.987 104.411ZM530.827 120.948C534.214 121.92 537.816 119.301 539.1 116.021C540.383 112.741 539.908 109.057 539.203 105.607C538.932 104.282 537.516 103.542 536.21 103.188C534.189 102.639 532.04 102.567 529.987 102.977C528.966 103.181 527.924 103.531 527.208 104.285C526.817 104.696 526.547 105.204 526.282 105.705L524.298 109.453C523.949 110.112 523.598 110.778 523.393 111.495C522.779 113.639 523.59 116.021 525.088 117.674C526.587 119.327 528.682 120.332 530.827 120.948Z" fill="#00160A"/>
<path fill-rule="evenodd" clip-rule="evenodd" d="M490.015 167.84C490.8 169.037 490.554 170.636 490.033 171.969C489.346 173.727 488.186 175.355 486.547 176.289C484.907 177.224 482.754 177.361 481.157 176.356C479.56 175.352 478.758 173.117 479.614 171.436C479.812 171.047 480.082 170.703 480.352 170.358C480.61 170.029 480.869 169.699 481.064 169.33C481.193 169.087 481.293 168.83 481.393 168.572C481.538 168.201 481.682 167.831 481.91 167.507C482.724 166.357 484.325 166.131 485.734 166.15C487.333 166.173 489.138 166.503 490.015 167.84ZM486.446 168.6C484.259 168.573 482.208 170.406 481.991 172.581C481.903 173.47 482.28 174.576 483.165 174.698C483.829 174.79 484.411 174.278 484.857 173.778C485.8 172.721 486.611 171.546 487.263 170.288C487.482 169.866 487.674 169.325 487.387 168.947C487.177 168.671 486.792 168.605 486.446 168.6Z" fill="#00160A"/>
<path fill-rule="evenodd" clip-rule="evenodd" d="M485.499 158.845C488.605 159.928 491.42 161.833 493.58 164.313C495.436 166.445 496.849 169.212 496.459 172.011C496.316 173.038 495.937 174.018 495.504 174.961C493.866 178.533 491.048 181.956 487.179 182.647C485.149 183.01 483.056 182.575 481.104 181.911C478.846 181.144 476.694 180.067 474.726 178.72C473.682 178.006 472.645 177.159 472.187 175.98C471.872 175.167 471.862 174.273 471.874 173.401C471.903 171.246 472.046 169.055 472.798 167.035C473.749 164.479 475.61 162.369 477.583 160.486C478.377 159.729 479.219 158.983 480.238 158.577C481.905 157.913 483.805 158.254 485.499 158.845ZM488.675 177.629C490.919 175.409 492.225 172.191 491.869 169.055C491.514 165.92 489.391 162.977 486.42 161.906C485.186 161.461 483.817 161.337 482.553 161.687C481.871 161.876 481.231 162.197 480.634 162.576C478.077 164.202 476.282 166.974 475.847 169.971C475.411 172.968 476.342 176.136 478.33 178.421C479.603 179.885 481.68 180.512 483.605 180.269C485.53 180.026 487.296 178.993 488.675 177.629Z" fill="#00160A"/>
<path fill-rule="evenodd" clip-rule="evenodd" d="M588.708 252.455C587.942 252.741 587.086 252.545 586.306 252.3C581.02 250.64 576.728 246.926 572.51 243.276C571.939 242.781 571.368 242.288 570.798 241.801C563.808 235.842 556.222 230.581 548.191 226.123C547.373 225.669 546.517 225.192 546.016 224.403C545.516 223.614 545.53 222.412 546.302 221.886C549.904 219.428 552.24 215.21 552.411 210.855C552.457 209.694 553.769 208.92 554.927 209.013C556.086 209.106 557.096 209.802 558.043 210.474L594.743 236.513C595.458 237.02 596.227 237.608 596.402 238.466C596.545 239.166 596.251 239.875 595.956 240.526C594.373 244.017 592.553 247.4 590.512 250.644C590.05 251.379 589.522 252.152 588.708 252.455ZM551.992 221.565C551.56 222.326 551.187 223.426 551.886 223.952L581.834 246.49C583.474 247.725 586.023 248.881 587.315 247.286C588.798 245.454 590.183 243.544 591.462 241.564C591.812 241.023 592.169 240.404 592.043 239.772C591.928 239.195 591.442 238.775 590.985 238.405C579.994 229.497 568.357 221.386 556.195 214.157L551.992 221.565Z" fill="#00160A"/>
<path fill-rule="evenodd" clip-rule="evenodd" d="M539.096 233.408C538.158 233.612 537.571 234.519 537.088 235.348C536.367 236.583 535.63 237.868 535.492 239.291C535.28 241.463 536.498 243.51 537.857 245.217C538.9 246.526 540.082 247.766 541.555 248.559C543.029 249.352 544.839 249.649 546.394 249.033C547.836 248.462 548.877 247.211 549.854 246.008C550.462 245.259 551.082 244.488 551.383 243.572C551.684 242.656 551.6 241.549 550.924 240.862C548.115 238.003 544.812 235.631 541.206 233.88C540.545 233.56 539.814 233.252 539.096 233.408ZM547.173 243.601C547.114 245.088 545.663 245.786 543.395 244.905C541.127 244.023 539.321 240.715 539.379 240.301C538.995 239.444 539.951 238.476 540.89 238.47C541.829 238.464 542.65 239.064 543.395 239.636L545.647 241.368C546.392 241.94 547.211 242.663 547.173 243.601Z" fill="#00160A"/>
<path fill-rule="evenodd" clip-rule="evenodd" d="M536.213 263.818C535.582 263.804 534.996 263.508 534.443 263.205C531.363 261.52 528.51 259.421 525.985 256.982C525.425 256.44 524.883 255.484 525.483 254.985C527.486 253.32 529.645 251.365 529.841 248.768C529.938 247.479 531.613 246.842 532.843 247.243C533.877 247.579 534.669 248.368 535.448 249.145C535.518 249.215 535.588 249.285 535.658 249.354L535.69 249.385L535.785 249.479C535.82 249.514 535.856 249.548 535.891 249.582C536.822 250.48 538.014 251.32 539.295 251.143C540.921 250.919 542.281 252.668 542.254 254.309C542.226 255.949 541.244 257.408 540.226 258.696C540.126 258.822 540.025 258.949 539.923 259.076C538.994 260.24 538.045 261.429 537.681 262.863C537.526 263.474 536.843 263.831 536.213 263.818ZM530.899 255.591L534.843 258.258C535.085 258.421 535.355 258.592 535.645 258.555C535.917 258.52 536.129 258.31 536.318 258.111C536.872 257.532 537.439 256.93 537.718 256.179C537.997 255.428 537.913 254.481 537.303 253.961C536.382 253.175 535.434 252.374 534.294 251.965C533.154 251.557 531.764 251.619 530.87 252.435C529.976 253.252 529.896 254.913 530.899 255.591Z" fill="#00160A"/>
<path fill-rule="evenodd" clip-rule="evenodd" d="M566.114 258.434L568.042 254.338C568.633 253.083 569.205 251.531 568.408 250.397C568.131 250.003 567.723 249.726 567.323 249.457L560.306 244.73C559.55 244.22 558.729 243.691 557.817 243.705C556.736 243.722 555.829 244.494 555.062 245.255C553.911 246.394 552.836 247.609 551.845 248.89C551.09 249.864 550.471 251.468 551.502 252.144L562.239 259.185C563.087 259.741 564.162 260.312 565.053 259.828C565.575 259.544 565.86 258.972 566.114 258.434ZM563.734 255.534C563.283 255.638 562.813 255.523 562.369 255.39C559.659 254.573 557.177 253.01 555.271 250.917C554.638 250.221 554.996 248.992 555.801 248.504C556.607 248.016 557.654 248.128 558.522 248.492C559.083 248.728 559.596 249.056 560.11 249.384C560.391 249.564 560.673 249.744 560.963 249.909C561.275 250.086 561.6 250.249 561.925 250.412C562.848 250.874 563.772 251.337 564.401 252.137C565.252 253.219 565.076 255.226 563.734 255.534Z" fill="#00160A"/>
<path fill-rule="evenodd" clip-rule="evenodd" d="M567.361 260.109C568.598 259.815 568.976 258.554 569.369 257.243C569.694 256.16 570.029 255.042 570.867 254.409C572.311 253.318 574.356 254.23 575.911 255.155L580.858 258.096C581.646 258.565 582.453 259.05 583.018 259.771C583.584 260.493 583.861 261.516 583.466 262.343C583.202 262.895 582.703 263.261 582.2 263.63C581.788 263.933 581.373 264.237 581.084 264.647C580.712 265.174 580.574 265.834 580.437 266.486C580.265 267.304 580.097 268.11 579.472 268.625C578.333 269.563 576.64 268.811 575.381 268.042L568.412 263.786C567.709 263.357 566.968 262.885 566.623 262.138C566.278 261.39 566.559 260.3 567.361 260.109ZM576.497 264.336C577.494 263.995 578.296 263.255 579.066 262.535C579.624 262.014 578.878 261.155 578.212 260.78L573.942 258.377C573.497 258.126 572.877 257.898 572.532 258.274C571.42 259.487 571.258 261.467 572.159 262.844C573.06 264.221 574.939 264.867 576.497 264.336Z" fill="#00160A"/>
<path fill-rule="evenodd" clip-rule="evenodd" d="M527.51 264.187C526.555 263.917 525.582 263.643 524.801 263.111C523.589 262.285 521.901 262.485 520.629 263.215C519.357 263.946 518.408 265.116 517.49 266.26C516.98 266.895 516.457 267.557 516.262 268.348C516.067 269.138 516.3 270.096 517.011 270.492L524.456 274.64C525.02 274.954 525.65 275.278 526.279 275.139C526.907 275 527.34 274.443 527.718 273.923L529.633 271.288C530.7 269.822 531.814 267.953 531.034 266.316C530.409 265.004 528.98 264.601 527.51 264.187ZM525.154 271.011C524.765 271.114 524.364 270.926 524.005 270.744L518.933 268.164C519.908 266.784 521.763 266.255 523.445 266.422C525.127 266.589 526.688 267.336 528.209 268.072L525.878 270.491C525.669 270.708 525.445 270.934 525.154 271.011Z" fill="#00160A"/>
<path fill-rule="evenodd" clip-rule="evenodd" d="M466.731 428.956C471.289 412.839 479.895 398.211 488.412 383.788C489.851 381.349 491.636 378.664 494.43 378.202C495.532 378.019 496.113 376.823 496.488 375.772C501.107 362.821 501.552 348.419 497.742 335.207C496.654 331.436 497.993 327.439 499.318 323.744L509.576 295.142C508.509 293.298 506.492 292.488 504.448 291.667C502.739 290.98 501.011 290.286 499.805 288.973C496.4 285.263 498.969 279.365 501.636 275.095L548.392 200.253C550.301 197.196 554.491 196.238 558.003 197.052C561.515 197.867 564.514 200.076 567.403 202.232L601.503 227.69C607.603 232.245 614.338 238.062 613.987 245.665C613.793 249.872 611.384 253.612 609.054 257.121L582.029 297.825C578.534 303.088 578.11 309.487 577.685 315.915C577.492 318.822 577.299 321.736 576.821 324.552C574.491 338.295 565.335 349.676 556.562 360.58C556.212 361.016 555.862 361.45 555.514 361.883C546.435 373.186 537.35 385.807 536.84 400.293C536.232 417.559 528.026 434.422 514.812 445.558L526.31 417.676C529.045 411.045 531.577 402.796 527.001 397.272C524.93 394.772 521.801 393.45 518.797 392.218L500.938 384.895C499.707 384.39 498.437 383.877 497.107 383.869C492.958 383.843 490.49 388.341 488.808 392.131C482.988 405.245 475.556 417.642 466.731 428.956ZM525.453 391.09C528.515 392.224 532.825 392.912 534.276 389.988C541.299 375.838 548.515 361.417 559.693 350.252C566.136 343.817 570.086 335.231 572.32 326.405C574.555 317.579 575.187 308.439 575.811 299.356C573.098 300.343 572.862 304.002 572.874 306.888C572.899 313.248 571.787 319.612 569.605 325.587C569.148 326.838 568.535 328.19 567.312 328.717C566.089 329.245 564.287 328.185 564.698 326.919C567.853 317.199 569.029 306.842 568.133 296.663C567.855 293.507 567.267 290.131 565.022 287.895C565.266 292.878 565.509 297.884 565.004 302.847C564.13 311.434 561.049 319.622 557.996 327.696C557.6 328.745 557.12 329.888 556.113 330.38C555.106 330.873 553.543 330.092 553.806 329.003L558.379 310.11C560.893 299.723 563.365 288.549 559.473 278.595C557.513 278.463 557.051 281.264 557.226 283.22C558.425 296.617 554.72 309.913 551.052 322.853C550.623 324.363 549.108 326.253 547.93 325.213C547.422 324.765 547.399 323.993 547.44 323.317C547.672 319.512 548.715 315.828 549.758 312.148L549.758 312.147C550.081 311.005 550.405 309.864 550.704 308.719C553.46 298.166 554.163 287.081 552.762 276.264C550.347 279.359 549.322 283.283 548.355 287.087L542.616 309.667C540.022 319.874 536.707 331.095 527.711 336.578C526.994 337.015 526.164 337.421 525.347 337.228C524.332 336.987 523.757 335.939 523.334 334.986C517.593 322.061 516.875 306.981 521.364 293.569C521.637 292.755 520.808 291.905 519.952 291.837C519.096 291.77 518.295 292.236 517.593 292.731C510.228 297.925 507.406 307.336 505.063 316.036L501.948 327.605C501.493 329.295 501.035 331 500.94 332.747C500.796 335.403 501.49 338.002 502.18 340.586C502.34 341.185 502.5 341.783 502.649 342.382C505.645 354.401 504.291 367.455 498.893 378.605C498.097 380.248 500.198 381.744 501.911 382.378L525.453 391.09ZM537.089 280.679C535.861 279.834 534.545 278.868 534.165 277.427C533.583 275.216 535.689 272.996 537.957 272.698C540.224 272.401 542.442 273.495 544.322 274.798C546.968 276.633 550.319 273.834 552.3 271.296C549.627 269.697 547.077 267.216 546.971 264.104C546.866 260.991 550.651 258.027 553.171 259.859C554.149 260.57 555.331 261.004 556.501 261.435C558.253 262.079 559.976 262.712 560.937 264.246C562.03 265.991 561.642 268.35 560.529 270.082C559.416 271.814 557.703 273.057 556.031 274.258C558.431 274.496 560.768 275.352 562.754 276.72L564.919 270.415C565.087 269.926 565.27 269.415 565.655 269.069C566.396 268.404 567.551 268.61 568.501 268.911C570.994 269.702 573.438 270.936 575.083 272.968C576.729 275 577.414 277.951 576.265 280.299C575.115 282.647 571.871 283.899 569.672 282.483C569.216 282.189 568.758 281.797 568.299 281.404C567.074 280.355 565.849 279.306 564.666 280.146C568.278 282.957 570.759 287.18 571.455 291.703C582.826 274.391 594.074 256.998 605.2 239.528C606.262 237.86 607.119 235.231 605.389 234.272C598.001 230.175 591.47 224.688 584.955 219.215C576.731 212.305 568.532 205.417 558.664 201.371C558.038 201.115 557.353 200.866 556.699 201.039C556.013 201.22 555.53 201.816 555.098 202.379C536.723 226.352 520.231 251.767 505.825 278.313C503.815 282.017 506.505 286.431 509.078 289.768C510.364 291.436 512.846 293.197 514.248 291.626C516.015 289.646 518.913 288.515 521.415 289.399C523.918 290.283 525.475 293.536 524.114 295.814C523.13 297.461 525.057 299.292 526.741 300.214C530.105 302.057 533.556 303.74 537.078 305.258C537.568 305.469 538.138 305.676 538.614 305.437C539.069 305.21 539.253 304.67 539.394 304.182L543.297 290.761C543.939 288.554 544.368 285.69 542.474 284.386L537.089 280.679ZM606.895 243.058C606.377 242.88 605.904 243.399 605.599 243.854L576.381 287.57C575.595 288.746 574.79 289.969 574.561 291.365C574.331 292.76 574.844 294.383 576.115 295.004C578.219 296.033 580.421 293.871 581.771 291.958L608.918 253.501C610.934 250.645 609.228 246.742 607.503 243.702C607.354 243.439 607.181 243.156 606.895 243.058ZM524.631 301.434C524.117 301.06 523.348 301.283 522.917 301.752C522.487 302.22 522.31 302.861 522.148 303.476C521.749 304.99 521.348 306.518 521.289 308.083C521.229 309.647 521.514 311.202 521.797 312.742L524.595 327.943C524.712 328.581 524.849 329.258 525.302 329.722C525.754 330.187 526.635 330.288 527.001 329.753C531.142 323.699 535.342 317.527 537.508 310.52C537.777 309.649 537.856 308.425 537.002 308.103C532.603 306.449 528.43 304.199 524.631 301.434ZM556.943 263.926C555.54 262.591 553.687 261.738 551.76 261.542C550.003 261.363 548.99 263.829 549.792 265.401C550.594 266.974 552.365 267.753 554.004 268.409C555.161 268.873 556.564 269.31 557.573 268.578C559.022 267.526 558.24 265.161 556.943 263.926ZM545.408 281.542C545.98 281.136 546.054 280.304 545.894 279.622C545.291 277.048 542.468 275.734 539.934 274.98C538.953 274.689 537.734 274.485 537.043 275.239C536.466 275.868 536.589 276.911 537.086 277.604C537.584 278.298 538.362 278.726 539.114 279.131L543.029 281.238C543.773 281.638 544.719 282.032 545.408 281.542ZM567.681 272.268C566.852 273.377 566.937 274.99 567.628 276.189C568.32 277.389 569.517 278.222 570.781 278.789C571.214 278.984 571.689 279.155 572.155 279.062C572.555 278.982 572.898 278.712 573.143 278.386C574.047 277.178 573.608 275.359 572.572 274.261C571.536 273.164 570.062 272.615 568.643 272.101C568.398 272.012 568.113 271.926 567.89 272.06C567.805 272.111 567.74 272.189 567.681 272.268Z" fill="#00160A"/>
<path d="M205.231 140.359C205.127 138.88 203.149 138.493 201.667 138.536C193.884 138.765 186.112 139.348 178.383 140.282C177.113 140.436 177.011 142.482 178.03 143.255C179.048 144.027 180.468 143.884 181.734 143.704L205.231 140.359Z" fill="#00160A"/>
<path d="M180.353 150.357C180.42 149.596 181.377 149.32 182.137 149.234L227.975 144.046C228.804 143.952 229.688 143.867 230.434 144.24C231.18 144.613 231.66 145.634 231.173 146.311C230.814 146.81 230.125 146.911 229.513 146.971L182.629 151.518C181.654 151.613 180.267 151.332 180.353 150.357Z" fill="#00160A"/>
<path fill-rule="evenodd" clip-rule="evenodd" d="M283.115 158.074C280.55 158.638 277.918 157.713 275.459 156.794C267.506 153.823 259.584 150.77 251.695 147.636C248.51 146.371 245.015 148.266 242.151 150.146C233.861 155.589 225.88 161.502 218.258 167.845C216.301 169.475 213.288 168.332 211.314 166.722C210.897 166.382 210.486 166.019 210.073 165.655C208.535 164.296 206.978 162.92 204.989 162.638C201.931 162.205 199.241 164.521 197.026 166.672L182.738 180.541C180.817 182.406 178.794 185.393 180.504 187.454C181.633 188.814 183.704 188.744 185.46 188.541C194.626 187.479 203.747 185.99 212.864 184.501C227.934 182.041 242.994 179.582 258.236 179.055C261.613 178.938 264.993 178.916 268.373 178.895C270.489 178.882 272.605 178.868 274.721 178.831C284.265 178.665 293.8 178.022 303.279 176.906C303.738 176.852 304.26 176.758 304.498 176.362C304.677 176.064 304.632 175.687 304.582 175.342L300.566 148.035C300.362 146.647 300.006 145.044 298.737 144.444C297.456 143.839 295.946 144.619 294.894 145.569C293.247 147.056 291.979 149.029 290.728 150.977C288.676 154.171 286.67 157.294 283.115 158.074ZM217.909 173.016C226.484 165.969 235.426 159.366 244.686 153.245C246.587 151.988 248.898 150.701 251.023 151.526L273.477 160.247C277.224 161.702 281.323 163.177 285.17 162.01C289.642 160.653 292.316 156.206 294.568 152.112C295.006 151.316 296.28 151.408 296.911 152.062C297.542 152.716 297.702 153.679 297.831 154.578L299.475 165.966C299.727 167.714 299.975 169.529 299.47 171.222C298.964 172.915 297.479 174.452 295.712 174.418C266.809 173.86 237.85 176.243 209.428 181.516C208.548 181.679 207.668 181.845 206.787 182.011L206.786 182.012C199.996 183.293 193.181 184.579 186.28 184.602C189.612 179.885 193.834 175.878 198.027 171.905C200.329 169.724 203.207 167.371 206.298 168.085C207.967 168.47 209.247 169.669 210.521 170.861C210.929 171.244 211.337 171.625 211.756 171.98C213.485 173.438 216.161 174.452 217.909 173.016Z" fill="#00160A"/>
<path fill-rule="evenodd" clip-rule="evenodd" d="M175.095 372.813C175.637 368.809 176.396 364.403 179.543 361.868C182.053 359.846 185.497 359.523 188.72 359.461C199.276 359.259 209.867 360.972 219.82 364.493C222.969 365.607 226.264 367.074 227.986 369.935C229.85 373.033 229.395 376.939 228.88 380.516L220.886 436.026C226.398 419.951 230.356 403.343 232.685 386.509C233.772 378.656 234.151 369.644 228.667 363.916C220.107 354.974 220.341 342.237 220.578 329.286C220.783 318.109 220.991 306.773 215.551 297.579C213.776 294.579 217.733 291.482 221.024 290.331C235.53 285.254 250.993 282.925 266.351 283.503C269.167 305.735 269.929 328.226 268.623 350.598C268.331 355.615 275.45 356.91 280.447 356.356L453.82 337.14C454.687 337.044 455.625 336.915 456.24 336.296C456.958 335.574 456.994 334.438 456.984 333.42C456.575 292.819 455.406 252.225 453.477 211.667C453.402 210.084 453.201 208.266 451.89 207.375C450.907 206.707 449.613 206.795 448.43 206.91L324.684 218.9C332.813 180.577 340.989 141.535 337.281 102.535C310.229 120.563 275.323 120.428 242.866 118.519C241.517 118.44 240.165 118.359 238.811 118.278C207.576 116.412 175.003 114.466 146.923 127.971C161.626 166.936 176.497 209.467 164.275 249.278C163.194 252.801 161.908 256.261 160.622 259.719C158.639 265.051 156.658 270.379 155.433 275.926C153.413 285.07 153.716 295.308 159.13 302.951C166.971 314.018 173.201 326.601 174.622 340.087C175.97 352.885 172.957 365.577 169.948 378.255C166.803 391.501 163.662 404.731 165.504 418.05C165.815 420.303 166.378 422.727 168.143 424.163L175.095 372.813ZM187.361 211.997C190.64 212.113 191.943 216.227 192.362 219.479L195.681 245.232C189.2 241.874 180.082 247.574 180.268 254.869C174.807 244.333 173.977 232.257 173.156 220.304C172.977 217.704 172.799 215.109 172.573 212.537C170.162 185.037 161.87 158.437 153.629 132.089C152.454 128.331 157.53 125.895 161.427 125.324C186.997 121.577 212.877 122.094 238.769 122.612C250.505 122.846 262.243 123.081 273.957 122.919C294.77 122.63 316.792 120.661 333.675 108.492C337.47 133.777 332.312 159.288 327.22 184.477C326.531 187.884 325.843 191.286 325.179 194.68C319.605 223.167 315.811 253.531 326.476 280.53C326.925 281.667 325.393 282.525 324.195 282.775C315.424 284.604 306.354 284.997 297.457 283.936C293.64 283.481 289.864 282.761 286.087 282.041C283.243 281.499 280.398 280.957 277.535 280.528C255.984 277.296 233.49 280.651 213.821 290.03C213.033 290.406 212.095 290.23 211.27 289.944C207.287 288.566 204.445 284.888 203.027 280.92C201.609 276.952 201.406 272.67 201.217 268.461L200.424 250.808C200.395 250.173 200.562 249.312 201.197 249.292C235.651 248.217 270.066 245.895 304.352 242.333C302.902 234.225 302.758 225.885 303.928 217.732C304.666 212.585 299.823 207.892 294.667 207.203C289.51 206.514 284.411 208.849 280.129 211.802C278.528 212.907 276.99 214.108 275.453 215.307C272.881 217.314 270.312 219.319 267.451 220.873C265.579 221.89 263.327 222.71 261.361 221.889C258.954 220.883 258.147 218.022 257.427 215.468C257.382 215.307 257.337 215.148 257.292 214.99C256.354 211.701 254.804 208.427 252.079 206.358C249.353 204.29 245.241 203.774 242.551 205.889C240.251 207.696 239.524 210.827 239.138 213.726C239.104 213.984 239.071 214.243 239.038 214.503C238.696 217.169 238.343 219.924 236.751 222.061C235.005 224.407 231.106 225.413 229.191 223.203C225.402 218.831 218.753 217.914 213.173 219.449C207.594 220.983 202.82 224.526 198.191 227.996C195.399 223.629 195.168 217.747 197.609 213.174C197.623 213.148 197.636 213.123 197.65 213.097C198.109 212.239 198.636 211.253 198.23 210.379C197.979 209.837 197.425 209.505 196.876 209.269C193.593 207.862 189.399 209.065 187.361 211.997ZM286.013 285.817C287.849 286.183 290.105 287.001 290.218 288.869C291.301 306.678 305.461 322.682 322.871 326.624C340.28 330.566 359.575 322.595 369.726 307.918C379.877 293.242 380.672 272.854 372.348 257.07C363.421 240.143 341.728 231.153 323.437 236.803C322.588 233.062 322.684 229.111 323.712 225.416C323.903 224.73 324.152 224.013 324.706 223.565C325.248 223.127 325.979 223.027 326.67 222.944L378.194 216.741C382.724 216.196 387.265 215.65 391.828 215.612C411.447 215.451 431.052 213.495 450.316 209.778C453.309 249.955 454.718 290.249 454.537 330.536C454.529 332.447 453.947 334.987 452.035 335.043C419.609 335.987 387.438 340.25 355.254 344.515C333.631 347.381 312.002 350.247 290.287 352.108C285.446 352.523 280.573 352.888 275.737 352.427C274.86 352.343 273.872 352.165 273.395 351.424C273.108 350.978 273.076 350.419 273.052 349.889L270.16 285.451C270.123 284.618 270.173 283.614 270.895 283.196C271.373 282.919 271.971 283.019 272.513 283.127L286.013 285.817ZM197.297 270.899C196.785 274.245 196.208 278.011 198.402 280.543C206.584 289.988 215.085 300.079 217.259 312.383C218.275 318.128 217.839 324.041 217.404 329.93C216.857 337.348 216.312 344.728 218.676 351.687C218.738 351.868 218.801 352.05 218.865 352.232C219.299 353.473 219.742 354.737 219.601 356.033C219.44 357.518 218.15 359.013 216.676 358.759L199.571 355.81C193.906 354.834 187.922 353.883 182.541 355.905C181.501 356.295 180.303 355.609 179.746 354.649C179.188 353.688 179.115 352.531 179.066 351.421C179.008 350.081 178.964 348.732 178.92 347.379C178.644 338.867 178.363 330.196 174.421 322.739L161.845 298.944C159.989 295.432 158.089 291.762 157.961 287.792C157.875 285.14 158.592 282.536 159.301 279.98L165.575 257.392C166.896 252.637 168.293 247.73 171.421 243.911C179.02 256.797 179.77 273.467 173.358 286.982C172.765 288.233 174.577 289.52 175.869 289.022C177.16 288.523 177.816 287.109 178.271 285.802C180.095 280.568 180.734 275.051 181.375 269.525C181.893 265.054 182.412 260.578 183.559 256.242C184.261 253.587 185.275 250.876 187.327 249.048C189.379 247.22 192.725 246.594 194.875 248.305C196.52 249.615 197.055 251.853 197.368 253.932C198.194 259.417 198.19 265.026 197.357 270.51C197.337 270.639 197.317 270.768 197.297 270.899ZM226.812 226.306C229.333 228.235 231.803 230.124 234.828 229.774C238.674 229.329 241.07 225.373 242.186 221.668C242.431 220.857 242.648 220.028 242.866 219.196C243.644 216.228 244.428 213.236 246.466 211.003C247.058 210.354 247.91 209.75 248.751 210.004C249.433 210.211 249.83 210.9 250.146 211.538C250.594 212.441 251.019 213.359 251.443 214.278C252.64 216.869 253.837 219.461 255.575 221.712C257.929 224.762 261.592 227.16 265.423 226.741C268.848 226.366 271.525 223.941 274.134 221.578C274.668 221.094 275.2 220.612 275.735 220.15C282.019 214.735 290.202 211.566 298.496 211.338C297.377 214.132 298.123 217.18 298.855 220.172C299.031 220.892 299.207 221.609 299.355 222.318C300.526 227.913 299.934 233.863 297.684 239.118L242.289 243.38C229.357 244.375 216.392 245.371 203.43 244.916C202.611 244.887 201.772 244.848 201.018 244.525C199.596 243.917 198.751 242.399 198.444 240.883C197.758 237.483 199.326 233.943 201.701 231.414C204.076 228.886 207.178 227.183 210.224 225.523C213.395 223.795 216.915 222.009 220.449 222.747C222.801 223.238 224.823 224.784 226.812 226.306ZM331.709 306.961C323.317 306.788 316.046 299.945 313.554 291.933C313.046 290.297 314.104 288.503 315.563 287.605C317.022 286.707 318.788 286.495 320.491 286.303L332.787 284.923C329.048 277.658 326.385 269.841 324.911 261.805C324.777 261.076 324.655 260.31 324.886 259.606C325.291 258.369 326.624 257.718 327.858 257.304C337.849 253.948 349.845 258.022 355.719 266.768C361.594 275.514 360.824 288.157 353.929 296.124C350.944 299.574 347.032 302.119 342.911 304.079C339.397 305.749 335.6 307.041 331.709 306.961ZM371.532 263.781C373.025 268.71 373.456 273.894 373.662 279.039C370.309 278.532 366.922 278.244 363.531 278.178C362.868 269.523 357.105 261.703 349.528 257.461C341.952 253.219 332.807 252.303 324.245 253.755C324.173 252.535 323.95 251.262 323.727 249.989C323.14 246.629 322.553 243.27 324.726 240.885C326.039 239.445 328.039 238.869 329.955 238.512C338.684 236.887 347.991 238.59 355.577 243.201C363.164 247.811 368.959 255.287 371.532 263.781ZM309.984 291.06C309.97 291.22 309.956 291.377 309.949 291.527C309.893 292.723 310.45 293.82 311.002 294.906C311.15 295.197 311.298 295.487 311.433 295.778C312.073 297.155 312.383 298.97 311.313 300.048C308.727 302.658 306.441 305.566 304.515 308.695C304.039 309.469 302.867 309.532 302.084 309.071C301.301 308.609 300.815 307.786 300.363 306.998C297.501 302.01 294.567 296.792 294.21 291.054C294.166 290.34 294.244 289.476 294.877 289.143C295.156 288.997 295.486 288.993 295.801 288.992L308.601 288.953C308.907 288.952 309.229 288.955 309.495 289.106C310.123 289.463 310.051 290.291 309.984 291.06Z" fill="#00160A"/>
</svg>
