<svg width="674" height="578" viewBox="0 0 674 578" fill="none" xmlns="http://www.w3.org/2000/svg">
<path fill-rule="evenodd" clip-rule="evenodd" d="M195.362 389.564C104.592 410.724 52.6586 381.18 39.5616 300.933C19.916 180.563 86.4662 54.1056 177.78 41.9831C269.093 29.8607 307.48 64.4402 371.659 107.864C435.838 151.288 621.853 253.46 642.987 270.8C664.12 288.141 709.338 355.902 618.894 398.822C558.598 427.436 483.588 422.047 393.864 382.655C362.323 368.865 333.6 361.567 307.696 360.762C281.791 359.957 244.347 369.557 195.362 389.564Z" fill="#FF3D68"/>
<path d="M298.831 236.746C306.989 242.071 310.27 248.959 308.672 257.411C301.031 268.865 297.211 278.783 297.211 287.166C297.211 295.548 296.635 306.453 295.486 319.878L231.979 321.22L231.845 321.139C230.147 321.171 228.479 321.198 226.839 321.22C212.705 321.403 200.165 323.275 199.573 323.367C194.946 324.085 186.605 315.499 184.291 312.59C180.571 307.916 178.804 302.384 178.018 296.364C177.277 290.685 178.322 285.405 180.375 280.344C182.774 274.43 186.529 269.312 191.29 264.804C196.51 260.019 202.132 256.112 208.434 253.231C208.679 253.119 213.202 250.893 213.419 250.922C213.564 250.942 220.795 253.258 230.852 257.956C242.266 249.843 254.611 241.258 267.889 232.202C280.359 229.906 290.672 231.421 298.831 236.746Z" fill="white"/>
<path fill-rule="evenodd" clip-rule="evenodd" d="M216.655 374.957C226.641 377.014 232.661 373.096 234.715 363.203C237.796 348.363 219.18 351.015 213.483 343.378C207.785 335.741 220.422 334.21 234.715 338.794C249.02 338.167 253.149 338.986 253.971 335.041C254.793 331.096 247.34 328.61 227.433 329.261C207.525 329.911 210.454 329.938 211.968 346.571C212.978 357.659 214.54 367.121 216.655 374.957Z" fill="white"/>
<path d="M464.827 406.65C457.152 400.302 451.746 396.308 448.849 393.755C441.93 387.657 434.843 381.751 427.863 375.722C426.427 374.482 425.034 373.148 423.853 371.672C422.371 369.819 422.708 368.54 425.048 367.638C426.895 366.926 428.913 366.599 430.883 366.283C436.76 365.344 442.647 364.466 448.538 363.622C451.126 363.251 453.736 363.034 456.332 362.711C456.796 362.653 457.238 362.422 457.69 362.27C457.466 361.905 457.294 361.492 457.009 361.183C454.735 358.728 452.441 356.293 450.152 353.853C449.95 353.638 449.737 353.435 449.529 353.227C449.854 353.148 450.176 353.043 450.505 352.994C456.537 352.104 462.568 351.208 468.603 350.34C472.565 349.77 476.527 349.18 480.502 348.713C484.57 348.235 488.65 347.847 492.732 347.51C496.383 347.208 500.048 347.082 503.698 346.778C506.037 346.583 508.354 346.122 510.692 345.933C513.616 345.697 516.556 345.659 519.483 345.458C523.14 345.208 526.789 344.841 530.446 344.596C533.521 344.391 536.605 344.335 539.679 344.127C542.159 343.96 544.626 343.594 547.107 343.444C549.53 343.298 551.964 343.314 554.393 343.257C560.681 343.11 566.97 342.93 573.259 342.826C577.107 342.763 580.989 342.524 584.794 342.934C586.778 343.148 589.046 344.173 590.461 345.569C594.035 349.098 597.203 353.04 600.525 356.824C602.562 359.144 604.602 361.462 606.606 363.81C610.831 368.758 615.024 373.734 619.252 378.68C620.566 380.216 621.971 381.673 623.289 383.205C623.667 383.644 623.889 384.218 624.183 384.731C623.767 384.391 622.527 383.33 622.939 383.705C663.727 420.812 491.96 428.701 464.827 406.65Z" fill="white"/>
<path d="M0.211632 269.539C0.350679 265.718 0.468889 261.897 0.617238 258.077C0.665167 256.842 0.80477 255.612 0.880973 254.378C1.51374 244.136 2.7307 233.957 5.35199 224.027C7.44378 216.103 10.2059 208.395 13.5629 200.867C17.3923 192.279 22.0479 184.203 27.4122 176.525C30.1453 172.613 33.1304 168.843 36.3065 165.277C40.128 160.987 44.0543 156.739 48.337 152.918C53.2262 148.556 58.4805 144.58 63.7569 140.678C64.9317 139.809 67.0085 139.386 68.4104 139.748C70.8722 140.385 71.2282 142.525 69.3451 144.16C65.0693 147.87 63.0347 152.608 62.7213 158.109C62.5483 161.148 62.8329 164.213 62.6642 167.252C62.1081 177.272 65.0339 186.494 69.3667 195.292C73.5091 203.703 79.5407 210.63 88.1956 214.677C93.1617 216.998 98.4723 218.628 103.702 220.346C108.245 221.838 112.899 222.99 117.491 224.34C121.994 225.664 126.431 226.865 131.203 225.273C133.651 224.457 135.488 226.647 134.551 229.019C131.006 237.992 127.985 247.304 121.758 254.869C118.022 259.407 113.7 263.607 109.077 267.251C102.29 272.6 94.4856 276.414 86.6902 280.171C79.0867 283.835 71.6545 287.854 64.0174 291.445C55.4139 295.49 46.6952 299.298 37.9707 303.081C30.932 306.134 23.8264 309.036 16.7136 311.915C15.0128 312.604 13.191 313.086 11.3785 313.387C9.56231 313.688 5.57246 310.84 4.85969 308.958C3.05089 304.181 1.82135 299.269 1.31358 294.179C1.00457 291.081 0.588644 287.993 0.110372 284.901C2.23517e-08 284.681 -2.98023e-08 284.462 0.110371 284.133C0.294321 279.896 0.371472 275.768 0.422724 271.641C0.424133 271.527 0.14716 271.41 0 271.295C0 270.783 0 270.271 0 269.649C0.0735649 269.539 0.211535 269.542 0.211632 269.539Z" fill="white"/>
<path fill-rule="evenodd" clip-rule="evenodd" d="M294.724 319.743L428.374 316.338H433.857C441.848 322.291 450.617 324.856 460.161 324.034C474.479 322.8 487.121 306.999 490.073 284.968C490.508 283.25 491.563 282.837 493.239 283.729C495.083 287.326 498.356 288.895 503.058 288.436C505.099 288.216 506.235 288.693 507.387 290.909C508.54 293.124 514.632 295.911 518.451 293.675C522.27 291.438 539.876 262.921 539.876 258.122C539.876 253.324 540.864 242.843 541.641 242.167C542.418 241.49 543.88 242.039 546.717 241.14C549.555 240.24 551.983 241.135 561.081 217.254C570.179 193.372 584.098 157.672 585.581 132.673C587.064 107.675 569.406 116.51 561.081 126.942C552.756 137.373 529.55 164.234 508.072 178.82C505.444 180.783 503.298 181.705 501.636 181.588C500.639 175.38 496.557 173.067 489.389 174.649C486.603 175.149 484.323 172.947 482.549 168.042C477.954 142.578 467.478 124.152 451.122 112.764C426.587 95.6824 384.782 85.9208 374.723 121.636C368.017 145.445 372.048 174.373 386.817 208.417L380.668 213.739C356.473 222.109 336.707 232.441 321.371 244.736C298.367 263.179 297.927 281.168 296.706 296.006C295.892 305.898 295.232 313.811 294.724 319.743Z" fill="white"/>
<path d="M245.271 216.914C245.475 214.98 245.568 213.033 245.792 211.101C245.804 210.997 246.786 210.775 247.069 210.969C249.699 212.776 252.301 214.628 254.85 216.548C255.541 217.069 255.595 217.586 255.909 216.225C256.399 214.096 259.427 213.501 261.241 215.014C265.4 218.483 267.499 223.148 269.022 228.22C270.342 232.619 269.819 237.091 269.947 241.536C270.03 244.389 272.702 246.54 275.506 246.655C277.58 246.74 279.761 247.65 281.626 248.679C286.14 251.169 289.042 255.097 290.468 260.045C292.004 265.374 290.575 270.118 287.486 274.545C284.677 278.572 282.119 282.79 278.043 285.742C275.787 287.376 273.189 288.731 271.424 290.794C269.528 293.009 267.352 294.454 264.77 295.45C258.41 297.904 251.461 294.721 248.347 289.419C245.058 282.423 233.317 288.124 228.768 277.803C226.472 274.397 225.578 271.541 226.073 271.255C226.678 270.907 225.842 270.025 224.772 268.902C220.1 263.994 215.95 258.68 213.111 252.457C212.663 251.475 212.201 250.462 212.005 249.414C211.885 248.771 212.064 247.852 212.481 247.408C212.743 247.129 213.788 247.329 214.316 247.618C215.108 248.05 215.735 248.774 216.466 249.33C217.712 250.277 218.404 249.874 218.066 248.397C217.107 244.199 217.989 240.214 219.465 236.363C220.261 234.286 221.557 232.391 222.759 230.499C222.874 230.319 224.03 230.591 224.533 230.916C225.467 231.52 226.275 232.318 227.136 233.034C227.194 231.887 227.212 230.736 227.324 229.594C227.391 228.916 227.558 228.236 227.763 227.584C228.794 224.315 229.347 224.15 232.076 226.199C232.442 226.474 232.88 226.654 233.285 226.877C233.34 226.461 233.413 226.046 233.448 225.628C233.749 222.035 233.03 218.775 230.404 216.108C230.372 216.076 230.943 215.138 231.27 215.113C235.054 214.815 238.838 214.659 242.299 216.68C243.006 217.093 243.712 217.509 244.528 218.034C244.857 217.735 245.225 217.342 245.271 216.914Z" fill="white"/>
<path fill-rule="evenodd" clip-rule="evenodd" d="M301.373 84.7544C290.2 94.0145 285.134 107.421 286.173 124.973C287.732 151.301 318.361 170.059 333.176 162.119C347.992 154.18 364.351 142.614 366.304 117.995C367.134 141.422 369.59 152.823 338.004 169.813C306.419 186.802 273.399 160.44 268.623 149.575C263.847 138.709 252.35 114.723 275.685 86.8953C278.879 83.2149 287.441 82.5013 301.373 84.7544Z" fill="white"/>
<path fill-rule="evenodd" clip-rule="evenodd" d="M567.584 392.803C570.286 392.507 572.776 392.27 575.247 391.903C580.861 391.07 586.463 390.153 592.075 389.309C595.414 388.807 598.804 388.563 602.097 387.852C604.407 387.354 606.5 387.678 608.627 388.378C608.969 388.491 609.231 388.847 609.53 389.09C609.171 389.291 608.829 389.625 608.45 389.673C603.516 390.296 598.569 390.815 593.642 391.488C588.688 392.165 583.758 393.023 578.807 393.731C575.358 394.224 571.888 394.574 568.434 395.035C566.633 395.276 564.852 395.663 563.051 395.903C560.502 396.242 557.937 396.469 555.389 396.812C552.398 397.215 549.421 397.715 546.433 398.129C544.03 398.461 541.614 398.703 539.211 399.031C536.149 399.449 533.095 399.925 530.035 400.354C527.777 400.67 525.515 400.956 523.254 401.245C520.872 401.548 518.48 401.786 516.109 402.155C514.673 402.378 513.353 402.367 512.926 400.716C512.537 399.209 513.307 398.029 514.774 397.704C516.783 397.259 518.845 397.016 520.897 396.822C523.333 396.592 525.781 396.493 528.226 396.362C531.235 396.2 534.249 396.116 537.254 395.899C540.452 395.669 543.64 395.301 546.835 395.031C550.592 394.712 554.357 394.479 558.11 394.117C560.061 393.929 561.991 393.535 563.934 393.251C565.074 393.085 566.219 392.952 567.584 392.803Z" fill="#E7EAEE"/>
<path fill-rule="evenodd" clip-rule="evenodd" d="M508.955 371.99C511.659 371.844 514.146 371.741 516.624 371.54C519.257 371.327 521.879 370.972 524.512 370.768C527.468 370.539 530.435 370.446 533.392 370.226C536.746 369.976 540.093 369.624 543.446 369.367C545.926 369.176 548.415 369.107 550.894 368.909C554.004 368.66 557.104 368.301 560.214 368.052C562.693 367.854 565.183 367.791 567.662 367.593C570.938 367.331 574.204 366.844 577.483 366.734C581.225 366.608 584.982 365.444 588.721 366.734C589.166 366.888 589.571 367.159 589.994 367.375C589.592 367.451 589.192 367.556 588.786 367.599C585.949 367.9 583.107 368.156 580.275 368.489C576.834 368.893 573.406 369.422 569.961 369.774C567.44 370.031 564.893 370.014 562.37 370.254C558.911 370.583 555.469 371.08 552.011 371.428C549.502 371.68 546.978 371.787 544.464 371.995C541.185 372.267 537.907 372.565 534.631 372.871C531.645 373.149 528.659 373.428 525.679 373.751C521.872 374.164 518.076 374.671 514.266 375.048C510.651 375.405 507.021 375.604 503.405 375.953C500.89 376.197 498.395 376.659 495.877 376.856C494.894 376.933 493.799 376.72 492.899 376.32C492.255 376.034 491.849 375.216 491.336 374.636C491.987 374.193 492.606 373.425 493.293 373.36C497.465 372.961 501.654 372.736 505.835 372.418C506.807 372.345 507.769 372.137 508.955 371.99Z" fill="#E7EAEE"/>
<path fill-rule="evenodd" clip-rule="evenodd" d="M279.016 427.325C278.79 427.507 278.672 427.645 278.558 427.642C277.525 427.612 276.493 427.557 275.461 427.509C276.447 426.829 277.347 425.783 278.434 425.534C282.708 424.555 286.558 422.829 290.125 420.283C294.785 416.958 297.662 412.596 298.709 407.023C298.871 406.164 298.629 405.779 297.593 405.785C296.114 405.793 294.632 405.551 293.155 405.383C290.264 405.056 287.963 403.013 287.71 400.576C287.547 399.013 289.893 395.74 291.626 394.896C295.658 392.932 300.137 396.81 301.283 400.168C301.744 401.521 301.963 401.03 302.572 400.474C305.449 397.844 306.392 394.467 306.163 390.759C305.918 386.795 304.172 383.607 300.733 381.377C299.541 380.604 299.085 379.504 300.008 378.099C301.016 376.567 303.811 376.464 304.903 377.818C306.38 379.65 307.675 381.76 308.49 383.954C310.466 389.276 309.96 394.449 306.636 399.211C306.398 399.551 306.202 399.945 305.896 400.211C303.286 402.476 301.88 405.296 300.819 408.617C297.673 418.469 290.452 424.285 280.662 427.197C280.191 427.338 279.64 427.216 279.016 427.325ZM292.331 397.529C290.442 398.647 289.926 401.859 291.715 402.418C293.781 403.063 296.168 402.707 298.416 402.729C298.512 402.73 298.674 402.165 298.704 401.853C298.998 398.833 296.165 396.748 292.331 397.529Z" fill="#FFB61D"/>
<path fill-rule="evenodd" clip-rule="evenodd" d="M542.722 381.622C548.959 381.03 554.972 380.392 560.993 379.861C565.26 379.485 569.543 379.294 573.813 378.943C576.447 378.727 579.072 378.379 581.699 378.067C585.324 377.635 588.95 376.832 592.569 376.873C594.632 376.897 597.032 377.567 598.438 379.657C598.547 379.819 598.669 379.971 598.786 380.128C598.513 380.182 598.221 380.329 597.971 380.276C593.253 379.277 588.612 380.244 583.929 380.676C580.665 380.977 577.347 380.618 574.062 380.766C570.764 380.915 567.479 381.338 564.187 381.619C560.552 381.929 556.91 382.169 553.28 382.528C551.33 382.721 549.404 383.154 547.456 383.386C544.562 383.729 541.653 383.949 538.759 384.297C535.45 384.694 532.137 385.092 528.85 385.639C524.942 386.289 521.07 387.153 517.165 387.823C513.296 388.486 509.421 389.194 505.519 389.537C503.741 389.694 501.86 389.14 500.083 388.683C498.717 388.332 499.027 387.369 499.897 386.738C500.6 386.228 501.461 385.787 502.304 385.655C504.843 385.257 507.407 385.02 509.963 384.732C512.664 384.428 515.363 384.092 518.07 383.853C521.923 383.513 525.787 383.291 529.639 382.939C531.98 382.725 534.304 382.324 536.643 382.078C538.59 381.872 540.548 381.77 542.722 381.622Z" fill="#E7EAEE"/>
<path fill-rule="evenodd" clip-rule="evenodd" d="M501.359 363.269C506.504 362.682 511.425 362.063 516.355 361.518C519.558 361.165 522.778 360.962 525.981 360.61C527.853 360.405 529.704 360.019 531.57 359.752C532.852 359.569 534.145 359.466 535.429 359.302C539.358 358.798 543.278 358.224 547.214 357.787C551.218 357.344 555.24 357.071 559.246 356.65C562.915 356.265 566.565 355.664 570.241 355.403C571.561 355.309 572.956 355.854 574.267 356.263C574.704 356.399 574.988 357.023 575.342 357.424C574.84 357.589 574.346 357.865 573.835 357.902C570.974 358.108 568.106 358.211 565.247 358.436C562.228 358.674 559.214 358.985 556.203 359.313C553.896 359.564 551.599 359.914 549.293 360.18C546.527 360.498 543.748 360.716 540.989 361.08C536.939 361.615 532.903 362.26 528.857 362.823C524.475 363.433 520.077 363.94 515.705 364.61C511.928 365.188 508.182 365.965 504.412 366.596C499.458 367.426 494.49 368.175 489.537 369.007C487.727 369.311 486.628 368.28 486.465 366.843C486.317 365.541 487.463 365.066 488.929 364.969C492.776 364.712 496.604 364.157 500.437 363.694C500.684 363.664 500.905 363.416 501.359 363.269Z" fill="#E7EAEE"/>
<path fill-rule="evenodd" clip-rule="evenodd" d="M558.838 409.42C554.038 410.02 549.457 410.607 544.88 411.226C542.931 411.489 540.993 411.996 539.045 412.02C538.412 412.028 537.154 410.727 537.252 410.253C537.451 409.293 538.275 407.859 539.028 407.728C542.235 407.171 545.511 407.03 548.759 406.715C551.691 406.431 554.618 406.106 557.549 405.822C560.798 405.507 564.048 405.204 567.299 404.922C570.941 404.605 574.583 404.297 578.227 404.025C580.724 403.838 583.229 403.765 585.724 403.555C588.658 403.308 591.581 402.932 594.514 402.678C596.862 402.474 599.222 402.424 601.567 402.201C603.986 401.972 606.394 401.613 608.808 401.322C609.099 401.286 609.419 401.246 609.689 401.33C610.622 401.616 611.538 401.956 612.461 402.275C611.648 402.556 610.853 402.984 610.018 403.093C605.077 403.742 600.123 404.299 595.178 404.925C591.888 405.34 588.61 405.862 585.318 406.256C582.296 406.617 579.257 406.825 576.235 407.187C574.644 407.377 573.085 407.847 571.493 408.022C568.106 408.396 564.706 408.646 561.314 408.981C560.556 409.055 559.811 409.27 558.838 409.42Z" fill="#E7EAEE"/>
<path fill-rule="evenodd" clip-rule="evenodd" d="M191.29 264.804C196.51 260.019 202.132 256.112 208.434 253.231C208.679 253.119 208.929 252.847 209.146 252.877C210.093 253.007 211.029 253.221 211.968 253.404C211.288 253.869 210.655 254.434 209.921 254.782C202.629 258.238 195.838 262.431 190.313 268.438C184.943 274.276 181.094 280.828 180.245 289.007C179.464 296.526 180.418 303.559 184.671 309.901C186.954 313.304 190.036 315.845 193.781 317.531C194.079 317.665 194.359 317.837 194.647 317.992C194.313 318.06 193.98 318.141 193.643 318.194C189.016 318.912 186.605 315.499 184.291 312.59C180.571 307.916 178.804 302.384 178.018 296.364C177.277 290.685 178.322 285.405 180.375 280.344C182.774 274.43 186.529 269.312 191.29 264.804Z" fill="#00160A"/>
<path fill-rule="evenodd" clip-rule="evenodd" d="M480.844 361.95C480.058 360.22 481.197 358.304 483.006 358.321C486.097 358.35 489.186 358.557 492.275 358.713C494.638 358.832 497 358.988 499.363 359.127C499.647 359.143 500.006 359.055 500.203 359.188C500.86 359.631 501.46 360.153 502.081 360.645C501.482 360.94 500.9 361.445 500.28 361.491C498.365 361.633 496.419 361.771 494.516 361.599C491.147 361.293 487.962 362.051 484.851 363.003C483.157 363.522 482.088 362.981 480.844 361.95Z" fill="#E7EAEE"/>
<path fill-rule="evenodd" clip-rule="evenodd" d="M34.5298 219.415C34.0892 222.09 33.6013 224.538 33.2249 227.003C32.9864 228.565 32.9331 230.155 32.7628 231.728C32.485 234.296 31.9967 236.856 31.9221 239.428C31.7416 245.658 31.7983 251.893 31.6654 258.124C31.5372 264.134 32.6953 269.95 34.0962 275.739C34.3683 276.864 34.4507 278.189 35.1177 279.027C36.1414 280.315 35.1909 280.939 34.4722 281.136C33.7857 281.325 32.4461 280.988 32.1708 280.471C31.4165 279.053 30.9055 277.451 30.5962 275.864C29.8128 271.844 28.8631 267.814 28.5875 263.748C28.2146 258.245 28.4731 252.703 28.344 247.18C28.1875 240.486 29.1738 233.913 30.0934 227.314C31.6114 216.421 33.7818 205.682 37.2239 195.228C37.6395 193.966 38.5725 192.747 39.5658 191.833C40.7793 190.716 42.6485 191.737 42.916 193.422C43.2323 195.415 42.324 196.941 41.2286 198.448C37.9311 202.985 36.2825 208.158 35.4115 213.625C35.1157 215.481 34.8236 217.338 34.5298 219.415Z" fill="#E7EAEE"/>
<path fill-rule="evenodd" clip-rule="evenodd" d="M56.7652 266.915C56.6098 268.282 59.0714 269.923 56.327 270.44C55.5849 270.58 53.961 269.097 53.6196 268.091C52.5854 265.046 51.5842 261.901 51.3063 258.738C50.9223 254.367 51.21 249.944 51.21 245.544C51.21 245.033 51.21 244.523 51.21 244.012C51.21 237.084 51.2416 230.156 51.1888 223.229C51.1748 221.392 50.7452 219.553 50.7988 217.723C50.8383 216.377 51.1176 214.933 51.7371 213.74C52.1799 212.888 53.3237 211.944 54.2306 211.87C54.8538 211.819 56.1041 213.132 56.2056 213.934C56.4716 216.033 56.3645 218.193 56.2075 220.315C56.0856 221.964 55.5069 223.584 55.4074 225.231C55.159 229.347 55.0505 233.471 54.9177 237.593C54.7458 242.929 54.2595 248.282 54.5578 253.596C54.8043 257.987 55.9936 262.331 56.7652 266.915Z" fill="#E7EAEE"/>
<path fill-rule="evenodd" clip-rule="evenodd" d="M77.7692 258.025C73.5991 251.578 70.4909 244.769 68.5459 237.459C68.1537 235.985 68.4946 234.117 69.0474 232.648C69.3129 231.943 71.1574 231.152 71.7546 231.466C72.5646 231.893 73.2094 233.304 73.3213 234.36C73.7529 238.437 74.0307 242.473 75.3754 246.441C77.0095 251.262 79.8121 255.285 82.5266 259.418C83.0915 260.278 84.7816 261.128 83.5896 262.22C82.402 263.307 81.195 262.047 80.2994 261.048C79.4575 260.11 78.6813 259.109 77.7692 258.025Z" fill="#E7EAEE"/>
<path fill-rule="evenodd" clip-rule="evenodd" d="M96.9081 244.211C94.4 241.77 91.8888 239.546 89.6433 237.066C88.4754 235.776 88.6944 234.137 90.0981 232.906C91.498 231.679 92.3738 232.824 93.1802 233.758C96.2314 237.292 99.2397 240.866 102.251 244.437C102.421 244.639 102.602 245.149 102.559 245.179C102.066 245.52 101.43 246.148 101.026 246.025C99.6474 245.603 98.3461 244.91 96.9081 244.211Z" fill="#E7EAEE"/>
<path fill-rule="evenodd" clip-rule="evenodd" d="M229.03 540.874C234.701 542.293 240.175 543.636 245.578 545.203C246.569 545.49 247.273 546.688 248.11 547.465C246.936 547.539 245.688 547.9 244.601 547.64C238.989 546.296 233.368 544.948 227.847 543.301C222.43 541.685 217.129 539.712 211.781 537.886C211.525 537.799 211.313 537.602 211.069 537.479C209.759 536.825 208.364 536.16 209.396 534.403C210.347 532.782 211.827 532.821 213.293 533.65C215.442 534.864 217.42 536.397 219.658 537.415C222.613 538.76 225.75 539.738 229.03 540.874Z" fill="#E7EAEE"/>
<path fill-rule="evenodd" clip-rule="evenodd" d="M236.437 524.174C238.742 525.504 240.953 526.688 243.113 527.962C243.572 528.233 243.844 528.83 244.203 529.277C243.438 529.582 242.506 530.338 241.934 530.12C237.35 528.371 232.82 526.471 228.301 524.55C225.819 523.494 223.365 522.361 220.946 521.164C219.592 520.495 218.049 519.793 219.221 517.72C219.953 516.426 221.688 516.105 223.302 516.987C227.638 519.354 231.984 521.703 236.437 524.174Z" fill="#E7EAEE"/>
<path fill-rule="evenodd" clip-rule="evenodd" d="M223.693 499.601C223.603 496.418 225.643 495.073 228.292 496.644C232.796 499.316 237.185 502.187 241.586 505.031C242.897 505.879 244.137 506.861 245.305 507.9C245.742 508.289 245.882 509.016 246.157 509.588C245.394 509.574 244.526 509.795 243.886 509.506C240.119 507.804 236.391 506.011 232.676 504.195C229.7 502.741 226.76 501.21 223.693 499.601Z" fill="#E7EAEE"/>
<path fill-rule="evenodd" clip-rule="evenodd" d="M238.962 477.436C242.833 477.486 244.884 480.061 247.094 482.339C247.729 482.993 248.243 483.811 248.624 484.638C249.002 485.457 249.513 486.577 248.463 487.132C247.991 487.382 246.944 486.887 246.312 486.493C244.498 485.361 242.787 484.069 240.981 482.925C240.332 482.513 239.424 482.475 238.813 482.031C237.92 481.383 237.189 480.521 236.388 479.751C237.175 478.979 237.961 478.207 238.962 477.436Z" fill="#E7EAEE"/>
<path fill-rule="evenodd" clip-rule="evenodd" d="M251.337 414.574C254.529 421.199 257.089 428.033 257.943 435.402C258.401 439.354 258.924 443.302 259.237 447.267C259.521 450.866 259.74 454.489 259.66 458.094C259.564 462.407 259.099 466.711 258.833 471.022C258.649 474.019 258.62 477.028 258.365 480.019C258.008 484.225 257.435 488.414 257.089 492.621C256.826 495.807 256.651 499.009 256.658 502.204C256.665 505.84 256.927 509.475 257.064 513.11C257.219 517.259 256.869 521.5 257.621 525.537C258.745 531.577 260.288 537.596 262.289 543.404C265.233 551.944 270.326 559.366 275.944 566.353C279.414 570.67 283.418 574.502 289.058 575.989C289.13 576.009 289.194 576.688 289.049 576.815C286.968 578.634 284.38 577.894 282.186 577.601C277.281 576.946 272.428 575.787 267.609 574.609C255.365 571.615 243.136 568.549 230.929 565.405C224.981 563.874 219.099 562.09 213.176 560.462C212.304 560.222 211.181 559.825 210.497 560.16C207.043 561.853 204.375 559.993 201.837 558.272C196.273 554.501 193.118 549.024 191.482 542.589C189.224 533.711 191.039 525.239 194.315 517.027C196.475 511.613 199.051 506.355 201.638 501.124C204.263 495.816 207.559 490.909 211.554 486.522C212.904 485.04 214.544 483.826 216.011 482.446C218.023 480.552 218.128 477.955 218.294 475.48C218.486 472.613 218.051 469.677 218.463 466.855C219.861 457.264 224.093 448.654 228.543 440.224C230.762 436.021 233.58 432.027 236.709 428.449C239.031 425.795 242.084 423.646 245.679 422.627C246.782 422.315 247.093 422.062 246.271 420.687C245.081 418.696 243.408 416.383 245.512 413.719C248.029 411.199 249.847 411.482 251.337 414.574ZM254.683 434.573C254.597 434.659 254.453 434.733 254.434 434.832C254.271 435.674 254.252 436.565 253.964 437.358C252.692 440.866 251.708 444.544 249.947 447.795C246.415 454.315 241.907 460.187 236.582 465.385C231.939 469.917 227.229 474.381 222.625 478.952C220 481.558 217.299 484.14 215.038 487.048C211.411 491.714 207.601 496.361 204.825 501.531C201.6 507.536 199.182 514.015 196.848 520.446C195.382 524.485 194.387 528.767 193.773 533.026C193.113 537.602 193.995 542.167 196.065 546.338C197.591 549.413 199.739 551.962 203.258 553.07C207.466 554.396 211.599 555.962 215.797 557.321C225.114 560.336 234.399 563.468 243.798 566.203C250.835 568.251 258.013 569.833 265.164 571.466C269.214 572.391 273.333 573.017 277.43 573.721C277.754 573.777 278.154 573.388 278.519 573.206C278.335 572.946 278.176 572.665 277.965 572.431C276.468 570.772 274.801 569.24 273.488 567.448C269.873 562.515 265.912 557.745 262.987 552.417C257.796 542.96 254.316 532.821 253.536 521.915C253.296 518.558 252.958 515.207 252.664 511.413C252.664 507.202 252.494 502.983 252.716 498.784C252.906 495.184 253.554 491.609 253.982 488.021C254.291 485.429 254.394 482.797 254.903 480.246C255.875 475.368 255.417 473.4 251.269 470.618C249.341 469.325 246.918 468.078 246.825 465.37C246.785 464.224 247.703 462.864 248.569 461.978C248.831 461.71 250.681 462.456 251.283 463.175C252.649 464.803 253.681 466.709 254.875 468.484C255.068 468.77 255.399 468.963 255.666 469.198C255.839 468.903 256.137 468.619 256.165 468.311C256.351 466.246 256.606 464.176 256.594 462.109C256.578 459.452 256.313 456.799 256.19 454.142C256.025 450.582 255.908 447.019 255.74 443.458C255.621 440.923 255.478 438.389 255.281 435.859C255.246 435.418 254.89 435.001 254.683 434.573ZM245.622 425.504C240.905 427.13 237.659 430.595 235.107 434.602C230.012 442.598 225.956 451.149 223.307 460.264C222.073 464.51 221.547 468.974 223.2 473.336C223.297 473.592 223.976 473.912 224.024 473.86C230.341 467.185 236.686 460.534 242.892 453.756C249.224 446.839 251.615 438.586 250.432 429.338C249.896 425.142 249.599 425.036 245.622 425.504ZM584.794 342.934C586.778 343.148 589.046 344.173 590.461 345.569C594.035 349.098 597.203 353.04 600.525 356.824C602.562 359.144 604.602 361.462 606.606 363.81C610.831 368.758 615.024 373.734 619.252 378.68C620.566 380.216 621.971 381.673 623.289 383.205C623.667 383.644 623.889 384.218 624.183 384.731C623.767 384.391 623.317 384.084 622.939 383.705C612.949 373.702 602.998 363.66 592.964 353.702C589.678 350.441 585.945 347.682 581.437 346.396C576.688 345.042 571.847 344.581 566.87 345.397C564.363 345.808 561.731 345.384 559.161 345.487C553.441 345.715 547.727 346.092 542.007 346.302C538.656 346.425 535.292 346.23 531.943 346.385C528.36 346.551 524.787 346.956 521.21 347.263C517.92 347.546 514.629 347.811 511.343 348.132C508.74 348.386 506.147 348.744 503.544 349.001C500.235 349.328 496.913 349.524 493.613 349.916C490.816 350.248 488.045 350.798 485.257 351.216C482.157 351.681 479.048 352.086 475.949 352.553C471.176 353.272 466.407 354.014 461.645 354.796C461.468 354.825 461.176 355.514 461.276 355.659C462.158 356.93 463.066 358.19 464.061 359.373C469.035 365.278 474.074 371.127 479.019 377.056C484.625 383.778 490.053 390.652 495.756 397.29C499.758 401.948 503.702 406.754 509.351 409.625C509.532 409.717 509.693 409.848 509.863 409.96C509.656 409.995 509.428 410.106 509.247 410.054C505.797 409.041 502.197 408.626 499.678 405.363C495.027 399.34 490.018 393.595 485.234 387.673C479.315 380.346 473.687 372.768 466.654 366.424C466.081 365.907 465.483 365.371 464.803 365.032C463.296 364.281 461.912 364.029 460.737 365.81C458.398 369.358 455.845 372.763 453.509 376.312C451.951 378.68 452.457 379.841 455.275 381.758C462.696 386.806 470.757 390.401 479.38 392.851C482.971 393.871 486.532 395.164 489.084 398.187C489.265 398.401 489.459 398.605 489.646 398.813C489.343 398.784 489.019 398.815 488.74 398.717C477.127 394.61 465.499 390.541 453.925 386.325C452.023 385.633 450.272 384.406 448.611 383.205C447.551 382.438 447.601 381.289 448.294 380.055C450.672 375.819 452.947 371.524 455.239 367.239C455.394 366.948 455.462 366.276 455.408 366.257C454.824 366.057 454.179 365.766 453.604 365.854C451.202 366.219 448.78 366.564 446.434 367.177C441.136 368.561 435.875 370.088 430.612 371.599C430.304 371.687 430.103 372.148 429.852 372.436C431.183 373.475 432.515 374.515 433.956 375.665C439.534 380.52 445.006 385.258 450.468 390.009C453.393 392.554 456.299 395.12 459.214 397.676C459.334 397.781 459.458 397.881 459.581 397.983C459.305 398.028 459.006 398.168 458.758 398.105C455.217 397.21 451.746 396.308 448.849 393.755C441.93 387.657 434.843 381.751 427.863 375.722C426.427 374.482 425.034 373.148 423.853 371.672C422.371 369.819 422.708 368.54 425.048 367.638C426.895 366.926 428.913 366.599 430.883 366.283C436.76 365.344 442.647 364.466 448.538 363.622C451.126 363.251 453.736 363.034 456.332 362.711C456.796 362.653 457.238 362.422 457.69 362.27C457.466 361.905 457.294 361.492 457.009 361.183C454.735 358.728 452.441 356.293 450.152 353.853C449.95 353.638 449.737 353.435 449.529 353.227C449.854 353.148 450.176 353.043 450.505 352.994C456.537 352.104 462.568 351.208 468.603 350.34C472.565 349.77 476.527 349.18 480.502 348.713C484.57 348.235 488.65 347.847 492.732 347.51C496.383 347.208 500.048 347.082 503.698 346.778C506.037 346.583 508.354 346.122 510.692 345.933C513.616 345.697 516.556 345.659 519.483 345.458C523.14 345.208 526.789 344.841 530.446 344.596C533.521 344.391 536.605 344.335 539.679 344.127C542.159 343.96 544.626 343.594 547.107 343.444C549.53 343.298 551.964 343.314 554.393 343.257C560.681 343.11 566.97 342.93 573.259 342.826C577.107 342.763 580.989 342.524 584.794 342.934ZM218.99 328.089C220.668 328.264 222.383 328.036 224.073 328.137C228.194 328.381 232.307 328.759 236.428 328.99C240.264 329.205 244.117 329.161 247.942 329.486C251.859 329.818 254.204 331.453 253.953 336.147C253.726 340.38 253.649 344.621 253.498 348.859C253.358 352.802 253.205 356.745 253.068 360.688C253.048 361.271 253.069 361.858 253.106 362.44C253.139 362.945 253.222 363.447 253.283 363.95C253.138 363.951 252.883 363.994 252.864 363.945C252.657 363.401 252.389 362.853 252.323 362.285C252.094 360.296 251.945 358.297 251.753 356.303C251.468 353.328 251.18 350.353 250.88 347.38C250.728 345.876 250.555 344.374 250.379 342.873C250.269 341.94 250.162 341.005 249.997 340.082C249.927 339.688 249.71 339.322 249.559 338.943C249.251 339.118 248.881 339.232 248.644 339.478C245.753 342.482 243.777 345.985 243.019 350.154C242.935 350.611 242.66 351.031 242.473 351.469C242.319 351.082 242.193 350.681 242.007 350.31C238.631 343.553 233.312 339.064 226.048 337.529C222.728 336.828 219.144 337.425 215.681 337.403C213.937 337.392 213.648 338.394 213.8 339.883C214.13 343.123 214.378 346.371 214.688 349.613C215.109 354.025 215.562 358.434 215.991 362.845C216.292 365.94 216.537 369.042 216.889 372.131C216.988 373 217.383 373.833 217.631 374.685C217.747 375.084 217.836 375.492 217.937 375.895C217.494 375.587 216.774 375.363 216.655 374.957C216.057 372.912 215.619 370.82 215.12 368.744C214.541 366.335 213.957 363.927 213.376 361.297C212.794 357.194 211.994 353.33 211.684 349.426C211.245 343.908 210.402 338.329 211.63 332.835C212.326 329.725 215.875 327.765 218.99 328.089ZM207.163 338.93C208.07 339.251 208.755 340.219 209.536 340.904C208.997 341.531 208.548 342.285 207.899 342.759C206.478 343.796 204.785 344.501 203.51 345.682C200.481 348.487 201.914 354.062 205.057 355.535C206.508 356.214 207.956 356.905 209.356 357.682C209.863 357.962 210.227 358.506 210.657 358.93C210.134 358.943 209.612 358.957 209.089 358.971C205.734 359.058 203.217 357.507 201.337 354.809C198.504 350.744 200.008 346.769 203.343 343.588C203.657 343.289 203.942 342.957 204.263 342.665C204.677 342.29 205.114 341.941 205.54 341.58C204.71 341.474 203.795 341.086 203.066 341.312C200.343 342.158 198.798 344.432 197.971 346.922C195.132 355.47 201.843 362.394 209.457 361.503C210.261 361.409 211.13 361.881 211.968 362.091C211.766 362.217 211.58 362.392 211.361 362.464C204.986 364.542 199.555 362.186 196.476 356.028C196.263 355.603 195.973 355.218 195.718 354.596C194.245 347.045 197.391 341.413 204.296 339.162C205.2 338.867 206.329 338.636 207.163 338.93ZM214.925 330.36C213.574 330.67 213.099 332.129 213.814 333.425C214.793 335.198 216.302 335.265 218.122 335.085C220.992 334.801 223.917 334.579 226.778 334.823C230.406 335.133 233.976 336.124 237.603 336.466C240.624 336.752 243.692 336.525 246.958 336.304C248.233 336.23 249.509 336.135 250.785 336.088C252.32 336.032 253.197 334.803 252.37 333.489C251.863 332.682 250.817 331.842 249.926 331.731C246.197 331.265 242.439 330.992 238.684 330.8C236.03 330.665 233.358 330.881 230.703 330.749C226.683 330.55 222.674 330.13 218.654 329.922C217.419 329.859 216.141 330.08 214.925 330.36ZM413.871 314.393C418.311 314.481 422.74 315.199 427.171 315.659C427.502 315.693 427.859 315.797 428.134 315.977C428.713 316.355 429.246 316.805 429.797 317.225C429.093 317.295 428.39 317.382 427.684 317.431C423.264 317.734 418.845 318.055 414.421 318.299C413.686 318.339 412.924 317.867 412.189 317.906C407.619 318.151 403.055 318.513 398.484 318.742C397.456 318.794 396.401 318.302 395.373 318.355C390.949 318.583 386.532 318.95 382.108 319.19C381.3 319.234 380.464 318.756 379.656 318.799C375.086 319.04 370.522 319.401 365.952 319.635C364.996 319.684 364.014 319.197 363.06 319.247C358.636 319.478 354.219 319.845 349.795 320.081C348.913 320.128 348.005 319.646 347.123 319.691C342.553 319.929 337.989 320.287 333.419 320.528C332.61 320.571 331.775 320.094 330.966 320.137C326.396 320.378 321.832 320.73 317.262 320.975C316.527 321.014 315.765 320.542 315.029 320.582C310.46 320.827 305.896 321.189 301.325 321.418C300.297 321.47 299.242 320.978 298.214 321.031C293.79 321.259 289.372 321.626 284.949 321.866C284.141 321.91 283.305 321.432 282.496 321.475C277.926 321.716 273.362 322.074 268.792 322.312C267.91 322.357 267.002 321.875 266.12 321.922C261.623 322.158 257.133 322.521 252.636 322.757C251.754 322.804 250.845 322.322 249.964 322.367C245.393 322.605 240.829 322.966 236.259 323.203C235.377 323.249 234.469 322.767 233.587 322.814C229.163 323.049 224.746 323.41 220.322 323.65C219.514 323.694 218.679 323.216 217.87 323.259C213.3 323.5 208.736 323.849 204.166 324.098C203.504 324.134 202.814 323.664 202.153 323.704C198.384 323.935 194.623 324.288 190.854 324.524C188.288 324.684 185.707 324.615 183.148 324.837C179.493 325.154 175.829 325.503 172.212 326.103C169.382 326.573 166.64 327.594 163.809 328.042C163.011 328.168 161.835 327.304 161.236 326.56C160.982 326.245 161.553 324.797 162.121 324.33C164.451 322.413 167.254 322.088 170.375 322.339C172.318 322.191 174.041 322.051 175.763 321.891C178.89 321.601 182.012 321.207 185.145 321.024C189.28 320.783 193.425 320.566 197.564 320.587C204.514 320.622 211.462 320.95 218.412 320.969C223.577 320.984 228.743 320.713 233.909 320.553C238.269 320.417 242.629 320.255 246.989 320.11C251.568 319.958 256.148 319.815 260.728 319.663C265.088 319.518 269.45 319.413 273.807 319.205C278.987 318.959 284.162 318.587 289.344 318.354C290.446 318.305 291.571 318.786 292.676 318.745C299.248 318.502 305.817 318.169 312.387 317.887C313.583 317.836 314.786 317.948 315.978 317.867C319.888 317.603 323.792 317.246 327.704 317.017C328.584 316.965 329.495 317.455 330.376 317.404C334.36 317.174 338.338 316.809 342.322 316.569C343.056 316.525 343.82 317.005 344.554 316.96C348.465 316.721 352.369 316.354 356.281 316.125C357.161 316.073 358.072 316.563 358.953 316.512C362.937 316.282 366.914 315.909 370.899 315.679C371.779 315.628 372.691 316.118 373.571 316.066C377.409 315.838 381.239 315.458 385.078 315.234C386.031 315.179 387.016 315.675 387.969 315.619C391.808 315.395 395.638 315.027 399.476 314.784C400.136 314.743 400.827 315.217 401.488 315.177C405.619 314.932 409.751 314.311 413.871 314.393ZM413.797 95.8186C423.476 96.714 432.595 99.8155 440.99 104.607C445.924 107.424 450.512 110.906 455.005 114.407C461.975 119.838 467.45 126.643 472.177 134.063C475.703 139.597 478.786 145.376 480.616 151.669C482.28 157.389 483.768 163.205 484.698 169.079C485.369 173.321 484.971 177.728 485.096 182.06C485.224 186.487 484.76 190.854 484.288 195.258C483.137 206.009 481.12 216.54 478.1 226.929C476.789 231.436 477.735 236.101 478.594 240.665C479.347 244.663 480.734 248.399 482.863 251.874C483.119 252.293 483.099 252.88 483.206 253.389C482.661 253.354 482.087 253.417 481.575 253.267C477.884 252.189 476.687 249.179 475.807 245.884C475.175 243.519 474.605 241.106 473.641 238.871C472.538 236.314 472.11 236.557 469.689 237.762C464.706 240.243 459.641 242.599 454.47 244.656C447.464 247.443 440.096 248.887 432.644 250.054C428.598 250.688 424.513 251.921 421.466 254.874C420.05 256.246 418.952 258.195 418.349 260.085C417.593 262.452 417.421 264.946 418.827 267.395C419.661 268.847 420.538 269.093 421.925 268.711C428.656 266.86 435.341 264.804 442.136 263.225C447.356 262.013 452.736 261.505 458.008 260.493C463.479 259.444 468.989 259.187 474.531 259.211C474.948 259.213 475.364 259.323 475.781 259.382C475.403 259.469 475.028 259.564 474.648 259.642C469.497 260.696 464.341 261.73 459.194 262.805C454.529 263.779 449.877 264.814 445.213 265.791C440 266.883 434.769 267.891 429.568 269.036C427.03 269.595 424.492 270.24 422.045 271.103C418.631 272.307 417.559 274.425 417.371 278.296C417.16 282.653 417.912 286.731 418.96 290.775C420.842 298.034 424.067 304.652 429.283 310.25C433.667 314.955 438.609 318.766 444.894 320.389C448.282 321.265 451.825 321.816 455.32 321.949C459.678 322.114 463.914 321.298 468.047 319.561C473.225 317.385 477.226 313.963 480.194 309.386C483.454 304.357 485.599 298.797 486.372 292.84C487.014 287.896 487.683 282.903 487.645 277.937C487.589 270.776 486.106 263.788 483.336 257.121C483.164 256.706 482.492 256.122 483.812 256.084C487.305 255.983 490.772 259.166 490.817 262.795C490.859 266.116 490.971 269.444 490.795 272.756C490.476 278.756 496.886 286.601 502.169 287.954C503.324 288.25 503.428 287.841 503.146 287.244C499.925 280.431 501.902 273.77 503.814 267.187C507.508 254.477 512.57 242.263 517.64 230.049C522.597 218.106 527.357 206.08 532.17 194.077C536.253 183.896 540.271 173.689 544.35 163.507C548.279 153.703 552.249 143.915 556.206 134.122C556.333 133.808 556.541 133.527 556.665 133.212C556.9 132.616 557.102 132.007 557.317 131.404C556.702 131.819 555.941 132.118 555.494 132.669C550.207 139.19 545.285 146.037 539.627 152.219C533.581 158.825 527.015 164.991 520.366 171.009C515.615 175.308 510.356 179.049 505.313 183.026C504.841 183.398 504.296 183.678 503.785 184.001C503.833 183.406 503.942 182.809 503.922 182.217C503.767 177.671 507.989 177.263 510.528 175.278C514.351 172.289 518.325 169.48 522.021 166.344C528.907 160.501 534.388 153.369 539.971 146.344C541.481 144.445 543.097 142.63 544.775 140.666C549.67 135.352 554.276 129.97 559.293 124.998C563.692 120.639 568.581 116.827 574.758 115.033C577.513 114.233 582.518 116.069 584.371 118.972C586.304 122.002 587.073 125.323 587.064 128.935C587.043 136.432 585.516 143.695 583.932 150.955C582.203 158.877 580.526 166.813 578.6 174.688C577.47 179.308 576.142 183.91 574.478 188.363C570.52 198.955 566.502 209.533 562.126 219.958C559.636 225.89 556.557 231.599 553.426 237.234C551.69 240.358 549.126 242.739 545 242.551C543.31 242.474 542.223 244.441 541.99 246.841C541.652 250.33 541.365 253.851 540.644 257.273C539.186 264.201 536.079 270.5 532.354 276.468C529.539 280.977 526.411 285.291 523.506 289.746C521.494 292.832 518.829 295.321 515.179 295.514C512.892 295.635 510.514 294.186 508.194 293.391C507.817 293.261 507.484 292.91 507.208 292.594C506.071 291.293 505.197 289.371 503.778 288.82C502.451 288.305 500.522 289.603 498.925 289.442C496.195 289.168 493.913 287.753 492.244 285.473C491.918 285.028 491.548 283.994 491.194 285.694C490.232 290.307 489.014 294.874 487.715 299.408C485.348 307.669 480.965 314.773 474.266 320.181C470.114 323.533 465.33 325.754 459.725 326.061C454.041 326.373 448.945 324.833 443.859 322.573C436.66 319.374 430.334 315.014 424.423 309.84C415.944 302.418 409.515 293.525 405.102 283.319C402.634 277.609 401.186 271.443 399.514 265.417C397.829 259.345 395.71 253.521 392.226 248.197C389.069 243.372 386.766 238.097 385.893 232.385C385.602 230.481 386.25 228.363 386.769 226.423C387.802 222.562 388.372 218.664 387.499 214.754C387.065 212.806 385.872 211.038 385.182 209.132C382.411 201.484 379.497 193.878 377.043 186.129C375.35 180.786 374.178 175.262 373.052 169.762C372.332 166.241 372.107 162.618 371.68 159.038C371.368 156.426 370.986 153.818 370.818 151.196C370.576 147.429 370.627 143.641 370.32 139.881C369.926 135.032 370.645 130.229 371.838 125.671C373.006 121.213 375.285 116.986 377.47 112.864C380.001 108.089 383.467 103.989 388.155 101.086C392.342 98.4933 396.811 96.5673 401.778 96.2029C405.777 95.9096 409.835 95.4521 413.797 95.8186ZM381.933 212.845C381.655 213.303 381.488 213.963 381.081 214.187C378.701 215.503 376.319 216.84 373.836 217.938C369.623 219.802 365.334 221.493 360.856 223.257C353.859 226.373 346.942 229.222 340.343 232.68C333.77 236.124 327.658 240.351 321.953 245.188C313.602 252.268 306.863 260.577 302.51 270.607C300.731 274.706 299.512 279.196 298.919 283.627C298.133 289.488 298.229 295.466 297.911 301.393C297.645 306.367 297.351 311.339 297.026 316.31C296.904 318.185 295.445 316.794 294.68 317.134C294.619 317.161 293.983 316.406 294.022 316.06C294.39 312.754 295.053 309.468 295.224 306.155C295.44 301.979 295.243 297.783 295.283 293.596C295.361 285.572 296.891 277.868 300.229 270.525C303.337 263.688 307.53 257.631 312.506 252.026C320.016 243.566 329.008 237.092 338.811 231.637C348.084 226.478 357.696 222.071 367.646 218.379C371.963 216.778 376.166 214.869 380.432 213.128C380.894 212.939 381.431 212.935 381.933 212.845ZM499.649 309.953C503.461 310.49 507.256 311.155 511.064 311.726C513.387 312.075 515.714 312.51 518.051 312.613C521.476 312.764 524.913 312.595 528.343 312.671C530.857 312.727 533.368 312.941 535.878 313.116C537.656 313.24 539.43 313.52 541.208 313.549C545.323 313.614 549.44 313.614 553.556 313.561C563.197 313.436 572.838 313.165 582.479 313.179C584.943 313.183 587.405 314.03 589.869 314.484C590.012 314.51 590.22 314.422 590.3 314.498C590.864 315.034 591.402 315.6 591.948 316.157C591.235 316.212 590.522 316.313 589.809 316.315C584.933 316.329 580.056 316.365 575.181 316.301C573.255 316.277 571.335 315.931 569.409 315.879C562.342 315.687 555.273 315.544 548.204 315.412C545.68 315.365 543.156 315.405 540.411 315.405C537.25 315.405 534.309 315.46 531.371 315.392C526.874 315.288 522.379 315.025 517.882 314.965C512.198 314.888 506.51 315.054 500.829 314.898C498.17 314.825 495.512 314.309 492.874 313.864C491.399 313.616 491.055 312.249 491.545 311.138C491.882 310.372 493.012 309.567 493.823 309.525C495.755 309.426 497.719 309.682 499.649 309.953ZM386.817 217.902C386.661 217.989 386.457 218.039 386.355 218.168C383.145 222.223 379.575 226.054 376.835 230.405C373.153 236.251 370.113 242.511 368.294 249.241C367.311 252.879 366.6 256.591 365.745 260.264C365.185 262.673 363.914 264.663 361.833 265.998C359.068 267.77 356.139 269.294 353.415 271.123C346.633 275.679 342.338 282.128 339.834 289.779C338.433 294.06 337.55 298.442 338.361 303.028C338.854 305.815 339.059 308.653 339.367 311.471C339.416 311.92 339.323 312.384 339.296 312.841C338.7 312.787 337.82 312.958 337.565 312.636C336.866 311.753 336.11 310.711 335.95 309.646C335.475 306.468 335.286 303.248 334.955 300.047C334.886 299.38 334.686 298.726 334.546 298.066C333.953 298.725 333.274 299.326 332.78 300.052C329.488 304.903 326.247 309.789 322.947 314.635C322.706 314.99 322.141 315.125 321.726 315.361C321.619 314.621 321.183 313.709 321.464 313.17C322.508 311.172 323.651 309.192 325.009 307.395C328.187 303.192 331.79 299.282 334.678 294.897C336.582 292.006 337.612 288.523 338.904 285.254C340.225 281.908 342.312 279.169 345.009 276.839C348.413 273.9 351.8 270.942 355.305 267.883C357.686 265.359 360.234 263.144 362.161 260.482C364.703 256.97 365.607 252.69 366.635 248.522C368.811 239.706 372.685 231.714 378.403 224.635C379.828 222.872 381.178 221.021 382.802 219.459C383.685 218.61 385.066 218.273 386.239 217.74C386.379 217.677 386.622 217.843 386.817 217.902ZM68.4104 139.748C70.8722 140.385 71.2282 142.525 69.3451 144.16C65.0693 147.87 63.0347 152.608 62.7213 158.109C62.5483 161.148 62.8329 164.213 62.6642 167.252C62.1081 177.272 65.0339 186.494 69.3667 195.292C73.5091 203.703 79.5407 210.63 88.1956 214.677C93.1617 216.998 98.4723 218.628 103.702 220.346C108.245 221.838 112.899 222.99 117.491 224.34C121.994 225.664 126.431 226.865 131.203 225.273C133.651 224.457 135.488 226.647 134.551 229.019C131.006 237.992 127.985 247.304 121.758 254.869C118.022 259.407 113.7 263.607 109.077 267.251C102.29 272.6 94.4856 276.414 86.6902 280.171C79.0867 283.835 71.6545 287.854 64.0174 291.445C55.4139 295.49 46.6952 299.298 37.9707 303.081C30.932 306.134 23.8264 309.036 16.7136 311.915C15.0128 312.604 13.191 313.086 11.3785 313.387C9.56231 313.688 5.57246 310.84 4.85969 308.958C3.05089 304.181 1.82135 299.269 1.31358 294.179C1.00457 291.081 0.588644 287.993 0.110372 284.901C2.23517e-08 284.681 -2.98023e-08 284.462 0.110371 284.133C0.294321 279.896 0.371472 275.768 0.422724 271.641C0.424133 271.527 0.14716 271.41 0 271.295V269.649C0.0735649 269.539 0.211535 269.542 0.211632 269.539C0.350679 265.718 0.468889 261.897 0.617238 258.077C0.665167 256.842 0.80477 255.612 0.880973 254.378C1.51374 244.136 2.7307 233.957 5.35199 224.027C7.44378 216.103 10.2059 208.395 13.5629 200.867C17.3923 192.279 22.0479 184.203 27.4122 176.525C30.1453 172.613 33.1304 168.843 36.3065 165.277C40.128 160.987 44.0543 156.739 48.337 152.918C53.2262 148.556 58.4805 144.58 63.7569 140.678C64.9317 139.809 67.0085 139.386 68.4104 139.748ZM61.9944 145.769C61.7465 145.88 61.4662 145.949 61.2555 146.109C54.6214 151.137 48.0274 156.217 42.534 162.526C39.1213 166.446 35.6328 170.311 32.4109 174.382C24.5803 184.277 18.5205 195.182 13.9067 207.215C13.75 207.663 13.5683 208.105 13.4405 208.561C11.458 215.644 9.36018 222.699 7.56111 229.828C6.763 232.99 6.53387 236.3 6.11515 239.551C5.65436 243.129 5.14116 246.708 4.89719 250.303C4.6962 253.265 4.96698 256.257 4.82598 259.226C4.65084 262.913 4.1409 266.587 4.01732 270.275C3.93382 272.767 4.33594 275.27 4.39726 277.772C4.47134 280.793 4.35838 283.82 4.43243 286.842C4.49316 289.32 4.55261 291.816 4.89628 294.265C5.31711 297.264 6.06682 300.216 6.6143 303.199C7.40483 307.507 9.17448 309.174 13.3921 309.479C16.348 309.693 18.5946 307.946 19.0084 305.177C19.0587 304.841 19.5886 304.255 19.6575 304.287C23.384 306.036 26.6186 304.274 29.8844 302.889C36.8239 299.944 43.7945 297.066 50.6644 293.968C60.8862 289.358 71.0656 284.652 81.195 279.845C85.9341 277.596 90.5882 275.145 95.1503 272.557C104.054 267.508 112.192 261.52 118.784 253.558C123.893 247.386 127.05 240.371 128.881 232.694C129.228 231.236 128.716 229.97 126.973 229.596C122.248 228.581 117.534 227.514 112.802 226.534C103.183 224.543 93.8859 221.769 85.2418 216.914C74.1426 210.679 67.0326 201.263 62.7627 189.632C60.7372 184.114 59.1102 178.396 59.1523 172.387C59.1838 167.876 58.7866 163.325 59.2674 158.864C59.7117 154.742 61.0741 150.718 62.0156 146.647C62.0796 146.37 62.0047 146.062 61.9944 145.769ZM247.069 210.969C249.699 212.776 252.301 214.628 254.85 216.548C255.541 217.069 255.595 217.586 255.909 216.225C256.399 214.096 259.427 213.501 261.241 215.014C265.4 218.483 267.499 223.148 269.022 228.22C270.342 232.619 269.819 237.091 269.947 241.536C270.03 244.389 272.702 246.54 275.506 246.655C277.58 246.74 279.761 247.65 281.626 248.679C286.14 251.169 289.042 255.097 290.468 260.045C292.004 265.374 290.575 270.118 287.486 274.545C284.677 278.572 282.119 282.79 278.043 285.742C275.787 287.376 273.189 288.731 271.424 290.794C269.528 293.009 267.352 294.454 264.77 295.45C258.41 297.904 251.461 294.721 248.347 289.419C245.541 284.641 238.785 285.691 236.167 289.563C235.025 291.252 234.712 293.483 233.858 295.394C233.335 296.567 233.842 296.389 234.627 296.272C238.514 295.694 242.404 295.142 246.295 294.592C246.495 294.564 246.709 294.642 246.917 294.67C246.763 294.788 246.62 294.927 246.453 295.021C242.594 297.201 238.418 298.432 234.051 298.954C230.742 299.348 227.36 299.98 224.098 299.646C221.528 299.383 218.913 298.106 216.642 296.739C213.965 295.127 213.161 292.389 213.212 289.19C213.313 282.979 215.696 277.738 219.63 273.194C220.763 271.886 222.764 271.335 224.356 270.418C224.961 270.069 225.842 270.025 224.772 268.902C220.1 263.994 215.95 258.68 213.111 252.457C212.663 251.475 212.201 250.462 212.005 249.414C211.885 248.771 212.064 247.852 212.481 247.408C212.743 247.129 213.788 247.329 214.316 247.618C215.108 248.05 215.735 248.774 216.466 249.33C217.712 250.277 218.404 249.874 218.066 248.397C217.107 244.199 217.989 240.214 219.465 236.363C220.261 234.286 221.557 232.391 222.759 230.499C222.874 230.319 224.03 230.591 224.533 230.916C225.467 231.52 226.275 232.318 227.136 233.034C227.194 231.887 227.212 230.736 227.324 229.594C227.391 228.916 227.558 228.236 227.763 227.584C228.794 224.315 229.347 224.15 232.076 226.199C232.442 226.474 232.88 226.654 233.285 226.877L233.403 226.045C233.421 225.906 233.437 225.768 233.448 225.628C233.749 222.035 233.03 218.775 230.404 216.108C230.372 216.076 230.943 215.138 231.27 215.113C235.054 214.815 238.838 214.659 242.299 216.68C243.006 217.093 243.712 217.509 244.528 218.034C244.857 217.735 245.225 217.342 245.271 216.914C245.475 214.98 245.568 213.033 245.792 211.101C245.804 210.997 246.786 210.775 247.069 210.969ZM221.862 273.534C221.776 273.694 221.722 273.883 221.602 274.01C217.297 278.554 215.289 283.952 215.449 290.212C215.535 293.611 217.347 296.115 220.747 296.735C222.908 297.129 225.15 297.112 227.358 297.172C227.625 297.179 228.06 296.556 228.162 296.16C228.813 293.631 228.767 290.812 231.477 288.874C232.233 288.581 232.99 288.29 233.745 287.994C234.088 287.859 234.696 287.737 234.711 287.567C234.743 287.206 234.57 286.647 234.293 286.475C233.552 286.017 232.74 285.511 231.905 285.395C228.054 284.86 225.322 282.831 223.754 279.337C223.009 277.676 222.604 275.862 222.045 274.117C221.983 273.923 221.923 273.728 221.862 273.534ZM232.135 290.411C231.842 291.519 231.508 292.618 231.299 293.741C231.264 293.928 231.855 294.469 232.026 294.417C232.726 294.204 232.95 290.845 232.135 290.411ZM248.099 213.36C248.335 214.166 248.667 214.959 248.786 215.783C249.055 217.651 248.894 219.438 247.058 220.538C245.591 221.418 244.493 220.361 243.495 219.589C241.23 217.836 238.553 217.608 235.893 217.274C234.441 217.092 234.375 217.689 234.849 218.94C235.548 220.778 236.416 222.731 236.362 224.611C236.328 225.79 234.82 227.006 233.816 228.053C232.878 229.03 231.98 228.568 231.239 227.604C231.125 227.456 230.759 227.503 230.509 227.46C230.526 227.856 230.475 228.271 230.572 228.646C231.154 230.879 230.32 233.037 227.979 234.321C226.358 235.21 225.216 233.854 224.231 232.804C223.489 232.014 223.422 232.494 223.108 233.095C220.372 238.33 220.058 243.805 221.51 249.432C221.871 250.831 221.228 251.527 220.074 251.474C218.729 251.412 217.409 250.883 216.068 250.614C215.446 250.489 214.798 250.499 214.162 250.447C214.335 251.06 214.414 251.719 214.695 252.277C217.016 256.895 220.001 261.073 223.874 264.468C226.159 266.471 227.562 268.227 227.493 271.682C227.404 276.195 229.806 279.885 233.971 282.339C237.289 284.293 240.817 283.885 244.317 284.006C246.108 284.067 247.411 284.686 248.477 286.106L248.9 286.673C251.086 289.606 253.248 292.526 257.16 293.551C261.572 294.706 265.604 294.244 269.005 291.135C269.714 290.488 269.721 288.94 269.752 287.799C269.758 287.592 268.322 287.226 267.529 287.137C264.361 286.783 261.176 287.587 257.977 286.722C253.458 285.499 249.305 283.698 245.882 280.438C245.236 279.823 244.693 279.1 244.102 278.428C245.143 278.673 246.186 278.91 247.224 279.17C247.483 279.235 247.78 279.311 247.966 279.483C252.808 283.945 258.49 285.889 265.058 285.371C271.723 284.845 275.156 281.346 275.5 275.496C275.855 269.455 274.688 263.605 271.908 258.128C271.506 257.336 271.51 256.237 271.607 255.309C271.984 251.707 272.889 248.07 269.021 245.508C268.372 245.077 268.192 243.637 268.147 242.647C268.015 239.711 267.09 238.616 264.226 238.35C262.478 238.188 261.499 237.141 261.099 235.501C260.984 235.025 260.989 234.52 260.939 234.028C260.474 234.448 259.884 234.789 259.565 235.3C257.944 237.895 255.526 239.499 252.984 241.052C251.696 241.838 251.28 241.748 250.961 240.292C250.811 239.606 250.254 239.01 249.881 238.373C249.523 238.883 249.151 239.385 248.809 239.906C248.357 240.593 248.038 241.407 247.47 241.973C245.441 243.991 243.391 245.999 241.204 247.837C240.728 248.237 239.299 248.245 238.937 247.852C238.46 247.334 238.523 246.246 238.501 245.398C238.478 244.556 238.686 243.708 238.691 242.862C238.692 242.531 238.431 241.932 238.262 241.922C237.899 241.9 237.34 242.077 237.174 242.358L236.314 243.807C235.454 245.258 234.61 246.72 233.918 248.25C232.065 252.348 231.305 256.701 231.203 261.198C231.189 261.832 230.513 262.513 230.005 263.037C229.832 263.217 228.934 263.083 228.88 262.92C228.642 262.211 228.457 261.429 228.507 260.69C228.586 259.519 228.888 258.365 229.061 257.198C230.1 250.155 233.149 244.165 238.412 239.346C238.605 239.17 239.278 239.157 239.29 239.196C239.768 240.829 240.214 242.472 240.617 244.126C240.707 244.499 240.624 244.915 240.62 245.312C240.973 245.151 241.368 245.047 241.673 244.821C245.001 242.358 247.665 239.324 249.575 235.627C250.035 234.736 250.68 233.941 251.239 233.101L252.221 234.889C252.547 235.486 252.868 236.085 253.176 236.691C253.294 236.924 253.107 237.309 253.221 237.548C253.305 237.725 253.797 237.925 253.853 237.868C255.553 236.112 257.187 234.29 258.914 232.561C259.575 231.898 260.822 230.807 261.138 231C262.164 231.628 262.919 232.732 263.695 233.718C263.873 233.944 263.587 234.514 263.751 234.777C264.051 235.257 264.693 236.052 264.905 235.97C265.972 235.557 267.045 235.017 267.906 234.277C268.25 233.982 268.057 233.059 267.889 232.202C267.004 226.601 264.792 221.649 260.756 217.591C260.502 217.336 260.239 217.088 259.981 216.837C259.912 217.175 259.843 217.512 259.773 217.849C259.388 219.708 257.387 220.828 255.943 219.702C254.122 218.282 252.677 216.387 250.935 214.849C250.158 214.162 249.055 213.845 248.099 213.36ZM402.311 259.239C402.155 259.394 401.891 259.532 401.863 259.708C401.76 260.337 401.607 261 401.706 261.613C402.249 264.966 402.931 268.298 403.434 271.657C404.311 277.515 405.778 283.202 408.804 288.33C409.877 290.148 411.62 291.577 413.081 293.161C413.247 293.341 413.572 293.375 413.823 293.477C413.812 293.322 413.817 293.163 413.788 293.012C413.434 291.181 413.294 289.274 412.673 287.537C411.191 283.396 409.481 279.336 407.642 275.024C406.539 272.037 405.373 269.071 404.354 266.055C403.653 263.98 403.158 261.835 402.562 259.724C402.514 259.552 402.396 259.4 402.311 259.239ZM520.364 249.399C520.356 249.6 519.938 249.766 519.743 249.979C519.215 250.559 518.598 251.092 518.203 251.754C513.858 259.047 511.574 267.076 509.806 275.283C509.337 277.462 508.919 279.651 508.478 282.274C508.331 283.531 508.035 284.792 508.076 286.042C508.123 287.495 508.109 289.123 508.749 290.351C510.543 293.793 515.354 293.695 518.306 291.882C521.037 290.205 522.35 287.5 523.829 284.947C526.351 280.595 528.456 275.998 531.076 271.709C534.639 265.877 538.153 260.068 539.759 253.333C540.242 251.307 539.21 249.925 537.048 249.987C531.958 250.134 527.011 249.131 522.057 248.202C520.392 247.889 520.431 247.803 520.364 249.399ZM274.19 248.487C273.31 252.275 273.874 255.891 274.964 259.465C276.552 264.673 278.284 269.841 277.753 275.406C277.381 279.301 275.632 282.376 272.286 284.525C271.772 284.855 271.541 285.628 271.18 286.196C271.857 286.337 272.539 286.599 273.211 286.574C273.624 286.558 274.071 286.156 274.417 285.835C276.892 283.535 279.665 281.461 281.714 278.824C283.773 276.172 285.104 272.953 286.973 269.763C287.401 267.724 287.908 265.696 288.243 263.641C288.994 259.03 286.685 254.593 282.478 253.026C279.724 252 276.707 251.618 275.537 248.273C275.346 247.727 274.633 246.579 274.19 248.487ZM140.933 148.465C146.31 149.104 151.725 150.101 156.884 151.716C162.413 153.447 167.257 156.741 171.177 161.081C176.522 166.998 180.009 173.873 181.559 181.771C182.215 185.115 182.421 188.434 182.358 191.795C182.318 193.929 182.098 196.059 181.937 198.189C181.592 202.745 182.735 207.079 183.865 211.419C185.023 215.866 184.602 220.322 184.194 224.837C183.591 231.508 181.082 237.543 178.359 243.479C176.606 247.3 174.233 250.846 172.021 254.444C170.15 257.487 168.112 260.428 166.038 263.524C163.24 267.927 160.509 272.195 157.884 276.527C156.726 278.437 155.785 280.477 154.739 282.454C154.612 282.696 154.484 282.953 154.297 283.145C153.648 283.809 152.973 284.447 152.308 285.095C152.245 284.148 151.872 283.089 152.169 282.274C154.548 275.753 158.215 269.934 162.191 264.285C167.006 257.446 172.121 250.791 175.535 243.071C177.777 237.999 179.547 232.78 180.172 227.241C180.534 224.032 180.94 220.812 181.014 217.59C181.087 214.391 180.774 211.183 180.61 207.979C180.602 207.82 180.326 207.529 180.31 207.538C179.952 207.743 179.54 207.919 179.283 208.222C177.913 209.836 176.605 211.502 175.234 213.114C171.749 217.211 167.506 219.967 162.151 221.16C156.861 222.338 152.413 220.798 148.655 217.35C143.892 212.981 143.964 207.638 147.241 202.58C150.238 197.953 154.582 195.499 160.17 194.714C165.632 193.946 170.591 195.463 175.55 197.081C177.382 197.679 178.511 198.322 178.598 195.729C178.696 192.794 178.515 189.82 178.935 186.933C179.474 183.22 178.18 179.979 177.133 176.609C175.062 169.94 171.06 164.72 165.705 160.305C161.598 156.917 156.989 154.588 151.964 153.223C146.777 151.814 141.512 151.168 135.993 151.728C127.052 152.635 119.283 156.057 112.224 161.291C107.224 164.999 103.333 169.8 99.884 174.965C99.3701 175.735 98.5215 176.281 97.8307 176.934C96.9675 177.749 95.8163 177.984 95.2001 177.03C94.7322 176.306 94.5622 174.762 95.0199 174.173L96.0839 172.801C98.2161 170.054 100.391 167.309 102.924 164.971C106.027 162.107 109.583 159.696 113.107 157.333C118.996 153.383 125.448 150.726 132.502 149.646C135.319 149.215 138.208 148.142 140.933 148.465ZM225.656 276.69C225.622 276.969 225.531 277.254 225.563 277.525C225.862 280.044 227.512 281.713 229.379 283.109C230.005 283.576 231.099 283.413 231.979 283.538C231.515 282.823 231.081 282.086 230.576 281.401C230.276 280.994 229.864 280.669 229.503 279.868C228.427 278.937 227.355 278.002 226.273 277.08C226.09 276.924 225.863 276.819 225.656 276.69ZM572.504 120.541C570.149 122.501 567.807 124.485 565.571 126.578C561.904 130.011 559.581 134.403 557.661 138.903C553.622 148.365 549.889 157.957 546.067 167.51C540.434 181.589 534.833 195.681 529.219 210.207C528.925 210.672 528.547 211.105 528.349 211.608C524.779 220.68 521.242 229.765 517.672 238.837C514.921 245.829 512.001 252.759 509.399 259.806C506.993 266.323 505.436 273.086 504.529 279.979C504.441 280.644 504.667 281.349 504.747 282.035C504.814 281.452 504.79 280.837 504.979 280.296C505.107 279.933 505.69 279.724 505.808 279.362C508.045 272.447 510.099 265.469 512.5 258.612C514.152 253.892 516.228 249.315 518.207 244.714C519.131 242.565 519.956 242.357 522.032 243.384C523.434 244.079 524.861 244.728 526.232 245.48C528.399 246.668 530.695 247.119 533.144 246.902C534.89 246.747 537.072 244.732 537.115 242.857C537.156 241.024 536.342 239.553 534.217 239.359C532.887 239.238 531.528 239.304 530.228 239.051C529.268 238.864 528.383 238.299 527.465 237.903C528.064 237.446 528.62 236.91 529.276 236.56C529.682 236.344 530.241 236.41 530.731 236.354C534.018 235.974 536.806 237.546 539.694 238.671C544.896 240.697 547.828 240.311 550.471 236.841C551.891 234.977 552.843 232.716 553.782 230.538C558.044 220.654 562.567 210.863 566.342 200.796C570.247 190.38 573.887 179.814 576.747 169.077C579.823 157.526 583.195 145.959 583.79 133.887C583.954 130.562 583.669 127.344 582.718 124.062C581.187 118.777 576.198 117.467 572.504 120.541ZM391.657 226.344C391.469 226.705 391.23 227.05 391.101 227.431C389.449 232.327 389.707 237.229 391.994 241.762C394.388 246.508 397.321 250.986 400.045 255.565C400.161 255.759 400.546 255.795 400.806 255.904C400.89 255.551 401.122 255.154 401.034 254.851C400.253 252.178 399.366 249.535 398.636 246.849C398.485 246.295 398.649 245.37 399.036 245.026C399.609 244.516 400.569 244.023 401.261 244.138C403.258 244.472 404.917 246.846 405.114 249.216C405.44 253.13 405.555 257.076 406.146 260.95C407.098 267.181 409.556 272.951 412.285 278.598C412.433 278.904 412.721 279.142 412.944 279.411C413.163 279.062 413.483 278.74 413.581 278.36C413.923 277.03 413.986 275.595 414.518 274.354C416.394 269.984 416.364 265.783 414.068 261.551C412.812 259.235 411.834 256.768 410.51 254.15C409.576 251.463 409.133 248.447 407.594 246.163C405.221 242.641 402.024 239.681 399.315 236.37C396.923 233.448 394.722 230.372 392.436 227.364L391.657 226.344ZM266.398 268.056C266.901 268.916 267.29 269.713 267.928 270.18C270.324 271.931 270.055 276.647 267.697 278.101C267.168 278.426 266.258 278.152 265.523 278.154C265.523 277.558 265.34 276.888 265.552 276.377C267.045 272.785 265.495 269.842 261.584 268.899C260.971 268.752 260.414 268.379 259.832 268.111C260.367 267.782 260.892 267.433 261.441 267.129C262.028 266.803 262.637 266.516 263.238 266.216C265.502 265.087 265.863 265.273 266.398 268.056ZM270.36 249.272C270.715 251.316 270.605 253.525 270.239 255.581C269.952 257.185 265.745 258.067 263.458 257.77C261.041 257.456 259.554 256.014 258.052 254.476C256.744 253.136 255.252 252.083 253.406 252.828C251.532 253.584 251.461 255.446 251.549 257.427C251.023 260.912 250.011 263.732 246.968 265.795C242.939 268.527 238.298 266.525 236.488 263.215C236.283 262.841 235.92 262.552 235.631 262.223C235.412 262.545 235.124 262.84 234.984 263.192C233.897 265.941 232.716 268.661 231.815 271.47C231.254 273.221 232.054 274.017 233.843 273.999C235.039 273.987 236.236 273.977 237.431 274.01C237.744 274.018 238.052 274.191 238.363 274.288C238.19 274.58 238.085 275.033 237.833 275.137C236.705 275.601 235.368 276.534 234.412 276.257C231.905 275.53 229.708 274.157 229.565 271.05C229.332 265.989 232.048 262.169 234.939 258.446C238.229 254.206 243.087 252.71 247.985 251.322C254.137 249.58 260.287 247.83 266.441 246.094C267.723 245.732 270.009 247.253 270.36 249.272ZM246.832 253.209C244.638 254.08 242.468 255.039 240.371 256.118C236.75 257.982 236.37 261.278 239.385 263.891C242.52 266.609 246.545 265.688 247.728 261.804C248.392 259.627 248.534 257.293 248.912 254.593C249.013 252.958 247.983 252.752 246.832 253.209ZM255.925 254.828C256.117 254.905 256.304 255.004 256.503 255.055C259.481 255.814 261.797 260.663 260.382 263.289C260.103 263.808 259.53 264.161 259.093 264.591C258.984 264.163 258.862 263.738 258.768 263.307C258.488 262.03 258.219 260.751 257.843 259.367C257.164 257.973 256.583 256.686 256.017 255.391C255.944 255.223 255.954 255.017 255.925 254.828ZM265.18 247.441C262.71 248.303 260.336 249.433 257.482 250.451C257.409 250.782 257.174 251.185 257.287 251.433C258.71 254.554 264.055 256.754 267.257 255.578C269.146 254.885 270.191 252.491 269.569 250.284C269.137 248.754 266.604 246.945 265.18 247.441ZM492.106 171.86C496.359 172.274 499.754 174.132 502.343 177.793C503.765 179.805 502.684 181.472 502.35 183.161C501.144 189.251 499.687 195.29 498.305 201.344C497.167 206.328 496.007 211.308 494.842 216.286C493.289 222.92 491.73 229.552 490.159 236.181C489.028 240.951 487.883 245.717 486.717 250.478C486.595 250.976 486.285 251.426 486.063 251.899C485.857 251.402 485.437 250.887 485.478 250.413C485.801 246.655 486.127 242.893 486.616 239.155C487.132 235.221 487.761 231.299 488.463 227.395C489.302 222.736 490.183 218.081 491.203 213.46C493.512 202.997 496.494 192.734 499.904 182.584C501.258 178.552 497.41 175.89 494.296 175.96C492.306 176.004 490.589 176.459 488.762 176.905C488.46 176.979 487.984 176.31 487.588 175.765C487.588 175.401 487.542 175.234 487.596 175.112C488.019 174.149 486.481 172.383 488.748 172.172C489.869 172.068 491.006 171.753 492.106 171.86ZM273.916 230.42C276.585 230.46 279.253 230.815 281.919 230.79C285.733 230.753 289.372 231.565 292.778 233.066C295.774 234.386 298.54 236.212 301.519 237.923C304.993 241.017 307.638 244.477 308.654 248.91C308.788 249.492 308.147 250.247 307.865 250.922C307.409 250.516 306.667 250.181 306.541 249.692C304.119 240.308 297.302 235.741 288.4 233.451C283.537 232.199 278.617 232.508 273.68 232.948C273.041 233.005 271.609 233.85 271.555 232.165C271.506 230.617 272.815 230.403 273.916 230.42ZM400.804 98.9233C392.134 100.154 385.72 105.13 380.86 112.274C375.564 120.06 373.792 128.909 373.559 138.003C373.393 144.495 374.17 151.031 374.816 157.518C375.299 162.365 375.985 167.224 377.05 171.974C378.392 177.96 380.24 183.832 381.82 189.767C384.46 199.69 387.785 209.381 392 218.745C396.492 228.726 402.398 237.768 410.697 245.081C413.375 247.441 416.481 249.147 420.092 249.505C424.591 249.952 428.96 249.105 433.262 247.789C442.465 244.973 451.763 242.444 460.873 239.361C469.193 236.546 474.374 230.509 476.222 221.937C477.608 215.509 478.776 209.025 479.745 202.522C480.57 196.988 481.239 191.404 481.472 185.821C481.651 181.551 481.092 177.245 480.767 172.962C480.519 169.698 480.124 166.445 479.794 162.748C478.721 156.251 476.776 150.033 474.214 143.953C470.321 134.716 464.957 126.588 457.707 119.574C449.803 111.929 440.357 107.065 430.084 103.72C424.286 101.832 418.286 100.443 412.281 99.3486C408.542 98.6673 404.544 98.3924 400.804 98.9233ZM142.615 158.376C142.357 158.779 142.127 159.204 141.836 159.581C136.442 166.597 130.73 173.394 125.72 180.674C119.808 189.264 114.869 198.465 111.034 208.37C109.54 211.475 108.174 214.478 106.765 217.462C106.019 219.042 104.469 218.843 103.412 218.335C102.267 217.783 102.409 216.617 103.094 215.39C108.74 205.285 114.16 195.05 119.937 185.021C123.48 178.869 127.309 172.85 131.444 167.085C133.656 164 136.776 161.564 139.524 158.874C139.889 158.517 140.459 158.264 140.968 158.188C141.495 158.108 142.064 158.302 142.615 158.376ZM157.089 198.713C151.04 200.317 148.033 204.746 148.557 210.569C148.888 214.239 150.34 216.589 153.819 217.578C157.807 218.713 161.789 218.193 165.545 216.683C170.932 214.517 175.338 211.241 176.675 204.668C176.815 202.897 176.305 201.602 174.728 200.449C169.136 196.361 163.234 197.083 157.089 198.713ZM283.192 83.4195C283.044 83.6025 282.897 83.6758 282.75 83.8588C282.277 84.0721 281.691 84.0323 281.348 84.3C272.796 90.982 267.432 99.7113 264.613 110.083C263.274 115.008 262.667 120.032 262.889 125.099C263.28 134.015 266.079 142.165 271.15 149.581C276.691 157.683 284.052 163.646 292.841 167.829C297.879 170.227 303.225 171.952 308.887 172.254C311.435 172.39 314.043 171.971 316.542 172.342C321.344 173.057 325.812 171.765 330.247 170.474C339.18 167.876 347.04 163.387 353.774 156.9C358.741 152.114 363.038 146.911 365.875 140.599C365.931 140.475 366 140.357 366.063 140.237C366.147 140.4 366.323 140.576 366.303 140.726C365.88 143.93 366.085 147.174 363.806 150.034C356.754 158.885 348.573 166.342 337.975 170.672C333.442 172.525 328.601 173.715 323.813 174.842C320.933 175.52 317.878 175.809 314.915 175.731C307.421 175.534 300.191 173.952 293.273 170.975C285.887 167.797 279.419 163.333 273.909 157.536C267.499 150.794 263.025 142.946 261.135 133.822C260.382 130.188 259.784 126.432 259.835 122.741C259.994 111.21 263.384 100.579 270.099 91.1398C271.928 88.5678 274.389 86.4307 276.621 84.1535C277.674 83.0803 282.346 82.5628 283.192 83.4195ZM292.615 83.5308C292.726 83.5437 292.823 83.6794 292.927 83.7579C292.735 83.826 292.547 83.9019 292.353 83.9611C284.827 86.2586 279.467 91.1992 275.886 98.0399C273.691 102.232 272.501 106.788 271.832 111.54C270.47 121.199 272.699 130.092 277.336 138.38C283.065 148.62 291.167 156.412 302.382 160.447C305.958 161.733 309.654 163.115 313.386 163.452C322.346 164.261 330.952 162.655 338.929 158.166C344.875 154.819 349.762 150.34 354.144 145.141C359.227 139.11 362.118 132.081 363.915 124.569C364.545 121.935 364.275 119.087 364.44 116.338C364.471 115.823 364.614 115.315 364.706 114.804C365.308 115.115 366.238 115.279 366.454 115.763C367.227 117.49 368.418 119.394 368.24 121.105C367.875 124.621 366.993 128.147 365.85 131.507C362.885 140.228 357.646 147.504 350.847 153.629C344.521 159.328 337.228 163.309 328.929 165.307C326.118 165.984 323.276 166.761 320.416 166.926C317.768 167.079 315.053 166.616 312.41 166.17C308.889 165.577 305.292 165.083 301.932 163.94C292.653 160.784 284.869 155.421 278.594 147.731C273.58 141.588 270.684 134.608 269.294 126.953C267.66 117.946 269.124 109.22 272.457 100.794C274.712 95.0932 278 90.041 282.505 85.8299C282.846 85.5113 283.034 85.0285 283.293 84.402C283.439 84.1088 283.586 84.0355 283.732 83.9622C286.619 82.3143 289.631 83.1838 292.615 83.5308ZM623.339 162.074C626.358 162.107 629.37 162.517 632.387 162.753C636.058 163.041 639.728 163.403 643.406 163.545C646.925 163.68 650.459 163.488 653.978 163.611C655.713 163.671 657.48 163.978 659.129 164.468C659.691 164.635 659.935 165.706 660.325 166.363C659.789 166.522 659.263 166.727 658.715 166.829C658.079 166.948 657.423 166.977 656.665 166.943C649.346 166.705 642.138 166.515 634.929 166.459C632.009 166.436 629.086 166.812 626.166 166.795C624.735 166.787 623.301 166.319 621.878 166.018C620.395 165.703 619.952 164.472 620.504 163.574C620.979 162.802 622.366 162.064 623.339 162.074ZM314.345 89.6177C315.995 97.485 317.523 105.379 319.14 113.254C319.971 117.297 318.984 118.975 315.508 120.937C310.914 123.531 306.471 126.42 302.08 129.367C299.881 130.842 298.077 131.356 296.873 130.19C295.735 129.089 295.549 128.119 297.066 127.086C301.815 123.854 306.585 120.644 311.176 117.187C312.176 116.434 313.076 114.637 312.973 113.414C312.596 108.947 311.8 104.515 311.112 100.078C310.825 98.2269 310.413 96.3959 310.058 94.3342C309.888 92.5154 309.401 90.8601 309.664 89.3418C309.83 88.3901 311.029 87.0907 311.932 86.9278C313.535 86.6388 314.076 88.3366 314.345 89.6177ZM617.034 71.2352C617.301 71.515 617.448 72.2773 617.26 72.5555C616.355 73.89 615.316 75.1347 614.214 76.5212C610.661 81.3662 607.262 86.134 603.722 90.7968C603.258 91.4074 601.759 91.9893 601.286 91.7011C600.084 90.9682 601.166 90.1862 601.665 89.3556C604.973 83.8434 608.175 78.2684 611.454 72.7388C612.964 70.1926 615.418 69.5461 617.034 71.2352ZM516.218 0.0017438C516.798 0.050229 517.448 0.749197 517.839 1.32578C519.272 3.44117 518.518 5.81903 518.233 8.01671C517.735 11.8512 516.834 15.6309 516.132 19.4393C515.804 21.218 515.547 23.01 515.257 25.0162C514.679 28.0012 514.049 30.7561 513.532 33.5326C512.593 38.576 511.755 43.6385 510.812 48.681C510.025 52.8875 509.174 57.0823 508.306 61.2725C506.881 68.1521 505.465 75.0345 503.94 81.8916C503.522 83.773 502.056 84.4777 500.855 83.5775C500.45 83.2739 500.045 82.4959 500.142 82.0454C502.389 71.5565 504.798 61.1025 506.979 50.5997C508.582 42.8777 509.729 35.0564 511.401 27.3514C512.994 20.011 513.814 12.6521 513.579 5.14057C513.538 3.8413 514.147 2.46909 514.676 1.22695C514.915 0.664236 515.723 -0.0396504 516.218 0.0017438ZM397.16 52.0917C397.583 52.8062 398.017 53.5137 398.446 54.4488C399.161 58.2489 399.898 61.8198 400.581 65.402C400.926 67.2075 401.191 69.0307 401.449 70.8525C401.513 71.3051 401.411 71.7835 401.385 72.25C400.754 72.1442 399.737 72.2516 399.559 71.8969C398.64 70.0698 397.814 68.1671 397.192 66.2085C396.479 63.9648 396.181 61.5683 395.377 59.3685C394.938 58.1647 393.74 57.2879 393.043 56.1564C392.44 55.1778 391.73 54.0575 391.702 52.9813C391.683 52.2906 392.717 51.1303 393.449 50.9534C394.73 50.644 396.253 50.5584 397.16 52.0917Z" fill="#00160A"/>
<path d="M251.058 271.359C253.663 270.661 255.549 269.251 255.27 268.209C254.991 267.167 252.652 266.889 250.047 267.587C247.441 268.285 245.556 269.695 245.835 270.737C246.114 271.779 248.452 272.057 251.058 271.359Z" fill="#FFB61D"/>
<path fill-rule="evenodd" clip-rule="evenodd" d="M268.99 262.89C270.85 262.192 271.922 260.782 271.539 259.74C271.179 258.698 269.803 258.42 268.311 259.117C266.673 259.815 265.213 261.225 265.204 262.267C265.219 263.309 266.983 263.588 268.99 262.89Z" fill="#FFB61D"/>
</svg>
