<svg width="636" height="519" viewBox="0 0 636 519" fill="none" xmlns="http://www.w3.org/2000/svg">
<path fill-rule="evenodd" clip-rule="evenodd" d="M276.721 505.551C248.162 519.866 214.68 521.032 182.999 516.955C121.664 509.063 59.7247 479.314 29.2274 425.492C16.0725 402.276 9.42862 375.951 4.79981 349.669C-1.38202 314.569 -3.87923 276.834 11.6551 244.761C24.751 217.722 49.0541 198.046 73.2672 180.271C98.6439 161.642 126.134 143.53 157.389 139.807C247.548 138.021 238.414 171.906 332.571 118.014C359.943 102.347 441.323 129.24 468.819 138.021C496.316 146.802 550.574 173.894 587.371 206.077C602.752 219.53 616.939 234.925 625.583 253.445C638.526 281.173 637.898 313.475 631.859 343.475C625.768 373.736 612.544 405.209 585.683 420.395C573.548 427.256 559.554 430.199 545.66 431.325C487.636 436.028 425.914 411.244 372.816 435.118C336.465 451.462 312.351 487.691 276.721 505.551Z" fill="#FF3D68"/>
<path fill-rule="evenodd" clip-rule="evenodd" d="M59.1564 256.471C70.0594 245.726 80.3068 234.648 87.2033 224.993C96.6963 211.702 110.615 199.065 127.108 196.627C146.341 193.784 164.005 207.05 177.986 220.567C197.301 239.241 214.635 259.964 229.604 282.277C223.6 283.059 210.661 292.019 193.466 291.735C183.345 291.567 171.252 282.543 159.563 281.94C151.444 281.522 142.581 290.024 134.405 289.376C120.111 288.242 106.741 277.713 94.6824 275.808C87.4988 274.673 77.804 281.817 72.282 280.384C57.1068 276.446 52.6095 262.923 59.1564 256.471Z" fill="white"/>
<path fill-rule="evenodd" clip-rule="evenodd" d="M386.105 423.639C433.227 408.094 484.29 426.109 533.903 425.444C555.884 425.15 579.38 420.296 594.512 404.343C561.369 384.82 536.212 353.773 517.887 319.942C499.563 286.11 487.516 249.304 475.566 212.729C459.844 203.76 439.608 218.927 422.351 213.473C413.532 210.685 403 203.113 396.672 209.86C392.852 213.933 385.737 211.537 382.022 207.369C378.306 203.2 376.236 197.659 372.047 193.968C367.857 190.277 359.905 189.812 357.773 194.974C354.082 203.909 350.191 213.139 343.115 219.723C336.039 226.308 324.82 229.486 316.531 224.515C310.057 220.631 307.001 213.074 303.23 206.531C299.459 199.989 297.988 194.107 290.489 194.974C265.158 248.369 246.247 300.859 215.085 351.071C201.694 372.648 126.774 454.9 83.2403 444.299C39.707 433.699 42.9368 425.444 28.2356 412.41C43.5494 443.58 70.6021 468.104 101.491 483.956C132.379 499.808 166.976 507.43 201.582 510.183C215.238 511.269 229.088 511.611 242.529 508.969C297.614 498.137 332.789 441.226 386.105 423.639Z" fill="white"/>
<path fill-rule="evenodd" clip-rule="evenodd" d="M338.865 215.376C343.692 209.137 346.708 201.631 351.681 195.508C356.655 189.384 364.732 184.638 372.255 187.003C379.257 189.204 383.109 196.512 386.231 203.157C387.798 206.494 392.563 206.752 395.996 205.414C399.43 204.076 402.517 201.657 406.18 201.257C413.759 200.43 419.467 208.285 426.874 210.093C437.896 212.785 448.975 201.532 459.867 204.707C464.476 206.051 468.466 209.907 473.256 209.577C464.043 187.485 457.104 164.48 447.433 142.585C437.761 120.69 425.005 99.5579 406.436 84.4624C404.527 82.9103 402.438 81.3736 399.997 81.0622C397.557 80.7508 394.73 82.1373 394.302 84.5611C393.031 91.7671 391.759 98.9731 390.488 106.179C389.859 109.747 388.197 114.225 384.577 114.158C382.164 114.112 380.312 111.746 379.98 109.356C379.648 106.965 380.449 104.578 381.238 102.297C383.71 95.15 386.183 88.0032 388.656 80.8564C371.692 86.9807 356.987 98.3483 344.798 111.647C332.609 124.945 322.751 140.186 313.303 155.555C305.213 168.714 297.376 182.029 289.798 195.489C299.96 194.045 308.812 202.394 314.562 210.901C318.002 215.991 322.098 222.055 328.24 222.032C332.57 222.016 336.214 218.802 338.865 215.376Z" fill="white"/>
<path fill-rule="evenodd" clip-rule="evenodd" d="M404.593 61.5793C403.468 61.2177 402.287 60.8067 401.521 59.9066C400.418 58.6116 400.491 56.7188 400.624 55.0228C401.936 38.2632 403.247 21.5036 404.559 4.74394C404.711 2.80194 406.615 1.37007 408.541 1.08331C410.467 0.796559 412.404 1.38003 414.264 1.95672C426.26 5.67666 438.257 9.3966 450.253 13.1165C453.181 14.0244 453.337 18.0904 452.72 21.0944C452.104 24.0984 451.641 27.9556 454.262 29.5454C471.757 40.1569 490.348 48.9597 509.642 55.7682C510.889 56.2084 510.981 58.1057 510.11 59.1012C509.239 60.0967 507.849 60.4179 506.555 60.694C486.966 64.8758 467.798 71.0273 449.432 79.0257C446.862 80.1448 443.507 81.1675 441.567 79.1438C440.187 77.7038 440.32 75.4529 440.203 73.4612C440.086 71.4695 439.208 69.0845 437.23 68.833C426.159 67.4253 415.218 64.9937 404.593 61.5793ZM445.692 27.5851C448.376 23.3332 446.463 16.9063 441.891 14.8161C431.05 9.85927 419.671 6.07818 408.02 3.56038C409.956 6.54948 409.853 10.3729 409.682 13.9309C409.026 27.593 408.352 41.3811 404.786 54.5857C404.478 55.7274 405.946 56.47 407.1 56.7281C417.433 59.0398 427.844 61.005 438.309 62.6192C437.447 52.5285 436.585 42.4378 435.723 32.3472C435.627 31.2256 435.539 30.0542 435.965 29.0127C436.657 27.3254 438.578 26.4084 440.4 26.3566C442.222 26.3047 443.984 26.9495 445.692 27.5851ZM443.445 35.5387C444.269 47.3786 445.092 59.2184 445.915 71.0583C445.987 72.0963 446.109 73.2419 446.876 73.9447C463.557 67.0168 480.838 61.5352 498.462 57.5814C479.364 52.0956 463.254 37.0883 443.445 35.5387Z" fill="#FFB61D"/>
<path fill-rule="evenodd" clip-rule="evenodd" d="M276.721 505.551C248.162 519.866 214.68 521.032 182.999 516.955C121.664 509.063 59.7247 479.314 29.2274 425.492C16.0725 402.276 9.42862 375.951 4.79981 349.669C2.26036 335.25 -2.6715 313.655 6.35913 303.853C8.3769 301.663 65.0614 255.992 87.2033 224.993C96.6963 211.702 110.615 199.065 127.108 196.627C146.341 193.784 164.005 207.05 177.986 220.567C197.301 239.241 214.635 259.964 229.604 282.277C213.109 275.266 201.237 260.695 190.28 246.506C179.323 232.317 168.001 217.47 151.96 209.473C135.919 201.477 113.643 202.809 103.225 217.398C78.3933 252.173 46.9822 282.227 11.1514 305.494C8.45649 307.244 8.21284 311.028 8.26331 314.242C8.84577 351.341 12.9916 393.59 42.6564 415.858C67.4334 434.457 103.401 432.03 130.542 417.094C157.683 402.159 177.532 376.896 194.573 351.017C244.56 275.104 277.019 188.333 330.747 115.022C343.098 98.1689 357.65 81.3156 377.549 74.9624C390.827 70.7232 394.55 53.7721 394.305 39.8299C394.061 25.8878 392.743 10.0363 402.419 0C400.38 23.1851 398.34 46.3703 396.301 69.5554C426.021 84.3178 443.38 115.749 456.12 146.402C475.039 191.92 487.88 239.831 507.797 284.921C527.714 330.011 555.985 373.336 597.776 399.451C617.121 374.255 628.152 333.92 628.152 310.87C617.121 298.841 601.451 280.023 583.118 271.551C561.263 261.45 537.287 279.158 519.731 295.638C529.434 280.861 541.083 265.307 558.252 261.122C572.112 257.744 586.946 262.783 598.445 271.229C609.944 279.675 618.711 291.234 627.308 302.624C636 305.494 637.898 313.475 631.859 343.475C625.768 373.736 612.544 405.209 585.683 420.395C573.548 427.256 559.554 430.199 545.66 431.325C487.636 436.028 425.914 411.244 372.816 435.118C336.465 451.462 312.351 487.691 276.721 505.551ZM386.105 423.639C433.227 408.094 484.29 426.109 533.903 425.444C555.884 425.15 579.38 420.296 594.512 404.343C561.369 384.82 536.212 353.773 517.887 319.942C499.563 286.11 487.516 249.304 475.566 212.729C459.844 203.76 439.608 218.927 422.351 213.473C413.532 210.685 403 203.113 396.672 209.86C392.852 213.933 385.737 211.537 382.022 207.369C378.306 203.2 376.236 197.659 372.047 193.968C367.857 190.277 359.905 189.812 357.773 194.974C354.082 203.909 350.191 213.139 343.115 219.723C336.039 226.308 324.82 229.486 316.531 224.515C310.057 220.631 307.001 213.074 303.23 206.531C299.459 199.989 293.213 193.448 285.714 194.315C260.383 247.71 232.048 299.678 200.886 349.89C187.495 371.467 173.322 393.024 154.144 409.663C134.965 426.302 109.92 437.684 84.6397 435.37C64.2396 433.502 45.709 423.107 28.2356 412.41C43.5494 443.58 70.6021 468.104 101.491 483.956C132.379 499.808 166.976 507.43 201.582 510.183C215.238 511.269 229.088 511.611 242.529 508.969C297.614 498.137 332.789 441.226 386.105 423.639ZM337.886 211.461C342.713 205.221 345.729 197.715 350.703 191.592C355.677 185.469 363.753 180.722 371.277 183.087C378.278 185.288 382.13 192.597 385.252 199.242C386.82 202.578 391.584 202.836 395.018 201.498C398.451 200.16 401.539 197.742 405.202 197.342C412.78 196.514 418.489 204.369 425.896 206.178C436.917 208.869 447.996 197.616 458.888 200.792C463.498 202.136 467.487 205.991 472.277 205.662C463.065 183.569 456.177 161.816 446.505 139.921C436.834 118.026 415.825 79.306 399.019 77.1465C382.022 74.9623 356.009 94.4325 343.82 107.731C331.631 121.029 321.773 136.27 312.324 151.639C304.235 164.798 296.398 178.113 288.819 191.573C298.982 190.13 307.833 198.478 313.583 206.985C317.023 212.075 321.12 218.139 327.261 218.116C331.591 218.1 335.236 214.887 337.886 211.461Z" fill="#00160A"/>
<path fill-rule="evenodd" clip-rule="evenodd" d="M262.976 33.9061C252.299 34.99 243.59 44.3682 239.192 57.0596C238.048 60.3584 234.294 61.8821 227.708 62.5169L227.293 62.5554C212.71 63.8563 203.03 67.6139 198.363 76.204L198.167 76.5713C197.787 77.3019 197.462 78.0312 196.987 79.1841L196.68 79.9347C195.578 82.6429 195.015 83.7888 194.072 84.9811C191.136 88.6941 186.719 89.8369 177.879 90.1027L176.897 90.1283C155.717 90.6002 140.755 93.8198 128.634 102.288C125.167 104.711 123.103 107.116 122.64 110.198C122.111 113.73 124.162 117.388 127.437 119.396C130.057 121.003 133.201 121.638 137.126 121.649C141.902 121.663 146.677 120.831 151.167 119.204L151.542 119.066C152.218 118.815 152.859 118.56 153.812 118.165L155.831 117.322C159.971 115.608 161.981 115 164.5 114.868C168.387 114.664 171.455 115.691 177.987 118.884L179.361 119.558C180.783 120.254 181.809 120.739 182.815 121.181L183.089 121.3C194.047 126.035 205.251 126.828 223.447 125.439L227.038 125.149L234.989 124.476C237.077 124.307 238.571 124.198 240.293 124.089L241.954 123.991C249.042 123.605 256.608 123.599 268.963 123.845L277.46 124.023C294.491 124.359 302.169 124.268 310.354 123.425C319.864 122.446 326.057 115.803 328.596 105.961C330.654 97.985 329.906 88.6782 327.038 84.2562C321.313 75.4262 312.768 70.1077 304.905 72.5585C302.299 73.3708 299.02 71.456 297.347 68.3146C296.439 66.6083 295.977 65.0691 295.22 61.6206L294.853 59.9513C294.641 59.0079 294.486 58.3768 294.291 57.6677C291.623 48.0105 284.339 39.7643 275.087 35.9288C271.027 34.2459 266.897 33.508 262.976 33.9061ZM273.963 38.6419C282.237 42.0719 288.808 49.4107 291.334 58.0043L291.461 58.4499C291.643 59.1086 291.79 59.7061 291.993 60.6146L292.446 62.6751C293.209 66.0968 293.724 67.7561 294.757 69.6955C296.984 73.8788 301.457 76.5472 305.534 75.4337L305.778 75.3624C312.086 73.3963 319.483 78.0003 324.576 85.8545C326.941 89.5025 327.623 97.9826 325.754 105.227C323.496 113.98 318.196 119.665 310.054 120.504L309.141 120.595C301.644 121.317 294.186 121.403 278.806 121.111L267.576 120.881C255.993 120.662 248.687 120.683 241.79 121.059L239.085 121.225C237.153 121.354 235.312 121.499 232.304 121.753L224.012 122.45C206.052 123.866 195.133 123.188 184.712 118.8L184.253 118.604C183.382 118.228 182.512 117.824 181.371 117.271L178.794 116.01C172.134 112.779 168.794 111.702 164.346 111.935C161.306 112.095 159.032 112.804 154.315 114.771L152.229 115.641C151.404 115.979 150.828 116.203 150.167 116.442C146.001 117.953 141.566 118.725 137.134 118.712C133.699 118.702 131.051 118.168 128.971 116.892C126.636 115.461 125.203 112.905 125.543 110.634C125.855 108.556 127.45 106.698 130.315 104.696C141.697 96.7434 155.926 93.6084 176.139 93.0842L176.962 93.0643C187.332 92.8333 192.58 91.6016 196.374 86.8031C197.449 85.4439 198.082 84.226 199.108 81.7493L199.903 79.8182C200.305 78.8621 200.589 78.255 200.942 77.6066C204.878 70.3624 213.36 66.9044 226.376 65.5924L227.554 65.4806C235.352 64.7849 240.097 62.9753 241.87 58.2853L241.965 58.0218C246.029 46.2972 253.943 37.7751 263.272 36.8279C266.528 36.4974 270.011 37.08 273.489 38.4502L273.963 38.6419Z" fill="#00160A"/>
<path fill-rule="evenodd" clip-rule="evenodd" d="M581.122 94.683L580.76 95.0454C580.484 95.3274 580.211 95.6199 579.873 95.9936L578.53 97.5056C577.249 98.941 576.557 99.6247 575.651 100.309C573.678 101.798 571.315 102.259 569.744 101.379C569.111 101.025 568.641 100.561 567.733 99.4438L567.057 98.6101C566.704 98.183 566.453 97.9022 566.146 97.5919C562.095 93.5079 555.02 93.3101 549.634 96.5614C545.419 99.1058 542.39 103.003 539.073 109.204C537.718 111.737 534.739 113.489 531.194 114.025C529.473 114.285 527.662 114.304 525.346 114.132L524.213 114.038L520.653 113.677C501.919 111.828 482.76 114.476 465.229 121.338C462.462 122.421 460.924 123.391 459.948 125.198C458.54 127.803 459.967 131.584 462.974 131.751C514.364 134.6 565.965 133.626 617.211 128.841L620.461 128.536L622.834 128.373C623.055 128.357 623.237 128.342 623.464 128.321L624.073 128.261C628.748 127.742 631.315 126.19 631.315 122.301C631.315 118.545 629.505 117.517 624.936 117.051L624.021 116.955C622.251 116.762 621.443 116.617 620.351 116.279C616.476 115.077 611.86 112.573 610.852 111.322C609.363 109.471 608.728 107.73 607.822 103.682L607.536 102.401C606.584 98.2308 605.827 96.2415 604.033 94.0104C598.797 87.4977 587.624 88.2945 581.122 94.683ZM601.746 95.851C603.233 97.7006 603.867 99.4423 604.771 103.484L605.058 104.766C606.011 108.943 606.769 110.932 608.566 113.164C610.02 114.969 615.1 117.725 619.482 119.084L619.885 119.204C620.933 119.507 621.812 119.661 623.349 119.836L625.374 120.053C627.957 120.359 628.38 120.727 628.38 122.301C628.38 124.217 626.993 125.021 623.5 125.368L622.607 125.445L620.372 125.597C620.265 125.605 620.164 125.614 620.066 125.622L619.776 125.648C567.742 130.651 515.33 131.712 463.136 128.818C462.54 128.785 462.049 127.484 462.53 126.595C463.071 125.593 464.146 124.915 466.298 124.073C483.103 117.495 501.448 114.886 519.419 116.51L521.618 116.727L523.435 116.914C523.859 116.955 524.211 116.987 524.599 117.019C527.367 117.25 529.525 117.247 531.633 116.929C536.022 116.265 539.82 114.032 541.661 110.59C544.75 104.816 547.497 101.282 551.15 99.076C555.462 96.4733 561.056 96.6296 564.062 99.6605L564.237 99.8421C564.382 99.9962 564.528 100.162 564.707 100.376L565.27 101.068C566.53 102.634 567.2 103.32 568.31 103.942C571.044 105.472 574.604 104.779 577.419 102.653C578.453 101.873 579.212 101.137 580.466 99.7443L582.031 97.9849C582.485 97.4817 582.807 97.1438 583.179 96.7783C588.55 91.5009 597.722 90.8468 601.746 95.851Z" fill="#00160A"/>
<path fill-rule="evenodd" clip-rule="evenodd" d="M394.305 39.8299C394.061 25.8878 392.743 10.0363 402.419 0C400.38 23.1851 398.34 46.3703 396.301 69.5554C399.612 71.2004 394.673 73.952 391.68 74.0074C380.957 74.2056 394.55 53.7721 394.305 39.8299Z" fill="#FFB61D"/>
</svg>
