<svg width="777" height="582" viewBox="0 0 777 582" fill="none" xmlns="http://www.w3.org/2000/svg">
<path d="M373.259 379.097L42.031 469.512C-22.1153 487.022 -9.4522 581.5 57.041 581.5H719.497C785.991 581.5 798.654 487.022 734.508 469.512L403.279 379.097C393.452 376.415 383.086 376.415 373.259 379.097Z" fill="#F2F2F2"/>
<path fill-rule="evenodd" clip-rule="evenodd" d="M344.466 51.3109C331.045 61.5449 319.805 74.257 311.323 88.7284C297.425 85.9542 282.45 85.3638 267.287 87.5358C271.093 71.0007 278.89 55.4383 290.155 42.4386C292.777 39.4276 296.658 37.8121 300.642 38.0997C316.143 39.1992 331.112 43.7918 344.466 51.3109ZM382.269 129.233C395.697 114.395 411.406 103.539 428.115 96.4504C418.17 81.5392 404.418 69.2838 387.944 61.0458C384.375 59.2612 380.163 59.2612 376.595 61.0458C360.12 69.2838 346.369 81.5392 336.423 96.4504C353.133 103.539 368.842 114.395 382.269 129.233ZM463.161 254.587C474.747 248.81 485.378 241.181 494.647 231.911C522.614 203.933 532.408 162.548 519.883 124.979C518.623 121.198 515.646 118.221 511.865 116.961C474.333 104.451 432.944 114.203 404.943 142.199C395.674 151.469 388.037 162.1 382.269 173.696C376.502 162.1 368.865 151.469 359.596 142.199C331.62 114.229 290.239 104.435 252.673 116.961C248.884 118.221 245.916 121.198 244.656 124.979C232.148 162.515 241.899 203.907 269.892 231.911C279.152 241.173 289.791 248.81 301.377 254.587C289.791 260.363 279.161 267.992 269.892 277.262C241.924 305.241 232.131 346.625 244.656 384.195C245.916 387.975 248.893 390.953 252.673 392.213C290.206 404.722 331.594 394.97 359.596 366.975C368.865 357.705 376.502 347.073 382.269 335.478C388.037 347.073 395.674 357.705 404.943 366.975C433.071 395.105 474.502 404.671 511.865 392.213C515.654 390.953 518.623 387.975 519.883 384.195C532.391 346.659 522.64 305.266 494.647 277.262C485.386 268.001 474.747 260.363 463.161 254.587ZM571.217 260.262C563.623 275.452 552.62 288.317 539.266 298.035C532.091 282.031 521.59 267.239 507.612 254.587C521.022 242.45 531.781 227.837 539.258 211.13C552.612 220.848 563.623 233.721 571.217 248.911C573.002 252.481 573.002 256.693 571.217 260.262ZM225.281 298.043C232.758 281.336 243.517 266.724 256.927 254.587C242.949 241.935 232.448 227.141 225.272 211.139C211.918 220.857 200.916 233.721 193.321 248.911C191.537 252.481 191.537 256.693 193.321 260.262C200.916 275.452 211.927 288.325 225.281 298.043ZM428.284 412.791C418.398 427.186 404.934 439.027 388.874 447.062C385.392 448.795 381.21 448.892 377.533 447.062C361.245 438.917 347.621 426.848 337.7 412.165C354.511 404.824 369.606 393.933 382.269 379.94C395.718 394.802 411.478 405.679 428.284 412.791ZM594.398 351.674C581.18 363.135 565.306 371 548.459 374.73C551.614 357.679 551.326 340.138 547.554 323.087C560.764 314.68 572.384 303.904 581.814 291.243C591.531 306.061 597.459 323.273 598.736 341.187C599.024 345.17 597.409 349.052 594.398 351.674ZM474.384 466.735C485.657 453.735 493.446 438.164 497.252 421.629C482.793 423.721 467.802 423.316 453.486 420.487C444.826 434.933 433.401 447.578 419.793 457.71C433.215 465.322 448.294 469.966 463.897 471.074C464.201 471.099 464.497 471.108 464.802 471.108C468.464 471.108 471.965 469.526 474.384 466.735ZM300.642 471.074C316.668 469.932 332.127 465.069 345.811 457.101C332.449 447.003 321.235 434.46 312.718 420.166C297.978 423.259 282.433 423.828 267.287 421.638C271.093 438.173 278.89 453.735 290.155 466.735C292.574 469.526 296.075 471.108 299.737 471.108C300.041 471.108 300.337 471.099 300.642 471.074ZM497.252 87.5358C482.09 85.3638 467.114 85.9542 453.216 88.7284C444.733 74.257 433.494 61.5449 420.072 51.3109C433.426 43.7918 448.395 39.1992 463.897 38.0997C467.88 37.8121 471.762 39.4276 474.384 42.4386C485.649 55.4383 493.446 71.0007 497.252 87.5358ZM170.141 353.256C183.444 364.792 199.427 372.684 216.401 376.38C212.908 358.813 213.094 340.679 216.993 323.087C204.036 314.849 192.611 304.336 183.283 291.987C173.236 306.991 167.096 324.516 165.802 342.768C165.515 346.752 167.13 350.634 170.141 353.256ZM598.736 167.987C597.459 185.901 591.531 203.112 581.814 217.93C572.384 205.261 560.764 194.494 547.546 186.087C551.318 169.044 551.614 151.494 548.459 134.443C565.306 138.173 581.18 146.039 594.398 157.499C597.409 160.121 599.024 164.003 598.736 167.987ZM182.725 217.93C192.154 205.269 203.774 194.494 216.984 186.087C213.212 169.036 212.933 151.486 216.079 134.443C199.233 138.173 183.359 146.039 170.141 157.499C167.13 160.121 165.515 164.003 165.802 167.987C167.079 185.901 173.007 203.112 182.725 217.93ZM344.212 254.587C344.212 233.603 361.287 216.526 382.269 216.526C403.251 216.526 420.326 233.603 420.326 254.587C420.326 275.571 403.251 292.647 382.269 292.647C361.287 292.647 344.212 275.571 344.212 254.587ZM369.584 254.587C369.584 261.59 375.267 267.273 382.269 267.273C389.272 267.273 394.955 261.59 394.955 254.587C394.955 247.584 389.272 241.9 382.269 241.9C375.267 241.9 369.584 247.584 369.584 254.587Z" fill="#FF3D68"/>
<path d="M283.579 446.307C268.518 446.427 256.679 447.097 246.655 448.51C222.554 451.908 208.225 459.887 201.878 474.939C198.638 482.623 200.198 489.264 206.148 494.435C211.256 498.876 219.567 502.233 230.879 504.692L231.511 504.827C250.862 508.936 278.339 510.422 313.183 509.899L315.325 509.865C331.693 509.583 348.477 508.911 368.679 507.824L388.792 506.684C395.859 506.277 403.139 505.858 405.731 505.72L409.236 505.539C416.681 505.168 421.48 505.031 424.442 505.123L427.763 505.249C475.78 507.007 513.251 504.606 537.359 498.945C548.356 496.363 556.224 493.161 560.624 489.517C565.389 485.571 566.211 480.821 562.679 476.627C551.658 463.542 533.57 456.148 504.346 452.208L502.836 452.008C478.556 448.857 448.356 447.889 390.967 447.851L382.709 447.843C371.542 447.811 360.851 447.658 346.66 447.354L311.75 446.56C301.301 446.342 295.425 446.274 288.876 446.284L283.579 446.307Z" fill="white"/>
<ellipse cx="382.536" cy="489.073" rx="180.201" ry="18.8112" fill="#E7EAEE"/>
<path fill-rule="evenodd" clip-rule="evenodd" d="M419.497 355.51C422.769 356.087 425.009 352.891 430.074 342.233L430.448 341.46L430.816 340.723C436.853 328.85 443.835 325.065 451.761 329.369L454.942 319.981L453.874 319.489L452.846 319.026C436.391 311.673 427.504 311.226 426.184 317.685L426.054 318.391L425.945 318.96C424.978 323.884 422.617 333.367 420.908 341.441L420.621 342.818C419.194 349.738 418.36 355.309 419.497 355.51Z" fill="white"/>
<path fill-rule="evenodd" clip-rule="evenodd" d="M384.455 260.291C384.455 260.291 408.511 263.48 420.678 262.927C432.845 262.375 450.638 257.287 450.638 257.287L450.215 272.652C450.215 272.652 506.976 271.506 498.404 318.007C492.759 348.635 449.561 336.04 449.561 336.04L457.823 318.007C457.823 318.007 483.734 319.881 474.299 311.998C472.548 310.535 461.359 308.517 446.634 308.911C433.987 309.25 423.001 305.46 421.858 302.058C417.572 289.303 423.795 282.593 423.795 282.593C423.795 282.593 417.776 285.523 418.918 292.647C420.06 299.771 411.647 445.637 411.647 445.637C411.647 445.637 404.037 446.986 400.209 446.986C396.382 446.986 391.114 445.637 391.114 445.637L384.455 260.291Z" fill="white"/>
<path fill-rule="evenodd" clip-rule="evenodd" d="M384.455 260.291C384.455 260.291 397.144 446.84 395.377 446.548C394.045 446.327 391.114 445.637 391.114 445.637L384.455 260.291Z" fill="#E7EAEE"/>
<path fill-rule="evenodd" clip-rule="evenodd" d="M394.904 448.511C395.738 455.851 394.178 458.793 394.385 458.793C397.785 458.793 399.816 458.725 405.27 458.301C405.27 458.301 404.965 455.139 404.965 453.652C404.965 451.876 405.27 448.511 405.27 448.511H394.904Z" fill="white"/>
<path d="M386.499 90.5441C386.499 90.5441 373.813 95.3082 373.813 86.3404C373.813 77.3727 383.6 81.8431 383.6 81.8431" fill="white"/>
<path d="M442.315 91.4799C444.978 92.0725 453.31 97.2685 453.31 84.6877C453.31 78.6837 443.796 83.0204 443.796 83.0204" fill="white"/>
<path d="M412.042 39.0108C401.561 40.0276 379.598 49.9942 383.597 78.4696C386.697 100.544 403.205 124.337 413.35 124.337C423.31 124.337 440.079 104.307 442.514 84.5864C447.486 44.3127 422.522 37.994 412.042 39.0108Z" fill="white"/>
<path fill-rule="evenodd" clip-rule="evenodd" d="M412.43 59.3879C412.987 58.0949 414.788 58.0088 415.466 59.2426C418.924 65.5352 422.798 69.9202 427.06 72.4304C431.365 74.9651 436.443 75.2153 441.623 72.8922C442.476 72.5099 443.477 72.8911 443.859 73.7436C444.241 74.5961 443.86 75.597 443.008 75.9792C436.834 78.7477 430.6 78.4406 425.344 75.3457C421.248 72.9335 417.559 69.1003 414.261 63.866L414.14 63.6714L414.032 63.883C411.368 68.9399 407.932 72.9786 403.725 75.9789L403.301 76.2755C398.005 79.9212 391.788 81.5421 384.712 81.1427C383.779 81.0901 383.066 80.2913 383.119 79.3585C383.171 78.4258 383.97 77.7123 384.903 77.765C391.25 78.1232 396.723 76.6961 401.384 73.4886C406.088 70.2502 409.769 65.5626 412.43 59.3879Z" fill="#E7EAEE"/>
<path fill-rule="evenodd" clip-rule="evenodd" d="M466.526 221.411C465.506 240.608 458.334 248.753 449.372 249.923C448.182 250.078 449.848 256.92 448.812 257.816C442.904 262.927 432.491 263.147 416.162 263.296C401.381 263.43 391.848 262.236 385.223 259.521C384.716 259.313 385.173 250.702 384.649 250.656C376.35 249.923 366.789 242.557 364.466 222.524C356.602 154.699 380.257 141.59 402.772 130.784C403.993 130.198 404.657 129.177 405.87 128.596C408.43 127.371 407.763 130.19 413.581 130.19C419.398 130.19 419.398 127.981 422.018 129.233C422.996 129.7 423.157 132.617 424.131 133.131C447.171 145.289 469.346 168.356 466.526 221.411Z" fill="white"/>
<path fill-rule="evenodd" clip-rule="evenodd" d="M424.131 133.131C454.556 144.143 468.688 173.57 466.526 221.412C463.935 278.772 398.793 227.422 420.51 178.007C425.684 166.234 432.481 216.08 432.556 216.291C434.288 221.192 439.579 224.994 444.929 227.026C444.929 227.026 447.324 192.477 443.161 176.187C439.246 160.865 424.131 133.131 424.131 133.131Z" fill="white"/>
<path fill-rule="evenodd" clip-rule="evenodd" d="M404.539 121.799C404.539 121.799 405.393 124.363 405.096 125.947C404.8 127.531 402.984 130.094 402.984 130.094C402.984 130.094 352.476 145.502 364.173 222.399C377.184 278.166 422.799 241.9 414.884 197.433C414.555 164.413 407.081 175.593 401.466 211.978C400.092 220.879 383.212 223.407 383.212 223.407" fill="white"/>
<ellipse cx="428.361" cy="100.232" rx="4.65138" ry="3.80603" fill="#FFB61D"/>
<ellipse cx="400.453" cy="100.232" rx="4.65139" ry="3.80603" fill="#FFB61D"/>
<path d="M405.144 105.365C405.346 104.453 409.509 105.169 410.681 106.727L411.042 107.21C412.134 108.656 412.799 109.113 414.207 109.113C416.006 109.113 416.619 108.79 417.641 107.451L417.914 107.083C419.102 105.457 423.291 104.276 423.609 105.154C423.927 106.033 423.472 107.003 422.594 107.32C421.936 107.559 421.561 107.871 420.919 108.712L420.617 109.118C418.862 111.523 417.402 112.496 414.207 112.496C411.613 112.496 410.111 111.524 408.508 109.464L407.977 108.76L407.737 108.448C407.209 107.779 406.887 107.509 406.512 107.402L406.431 107.382C405.519 107.18 404.943 106.277 405.144 105.365Z" fill="#00160A"/>
<path d="M408.43 80.2143C406.415 79.5977 404.578 79.4211 403.515 79.5501C402.372 79.6889 400.926 80.2785 399.593 80.8225C398.525 81.2581 397.529 81.6643 396.817 81.7865C396.11 81.9079 395.05 81.8684 394.016 81.8299C392.709 81.7813 391.446 81.7343 390.995 82.0157C390.188 82.5196 391.393 83.3338 392.098 83.4271C394.535 83.7497 396.31 83.8263 397.486 83.6383C398.529 83.4715 399.471 83.1827 400.75 82.6917L402.085 82.1837C402.973 81.8534 403.202 81.8001 403.515 81.793L403.736 81.7936C404.63 81.8159 405.948 82.0838 407.658 82.6068C408.336 82.8144 409.06 82.4472 409.273 81.7865C409.486 81.1258 409.109 80.4219 408.43 80.2143Z" fill="#00160A"/>
<path d="M413.416 98.3665C414.37 95.579 414.924 81.8473 413.873 81.8364C412.822 81.8255 411.961 82.6686 411.95 83.7195C411.935 85.1972 411.944 86.6146 411.953 87.9434C411.979 91.9318 412 95.123 411.333 96.7541L411.191 97.0908C410.33 99.2287 410.088 101.048 412.391 101.473C413.765 101.728 419.937 98.2266 419.581 97.2376C419.226 96.2485 418.136 95.735 417.147 96.0905L416.888 96.1826C416.3 96.3887 415.533 97.0313 414.841 97.6099C414.228 98.1239 413.674 98.5873 413.361 98.6492L413.312 98.6581L413.416 98.3665Z" fill="#00160A"/>
<path d="M421.229 80.2143C423.244 79.5977 425.082 79.4211 426.144 79.5501C427.288 79.6889 428.733 80.2786 430.067 80.8225C431.134 81.2581 432.13 81.6643 432.842 81.7865C433.549 81.9079 434.61 81.8684 435.644 81.8299C436.95 81.7813 438.213 81.7343 438.664 82.0157C439.471 82.5196 438.266 83.3338 437.561 83.4271C435.124 83.7497 433.35 83.8263 432.174 83.6383C431.13 83.4715 430.189 83.1827 428.909 82.6917L427.574 82.1837C426.686 81.8534 426.457 81.8001 426.144 81.793L425.924 81.7936C425.03 81.8159 423.711 82.0838 422.002 82.6068C421.323 82.8144 420.6 82.4472 420.386 81.7865C420.173 81.1258 420.55 80.4219 421.229 80.2143Z" fill="#00160A"/>
<path d="M432.117 89.7764C432.649 88.8697 432.344 87.7038 431.438 87.1723C431.118 86.9848 430.864 87.3407 430.48 87.88C429.774 88.8698 428.628 90.4775 425.824 90.4775C422.999 90.4775 421.84 88.8547 421.135 87.8674C420.759 87.3412 420.512 86.9955 420.211 87.1723C419.304 87.7038 419 88.8697 419.531 89.7764C420.872 92.0642 423.054 93.2544 425.824 93.2544C428.594 93.2544 430.776 92.0642 432.117 89.7764Z" fill="#00160A"/>
<path d="M407.826 87.2142C408.709 87.7833 408.964 88.961 408.395 89.8446C406.938 92.1066 404.61 93.2544 401.65 93.2544C398.668 93.2544 396.363 92.0856 395.007 89.7787C394.474 88.8727 394.269 87.6505 395.682 87.1736C396.3 86.9652 396.926 87.5681 397.699 88.313C398.696 89.2727 399.937 90.4683 401.721 90.4683C405.096 90.4683 406.291 88.7766 406.973 87.8113C407.317 87.3255 407.53 87.0236 407.826 87.2142Z" fill="#00160A"/>
<path fill-rule="evenodd" clip-rule="evenodd" d="M413.853 0.404523C403.191 2.30662 395.024 10.3857 393.429 22.321C393.353 22.8884 393.304 23.4418 393.28 23.9812C391.432 24.5608 385.958 26.328 386.108 26.8798C386.248 27.3934 391.103 26.239 393.291 25.6908C393.608 30.9238 396.564 34.6753 401.545 36.9705C402.813 37.5547 404.175 38.0344 405.623 38.4211C400.476 40.0425 395.214 43.0089 391.057 47.0845C383.377 54.6153 379.817 65.2372 381.712 78.7344C381.729 78.8561 381.747 78.978 381.765 79.0999C375.638 77.2124 371.91 79.7172 371.91 86.3407C371.91 92.9855 381.626 96.7199 385.735 94.0184C389.877 104.988 396.328 115.129 402.812 121C402.616 121.424 402.574 121.922 402.734 122.401C403.21 123.83 403.355 124.909 403.226 125.596L403.199 125.722C403.053 126.327 402.631 127.191 401.925 128.271L401.789 128.474L401.393 128.598C367.439 139.504 354.446 171.107 362.291 222.686L362.319 222.832L362.464 223.441C366.25 239.125 373.415 248.276 382.341 250.647C382.34 250.69 382.34 250.733 382.341 250.776C383.901 303.605 385.264 345.698 386.432 377.057L386.856 388.193L387.278 398.748C387.876 413.256 388.412 424.409 388.888 432.213L389.192 437.003C389.713 444.838 390.018 446.563 391.136 447.354L391.245 447.427L391.329 447.477C391.569 447.617 391.866 447.741 392.22 447.852C391.804 447.851 391.386 447.851 390.967 447.851L382.709 447.843C371.542 447.811 360.851 447.658 346.66 447.354L311.75 446.56C301.301 446.342 295.425 446.274 288.876 446.284L283.579 446.307C268.518 446.427 256.679 447.097 246.655 448.51C222.554 451.907 208.225 459.887 201.878 474.939C198.638 482.622 200.198 489.263 206.148 494.435C211.256 498.876 219.567 502.233 230.879 504.692L231.511 504.827C250.862 508.935 278.339 510.422 313.183 509.899L315.325 509.865C331.693 509.583 348.477 508.911 368.679 507.824L388.792 506.684C395.859 506.277 403.139 505.858 405.731 505.72L409.236 505.539C416.681 505.168 421.48 505.03 424.442 505.123L427.763 505.248C475.78 507.007 513.251 504.605 537.359 498.945C548.356 496.363 556.224 493.161 560.624 489.517C565.389 485.571 566.211 480.821 562.679 476.627C551.658 463.542 533.57 456.148 504.346 452.207L502.836 452.008C481.9 449.291 456.563 448.197 413.189 447.923L413.427 447.907C414.505 447.834 415.355 446.959 415.397 445.879L418.535 357.846C418.623 357.848 418.714 357.846 418.808 357.839C422.908 357.557 425.685 355.023 430.743 345.491L431.345 344.345L432.033 343.012C433.266 340.734 436.541 337.197 439.349 334.165L439.349 334.165C441.192 332.175 442.833 330.403 443.562 329.347C445.075 329.644 447.272 329.876 450.155 330.044L450.515 330.064L448.228 335.619L448.184 335.737C447.898 336.607 448.361 337.56 449.242 337.863C479.42 348.243 495.827 340.141 500.064 318.33C506.108 287.22 489.752 271.59 452.059 271.988L452.654 252.075C454.971 251.748 457.139 250.815 459.083 249.237C464.586 244.771 467.795 235.514 468.428 221.497C470.58 173.878 456.682 143.897 426.639 132.045L425.617 131.651L425.52 131.383C424.991 129.885 424.637 128.673 424.457 127.76L424.418 127.555C424.229 126.485 424.229 124.696 424.44 122.248C424.467 121.943 424.42 121.649 424.314 121.383C431.715 115.394 438.938 104.635 442.463 93.5078L442.553 93.5387C442.589 93.5514 442.627 93.5648 442.667 93.5788L444.29 94.1561C445.356 94.5146 446.248 94.7455 447.161 94.8654C452.167 95.5229 455.213 92.26 455.213 84.6881C455.213 81.8261 453.835 79.8461 451.26 79.3947C449.575 79.0996 447.46 79.49 444.834 80.5135C446.087 64.0551 442.232 52.2827 434.373 44.9255C431.412 42.1537 427.947 40.123 424.351 38.8113C427.694 37.9167 431.045 36.4029 433.649 34.3315C439.625 29.5789 441.51 22.4308 438.081 13.1475L449.735 10.5468L449.829 10.5144C450.22 10.3526 450.318 9.38175 450.318 8.6565C450.318 7.93125 449.723 7.10044 449.273 7.22796L437.351 11.3349C433.516 2.81971 423.851 -1.37908 413.853 0.404523ZM395.668 450.394L396.24 450.394C398.985 450.399 401.667 450.411 404.286 450.428C404.084 452.727 404.035 455.526 404.235 457.576H396.272C396.195 455.937 395.989 452.903 395.668 450.394ZM393.333 450.392C393.151 451.843 393.003 453.479 392.87 454.95C392.766 456.105 392.671 457.158 392.575 457.938C392.51 457.99 392.448 458.047 392.39 458.108C387.938 462.838 383.331 465.917 378.572 467.377L377.797 467.609C373.727 468.799 366.104 470.675 366.255 470.632C362.934 471.579 361.325 472.67 360.76 474.948C359.829 478.7 363.624 480.346 373.469 480.41L374.218 480.412C375.835 480.41 377.261 480.246 380.403 479.748L382.847 479.358C385.311 478.975 386.77 478.811 388.105 478.798L388.683 478.802C389.385 478.82 390.108 478.893 391.692 479.095L393.626 479.347C394.746 479.49 395.537 479.578 396.373 479.647C399.834 479.933 402.477 479.693 404.691 478.631C410.421 475.882 411.118 469.043 407.368 458.691C407.363 458.679 407.359 458.667 407.354 458.655C407.374 458.54 407.384 458.422 407.384 458.301V450.452C455.222 450.874 481.875 453.444 503.781 456.398L505.465 456.631C532.747 460.495 549.442 467.475 559.444 479.351C563.482 484.145 556.198 490.177 536.393 494.828C512.462 500.447 474.825 502.816 426.447 500.967L424.978 500.91C421.516 500.772 415.69 500.958 406.036 501.469L397.16 501.967C393.782 502.16 389.894 502.385 386.218 502.597C380.724 502.913 375.705 503.203 373.568 503.322L368.456 503.601C349.139 504.64 332.963 505.299 317.293 505.599L315.252 505.636C279.688 506.248 251.744 504.8 232.389 500.69C209.915 495.92 199.226 488.098 204.083 476.582C209.683 463.302 224.205 454.363 246.564 451.104L247.245 451.006C253.928 450.064 261.472 450.211 270.31 450.384C274.708 450.47 279.426 450.562 284.517 450.529L288.881 450.513C295.962 450.502 343.166 449.816 343.166 449.816C359.692 450.183 371.456 450.358 384.017 450.384L393.333 450.392ZM421.465 123.442C418.656 125.227 415.886 126.24 413.35 126.24C411.359 126.24 409.222 125.511 407.03 124.192C407.107 124.95 407.088 125.651 406.967 126.298C406.707 127.679 405.892 130.127 404.537 132.04C404.499 132.093 404.459 132.144 404.417 132.192C406.232 133.221 409.04 134.29 412.916 133.747C417.185 133.149 419.545 131.631 420.978 130.452C420.755 128.186 421.041 125.499 421.465 123.442ZM421.445 132.719C419.672 135.038 416.685 137.553 412.916 137.553C407.236 137.553 403.505 136.143 402.292 133.153C370.879 143.354 357.038 171.731 364.138 220.607L364.35 222.037L364.466 222.524C368.824 240.623 379.103 248.573 389.225 247.333L389.535 247.292C398.598 246.018 407.431 237.293 409.796 227.35L410.146 225.854C411.91 218.179 412.981 211.395 412.981 205.82L412.975 203.506C412.916 191.359 412.396 182.369 411.743 178.405L411.696 178.134L411.624 178.33C411.348 179.077 411.053 179.992 410.743 181.07L410.649 181.399C409.222 186.463 407.547 194.695 405.642 206.132C404.242 214.538 381.763 225.089 381.426 224.094C381.321 223.783 383.163 222.514 385.781 220.711L385.784 220.709L385.795 220.702C386.815 219.999 387.952 219.216 389.137 218.377C389.095 218.299 389.053 218.216 389.009 218.128C385.697 211.484 383.657 205.654 382.903 200.615C382.157 195.634 383.897 175.588 385.002 175.593L385.141 175.598C385.698 175.637 385.576 178.235 385.394 182.086C385.196 186.283 384.928 191.968 385.393 197.452C385.898 203.406 388.538 209.404 390.372 213.57C390.878 214.72 391.323 215.731 391.644 216.563C396.49 212.967 401.346 208.761 401.888 205.507L402.32 202.944C404.033 192.91 405.561 185.507 406.903 180.666L406.986 180.366C407.722 177.758 408.407 175.894 409.085 174.709C410.149 172.847 411.762 171.877 413.456 173.225C415.338 174.722 416.28 181.163 416.626 192.905C416.914 187.645 417.393 183.389 418.041 180.2C418.583 177.536 419.243 175.607 420.067 174.388C421.236 172.656 423.064 172.066 424.726 173.228L424.838 173.31C428.409 176.045 430.816 189.307 430.957 206.553L430.964 207.996L430.998 208.198C433.179 216.441 437.699 221.246 441.8 224.124C450.168 210.409 445.297 185.003 443.231 174.226C442.636 171.12 442.274 169.229 442.528 169.183C443.677 168.975 444.777 169.738 444.985 170.887C447.629 185.511 448.991 196.322 449.064 203.375C449.139 210.512 447.944 218.033 445.488 225.935C445.452 226.049 445.408 226.159 445.356 226.262C446.607 226.905 447.705 227.37 448.534 227.72C449.604 228.173 450.224 228.435 450.144 228.645C449.768 229.627 434.602 229.627 427.183 208.466C427.157 208.392 427.157 208.287 427.158 208.192L427.158 208.159C427.158 199.333 426.553 191.462 425.492 185.457C425.008 182.724 424.443 180.465 423.84 178.806L423.759 178.589C423.49 177.878 423.225 177.321 422.998 176.936L422.989 176.919L422.942 177.012C422.544 177.833 422.136 179.165 421.771 180.959L421.711 181.257C421.526 182.204 421.296 183.253 421.044 184.402C419.956 189.358 418.459 196.174 418.425 204.668L418.422 205.936C418.422 220.754 428.837 238.696 440.677 245.726C452.98 253.031 463.518 245.85 464.626 221.326C466.754 174.233 453.752 142.679 423.484 134.921C422.496 134.667 421.846 133.849 421.445 132.719ZM416.585 210.475C416.154 215.735 415.055 221.684 413.498 228.231C410.784 239.642 400.743 249.559 390.065 251.061C388.22 251.32 386.421 251.335 384.681 251.108C384.788 252.661 384.911 254.9 385.046 257.723C385.426 257.67 385.826 257.72 386.202 257.889C388.989 259.142 404.411 260.874 417.808 261.142L418.803 261.159C434.74 261.398 446.153 259.627 448.296 256.374L448.425 252.032C445.846 251.643 443.151 250.616 440.426 248.998C428.639 242 418.377 225.549 416.585 210.475ZM375.716 86.3407C375.386 81.4122 379.377 81.7358 382.323 82.2975C382.951 85.4199 383.824 88.5724 384.891 91.6788L384.741 91.6746C381.469 91.5838 376.057 91.4337 375.716 86.3407ZM444.599 83.0959C444.54 83.6652 444.474 84.2398 444.402 84.8198C444.143 86.9172 443.717 89.0427 443.148 91.166C446.961 91.6174 453.345 91.8667 452.153 83.3973C451.688 80.0989 447.438 81.8877 444.599 83.0959ZM412.781 37.0447C414.408 36.948 416.094 37.0057 417.8 37.2201C422.119 37.1671 428.582 35.1964 431.543 31.6836C443.16 17.9025 427.053 2.28984 414.542 4.3079C405.252 5.80648 396.486 12.3309 395.091 22.7692C394.421 27.7832 397.695 35.7683 412.781 37.0447ZM387.934 336.51C389.701 388.343 391.603 444.143 392.462 445.637C392.607 445.898 394.812 445.919 396.56 445.935L396.563 445.935H396.571C397.03 445.94 397.457 445.944 397.806 445.952L398.747 445.966L399.816 445.967C402.405 445.955 405.669 445.834 409.604 445.603L411.244 445.503L417.71 291.403C417.532 287.898 414.299 283.891 412.125 281.197C410.831 279.594 409.912 278.456 410.237 278.165C411.096 277.397 417.817 284.934 419.056 287.599C419.079 287.69 419.106 287.811 419.136 287.959C419.899 285.959 420.973 283.861 422.371 281.68C422.875 280.893 429.27 272.021 424.708 281.169C414.937 300.757 426.004 308.718 445.322 308.788L445.394 308.789L445.402 308.789C445.562 308.79 445.681 308.791 445.945 308.758C453.466 307.802 461.629 308.243 468.059 309.082C474.378 309.906 485.303 316.061 472.938 319.536C469.983 320.366 465.235 319.864 459.753 318.673L458.267 318.427L449.561 336.04L451.065 336.365C477.451 344.756 492.754 336.926 496.626 318.271L496.744 317.684C502.267 289.253 490.411 271.657 452.013 273.534L451.963 275.204C451.927 276.372 450.953 277.289 449.786 277.254C448.618 277.218 447.701 276.243 447.736 275.076L447.774 273.809C434.329 274.796 443.134 273.108 447.818 272.355L448.135 261.728C442.599 264.546 432.398 265.596 418.836 265.389L417.724 265.37C404.584 265.107 389.883 263.53 385.242 262.036C385.944 278.124 386.917 306.656 387.934 336.505L387.934 336.51ZM454.502 320.379L451.365 328C449.19 327.67 447.69 327.285 446.565 326.996C446.192 326.9 445.86 326.815 445.559 326.746C445.15 323.717 445.16 321.52 445.542 320.224C445.874 319.097 446.354 318.462 446.98 318.176C448.328 318.617 449.916 319.097 451.742 319.615L453.116 320L454.502 320.379ZM442.699 326.958C442.865 326.849 443.04 326.767 443.22 326.709C442.765 324.272 442.761 320.563 443.143 319.268C443.403 318.386 443.623 317.693 443.92 317.133C443.485 316.984 442.824 316.645 442.009 316.228C438.263 314.311 431.278 310.735 428.202 316.345C423.011 325.812 418.452 355.554 419.778 355.562C421.666 355.575 426.465 348.862 429.623 342.901L429.763 342.634L430.577 341.049C433.056 336.241 437.017 330.686 442.699 326.958ZM457.514 316.555C456.837 316.435 456.168 316.737 455.803 317.297C455.659 317.209 455.5 317.141 455.327 317.099L443.616 314.207L443.359 314.06C434.454 309.027 428.697 309.453 424.679 315.06C423.254 317.048 422.54 319.548 422.197 322.864L422.156 323.283L422.107 323.856C422.061 324.43 422.025 325.024 421.989 325.757L421.845 328.815L421.818 329.279C421.774 329.999 421.73 330.468 421.666 330.91L421.625 331.173L421.495 331.883L421.416 332.25C421.371 332.447 421.316 332.673 421.244 332.954L421.036 333.746L419.766 338.33C419.539 339.377 419.326 340.363 419.125 341.286L420.486 303.102C424.764 308.413 433.854 311.21 446.841 310.403L447.911 310.342C448.414 310.317 448.922 310.289 449.434 310.262L449.449 310.261L449.543 310.256L449.562 310.255C455.218 309.951 461.356 309.621 466.917 310.856C480.783 313.936 475.111 316.768 473.89 317.377L473.817 317.414L473.78 317.432L473.621 317.508C471.668 318.377 467.084 318.201 458.425 316.713L457.514 316.555ZM366.721 473.175L367.182 473.04C366.959 473.108 383.684 470.739 392.635 461.426C394.325 459.669 404.578 460.959 404.578 460.959L404.588 460.986C408.447 467.377 409.004 474.021 404.162 475.981C402.453 476.673 399.566 477.362 396.652 477.121L396.228 477.084L395.63 477.024C395.22 476.981 394.779 476.928 394.261 476.863L391.38 476.492C389.864 476.306 389.195 476.26 388.279 476.26C386.679 476.26 378.99 477.39 378.99 477.39C376.644 477.75 375.449 477.873 374.214 477.875C369.271 477.882 366.158 476.667 364.627 476.043L364.481 475.981C364.344 475.919 364.232 475.858 364.145 475.801L364.051 475.734L364.043 475.763C364.22 475.048 364.819 473.754 366.721 473.175ZM441.54 84.8198C442.023 80.9052 442.183 77.246 442.055 73.8444C436.195 76.1714 430.329 75.7442 425.344 72.8083C421.248 70.3961 417.559 66.563 414.261 61.3287L414.14 61.1349L414.031 61.3457C411.368 66.4026 407.931 70.4413 403.724 73.4416L403.301 73.7381C398.021 77.3723 391.827 78.9944 384.779 78.6091L384.807 78.7344C388.826 96.4261 402.794 123.684 413.581 124.337C417.707 124.587 423.694 117.922 429.245 110.697C435.239 102.896 440.44 93.7342 441.54 84.8198ZM431.772 47.7041C437.05 52.6451 440.777 60.1934 441.808 70.2844C441.746 70.304 441.684 70.3275 441.623 70.3548C436.443 72.6779 431.364 73.2735 427.06 70.7388C422.798 68.2286 418.924 62.9978 415.466 56.7053C414.788 55.4715 412.987 55.5576 412.43 56.8505C412.319 57.1074 412.198 57.3967 412.066 57.7138C410.537 61.3691 407.465 68.7169 400.8 72.5958C395.949 75.4195 388.79 76.1344 385.254 76.4875L385.25 76.4879L385.245 76.4884C384.929 76.5199 384.643 76.5485 384.39 76.5755C384.258 75.7523 384.159 74.9341 384.09 74.1221C388.13 73.3906 396.618 70.5947 400.031 68.4508C404.36 65.7314 405.686 62.9559 407.89 58.3417C408.293 57.4961 408.727 56.5884 409.214 55.6084C409.634 54.762 410.631 49.1223 408.268 53.4111C408.124 53.6716 407.972 53.9561 407.809 54.2614L407.808 54.2632L407.807 54.2643L407.807 54.2651C405.349 58.8607 400.355 68.1968 383.992 72.4554C383.674 62.9807 387.504 54.4905 393.104 49C398.333 43.8722 406.243 40.4818 412.253 39.8987C418.576 39.2853 426.22 42.5064 431.772 47.7041Z" fill="#00160A"/>
<path fill-rule="evenodd" clip-rule="evenodd" d="M260.59 343.253C259.578 332.461 254.556 321.778 246.597 314.444C240.803 309.103 232.498 304.63 224.749 308.455C212.827 315.571 209.626 330.175 210.828 343.253C212.318 359.461 219.888 369.455 234.432 375.424C242.627 378.787 248.074 383.223 252.522 390.954C256.08 397.135 258.155 404.875 262.626 410.479C269.311 418.856 277.677 422.58 287.988 421.188C290.032 421.188 296.615 427.319 298.672 431.032C304.045 440.73 308.657 450.969 310.773 461.918C311.391 465.114 310.954 477.067 313.135 479.374C317.123 483.594 315.955 475.468 315.716 473.016C313.736 452.705 306.445 435.402 295.859 418.327C299.111 414.08 299.581 403.269 298.559 399.859C295.859 389.286 262.629 364.978 260.59 343.253Z" fill="white"/>
<path fill-rule="evenodd" clip-rule="evenodd" d="M223.529 306.005L223.47 306.037C212.395 312.648 208.345 321.886 209.14 343.33C209.976 365.863 218.147 369.857 232.818 376.022L233.265 376.207C241.501 379.586 246.695 383.992 250.943 391.376L251.284 391.978C252.027 393.316 252.69 394.682 253.625 396.769L255.3 400.569C257.561 405.669 259.001 408.352 261.12 411.007C268.073 419.72 276.77 423.442 287.255 422.027L287.355 422.007L287.452 421.976C289.076 421.337 294.601 426.955 297.087 431.442C303.125 442.341 307.024 451.846 308.965 461.411L309.097 462.079C309.223 462.727 309.305 463.723 309.401 465.616L309.533 468.419C309.565 469.073 309.594 469.641 309.626 470.178L309.645 470.498C309.96 475.713 310.478 478.69 311.675 479.956C313.273 481.647 314.749 481.966 315.558 480.497C316.018 479.661 316.126 478.312 316.027 476.413L315.987 475.779C315.964 475.455 315.935 475.118 315.901 474.757L315.627 472.093C313.689 453.626 307.38 436.868 296.242 418.708L296.025 418.356L296.163 418.137C298.829 413.735 299.801 403.881 298.523 399.616C296.339 392.33 292.019 386.433 284.158 378.657L282.79 377.309C269.498 364.161 265.04 357.379 261.386 342.907L260.129 337.901L260.097 337.778C257.097 326.21 253.948 319.325 247.993 313.837C240.849 307.252 230.806 302.414 223.529 306.005ZM246.847 315.081C252.31 320.115 256.172 326.476 259.008 337.072L259.618 339.416L260.466 342.818C261.386 351.94 264.23 362.685 281.601 378.513L282.525 379.422C290.483 387.234 294.78 393.02 296.903 400.102C298.11 404.129 297.005 414.335 294.342 417.813C294.128 418.092 294.109 418.475 294.295 418.773C305.622 437.044 312.003 453.79 313.944 472.257L314.182 474.558L314.248 475.255C314.278 475.589 314.302 475.901 314.321 476.203L314.338 476.501C314.42 478.08 314.329 479.222 314.076 479.681L314.064 479.711L314.094 479.72C313.87 479.672 313.456 479.377 312.904 478.794C312.138 477.984 311.643 475.231 311.356 470.762L311.296 469.757L311.075 465.241C310.986 463.528 310.904 462.567 310.777 461.862L310.758 461.758C308.827 451.766 304.824 441.917 298.566 430.622L298.429 430.378C295.503 425.236 289.819 419.481 286.966 420.355L286.949 420.36L287.029 420.35C277.148 421.684 269.033 418.211 262.442 409.952C260.38 407.369 258.968 404.7 256.649 399.437L255.453 396.717C254.192 393.875 253.412 392.274 252.409 390.532C248.049 382.955 242.681 378.331 234.372 374.835L233.907 374.642C219.525 368.739 212.273 358.93 210.824 343.175L210.783 342.705C209.562 328.155 213.928 315.608 224.01 309.38L224.307 309.199L224.278 309.214C230.81 305.99 240.162 308.919 246.847 315.081Z" fill="#00160A"/>
<path fill-rule="evenodd" clip-rule="evenodd" d="M307.435 421.447C312.327 422.198 316.59 419.333 318.231 414.559C319.649 410.432 319.787 405.632 321.398 401.73C322.507 399.043 324.272 396.761 326.43 394.832C332.123 389.742 338.065 388.469 339.762 380.023C341.093 373.401 339.441 359.905 330.2 361.25C323.771 362.191 318.576 370.782 315.582 376.2C311.877 382.904 308.42 390.089 306.473 397.453C303.266 409.585 302.832 423.049 302.792 435.474C302.788 436.971 302.475 455.26 304.613 454.96C306.731 454.663 305.39 435.679 305.571 431.748" fill="white"/>
<path fill-rule="evenodd" clip-rule="evenodd" d="M237.837 319.967C236.209 320.802 236.528 323.49 238.477 328.287C240.429 333.093 243.308 336.712 246.249 338.358C249.258 340.041 252.005 339.347 252.765 336.395C253.45 333.732 248.764 327.066 243.788 322.66C241.199 320.366 239.177 319.279 237.837 319.967ZM242.667 323.926C246.66 328.755 251.582 335.047 251.127 336.819C250.681 338.552 249.212 338.923 247.075 337.727C244.499 336.286 241.399 332.194 239.581 327.721L239.314 327.048C237.652 323.844 237.657 320.952 238.609 320.626C239.515 320.316 241.48 322.491 242.667 323.926ZM321.637 372.501C320.973 370.685 322.969 368.449 326.651 366.838C330.605 365.108 333.176 364.983 333.164 367.137C333.155 368.591 331.193 370.624 328.2 372.451C325.166 374.304 322.333 374.404 321.637 372.501ZM331.448 367.251C331.38 367.242 331.296 367.236 331.192 367.237L331.082 367.24C330.971 367.245 330.836 367.241 330.673 367.237H330.673H330.673H330.673H330.673H330.673H330.673C329.659 367.208 327.573 367.149 323.672 369.084C322.836 369.499 322.301 371.704 322.38 371.92C322.571 372.443 325.064 373.23 327.318 371.854C328.258 371.28 329.082 370.267 329.753 369.444C330.035 369.097 330.29 368.784 330.515 368.551C331.021 368.026 331.329 367.573 331.433 367.298L331.448 367.251ZM325.065 383.697L324.656 384.359C322.868 387.277 321.787 389.344 321.352 390.65C320.772 392.395 321.393 393.629 323.009 393.101C324.482 392.619 327.32 390.233 330.851 386.75C333.707 383.932 335.136 379.648 334.04 377.596C332.551 374.807 329.077 377.246 325.065 383.697ZM332.548 377.547C333.224 378.813 332.044 383.196 329.663 385.546L328.863 386.326C328.243 386.926 327.577 387.599 326.918 388.267C324.892 390.318 322.918 392.316 322.443 391.967C321.891 391.561 323.689 387.753 325.656 384.59C327.552 381.54 330.038 378.726 331.295 377.843C332.113 377.269 332.406 377.282 332.548 377.547ZM309.039 409.787C308.559 412.977 308.988 415.358 310.599 415.687C312.254 416.027 314.013 413.821 315.974 409.323C317.846 405.029 317.357 400.961 314.907 400.344C312.381 399.708 310.086 403.23 309.089 409.462L309.039 409.787ZM314.494 401.984C315.588 402.26 316.155 405.129 314.74 408.811C313.628 411.704 310.599 418.574 309.797 413.196C309.675 412.377 309.675 411.307 309.866 410.038L309.968 409.398C310.84 404.274 313.375 401.703 314.494 401.984ZM221.419 356.592C217.277 352.073 214.824 346.443 216.863 343.98C219.291 341.044 230.499 351.199 230.353 356.271C230.268 359.231 228.979 360.75 226.845 360.362C225.262 360.074 223.334 358.68 221.419 356.592ZM218.159 344.221L218.101 344.298C216.991 345.907 218.288 351.595 221.82 355.448C223.506 357.288 226.018 359.338 227.148 359.543C228.091 359.715 228.603 359.111 228.662 357.068C228.716 355.192 226.628 351.267 223.571 348.497C223.233 348.191 222.829 347.778 222.391 347.33C221.062 345.973 219.418 344.294 218.341 344.28C218.169 344.278 218.132 344.26 218.159 344.221ZM218.159 344.221L218.166 344.212C218.163 344.215 218.161 344.218 218.159 344.221ZM267.111 405.917C268.056 410.023 269.922 412.696 272.449 414.162C274.162 415.155 275.752 415.447 277.575 415.447C281.486 415.447 283.3 413.705 282.619 410.875C282.109 408.753 280.145 406.116 277.529 403.817C274.921 401.525 272.123 399.971 270.09 399.844C267.311 399.67 266.191 401.915 267.111 405.917ZM269.984 401.532C271.557 401.63 274.06 403.021 276.413 405.088C278.791 407.178 280.563 409.557 280.975 411.271C281.369 412.911 280.49 414.601 277.575 414.601C276.023 414.601 274.702 414.359 273.297 413.544C271.19 412.322 268.757 409.202 267.914 405.537C267.213 402.49 268.58 401.444 269.984 401.532ZM274.17 388.544C270.669 385.635 268.994 382.578 270.003 380.895C271.151 378.979 274.159 380.225 277.207 383.574C279.113 385.668 281.782 389.292 282.57 391.083C282.891 391.812 283 392.355 282.755 392.852C282.384 393.602 281.644 393.622 280.78 393.268C279.677 392.816 277.811 391.52 275.055 389.272L274.17 388.544ZM272.438 381.903C272.067 381.749 271.772 381.694 271.58 381.717C271.49 381.728 271.468 381.741 271.454 381.765C271.432 381.801 271.394 381.848 271.347 381.905L271.347 381.905C271.11 382.196 270.654 382.755 271.05 383.476C271.672 384.611 273.655 386.762 275.251 388.089C277.383 389.86 279.617 391.103 280.947 391.843L280.947 391.844L280.947 391.844L280.948 391.844C281.196 391.982 281.413 392.103 281.592 392.206L281.705 392.27L281.58 392.034C280.661 390.356 277.725 386.698 276.144 384.921L275.956 384.712C274.627 383.253 273.402 382.302 272.438 381.903ZM237.02 365.671C236.012 367.354 237.687 370.41 241.188 373.32L242.072 374.048C244.829 376.296 246.694 377.592 247.798 378.044C248.662 378.398 249.401 378.378 249.772 377.628C250.018 377.131 249.909 376.588 249.588 375.858C248.8 374.068 246.13 370.444 244.224 368.35C241.177 365.001 238.169 363.755 237.02 365.671ZM238.597 366.493C238.79 366.47 239.085 366.525 239.455 366.679C240.42 367.078 241.645 368.029 242.973 369.488L243.161 369.697C244.742 371.474 246.832 375.132 247.752 376.81L247.876 377.045L247.764 376.982C246.628 376.326 244.799 374.968 242.269 372.865C240.672 371.538 238.689 369.387 238.067 368.252C237.672 367.531 238.128 366.972 238.364 366.681L238.364 366.681C238.411 366.624 238.45 366.577 238.471 366.541C238.485 366.517 238.507 366.504 238.597 366.493ZM258.102 368.245C254.601 365.336 252.926 362.279 253.934 360.597C255.083 358.68 258.091 359.927 261.138 363.275C263.044 365.369 265.714 368.994 266.502 370.784C266.823 371.513 266.932 372.057 266.686 372.553C266.315 373.303 265.576 373.324 264.712 372.969C263.609 372.517 261.743 371.221 258.986 368.973L258.102 368.245ZM256.37 361.604C255.999 361.45 255.704 361.396 255.511 361.418C255.421 361.429 255.399 361.443 255.385 361.466C255.381 361.473 255.377 361.48 255.372 361.488C255.228 361.727 254.798 362.437 255.257 363.275C255.879 364.41 257.698 367.284 258.337 367.79C260.236 369.293 262.617 370.459 264.195 371.231C264.761 371.508 265.224 371.734 265.524 371.907L265.636 371.971L265.511 371.735C264.592 370.057 261.656 366.399 260.075 364.623L259.887 364.414C258.559 362.954 257.334 362.004 256.37 361.604Z" fill="#FFB61D"/>
<path fill-rule="evenodd" clip-rule="evenodd" d="M330.078 360.413C334.747 359.734 338.874 362.434 340.59 367.371C341.938 371.25 341.357 376.38 340.592 380.189C339.61 385.075 337.565 387.686 333.062 390.919L330.355 392.819C329.42 393.485 328.653 394.064 327.92 394.668C327.601 394.93 327.293 395.194 326.994 395.462C324.815 397.41 323.191 399.605 322.18 402.053L322.042 402.397C321.506 403.769 321.167 405.13 320.678 407.669L320.259 409.89C319.833 412.099 319.513 413.43 319.031 414.834C317.18 420.217 313.272 423.069 308.152 422.283C307.69 422.212 306.173 422.326 309.572 421.638C312.971 420.949 315.829 418.945 317.431 414.284C317.882 412.972 318.188 411.699 318.6 409.557L319.022 407.324C319.571 404.476 319.944 403.036 320.616 401.407C321.729 398.711 323.506 396.311 325.866 394.201C326.184 393.917 326.509 393.639 326.845 393.362C327.517 392.809 328.211 392.279 329.02 391.695L329.843 391.111C330.525 390.632 331.564 389.908 331.774 389.759L332.359 389.34C336.342 386.435 338.916 384.151 339.779 379.856C340.486 376.335 339.392 371.51 338.147 367.926C336.671 363.68 334.071 360.696 330.322 361.241C324.802 362.049 311.099 382.11 307.31 394.392C304.193 404.497 303.401 420.011 303.608 433.94L303.641 435.925L303.637 438.661C303.638 440.879 303.66 442.731 303.719 444.659L303.734 445.142C303.827 447.93 303.988 450.219 304.229 451.867C304.308 452.41 304.396 452.875 304.489 453.253L304.536 453.438L304.562 453.323C304.667 452.816 304.753 452.151 304.818 451.344L304.839 451.069L304.877 450.487C304.981 448.686 305.002 446.381 304.958 443.502L304.919 441.491C304.902 440.752 304.881 439.957 304.855 439.033L304.714 433.719C304.698 432.893 304.699 432.46 304.712 432.057L304.775 430.517C304.821 429.267 304.849 427.967 304.881 425.903L304.929 422.911C305.057 416.072 305.307 412.666 306.122 408.478C306.245 407.847 306.379 407.223 306.525 406.608C308.659 397.621 313.252 391.152 317.696 383.225C319.031 380.845 326.035 377.2 326.1 377.662C326.164 378.125 320.102 380.861 318.262 383.922C314.348 390.432 310.257 398.214 308.171 406.999C308.03 407.592 307.9 408.192 307.782 408.801L307.628 409.625C306.958 413.341 306.738 416.668 306.62 422.96L306.532 428.201C306.51 429.267 306.485 430.116 306.45 430.979L306.399 432.235C306.388 432.699 306.393 433.27 306.423 434.494L306.602 441.131C306.618 441.782 306.63 442.385 306.641 442.987L306.669 444.927C306.748 452.452 306.398 455.564 304.731 455.797C303.426 455.981 302.935 454.71 302.555 452.112C302.318 450.49 302.158 448.317 302.061 445.695L302.044 445.199C301.973 443.073 301.947 441.084 301.945 438.667L301.947 435.495C301.589 421.021 303.247 404.565 306.54 393.893C310.509 381.025 323.675 361.35 330.078 360.413Z" fill="#00160A"/>
<ellipse cx="304.465" cy="463.497" rx="32.9826" ry="24.5278" fill="white"/>
<ellipse cx="291.361" cy="463.497" rx="19.8782" ry="24.5278" fill="#E7EAEE"/>
<path fill-rule="evenodd" clip-rule="evenodd" d="M337.448 437.912H271.483C270.899 437.912 270.426 438.385 270.426 438.969C270.426 457.038 272.131 468.287 276.661 476.098C281.769 484.905 290.57 489.082 304.465 489.082C318.36 489.082 327.162 484.905 332.27 476.098C336.8 468.287 338.505 457.038 338.505 438.969C338.505 438.385 338.032 437.912 337.448 437.912ZM274.233 440.026H335.542L335.542 440.269C335.461 457.227 335.471 467.823 331.287 475.037C326.593 483.13 317.66 487.813 304.465 487.813C291.27 487.813 283.183 482.284 278.49 474.191L278.332 473.916C274.318 466.804 274.358 457.293 274.238 440.936L274.233 440.026Z" fill="#00160A"/>
</svg>
