<svg width="588" height="471" viewBox="0 0 588 471" fill="none" xmlns="http://www.w3.org/2000/svg">
<path fill-rule="evenodd" clip-rule="evenodd" d="M338.432 471C408.826 471 470.601 418.762 435.908 347.811C401.215 276.859 530.121 279.15 567.986 230.113C614.165 170.31 600.792 -83.5438 304.342 71.218C256.855 96.0091 134.896 45.7139 94.4413 70.6694C46.8225 100.045 -20.1744 160.195 46.8225 221.811C79.8239 252.162 -38.4938 330.939 13.327 401.503C63.8911 470.355 99.3356 404.719 176.319 418.762C253.302 432.806 286.152 471 338.432 471Z" fill="#FF3D68"/>
<path d="M256.727 347.564C256.727 347.564 272.936 339.958 278.987 334.667C285.038 329.375 292.561 316.228 292.561 316.228C292.561 316.228 375.195 375.763 429.075 367.27C441.489 365.314 465.679 357.082 467.221 342.577C471.434 302.972 413.154 292.85 425.885 272.766C433.655 260.506 457.795 278.752 457.795 278.752L557.918 327.882C557.918 327.882 523.328 412.943 439.387 416.351C336.128 420.545 256.727 347.564 256.727 347.564Z" fill="white"/>
<path fill-rule="evenodd" clip-rule="evenodd" d="M177.346 14.4478C176.406 14.0797 171.359 7.91507 164.952 6.79307C162.041 6.28321 164.683 9.98159 161.479 10.0149C151.936 10.114 136.427 8.32538 133.554 10.0149C131.419 11.2665 136.122 15.6392 133.554 15.8399C109.333 17.7339 72.3818 41.8601 64.3648 53.5649C61.8134 57.2899 82.4483 50.97 79.1606 52.8115C75.4705 54.8784 71.3779 68.4122 68.931 78.8649C67.237 86.0629 66.1704 95.3263 65.794 105.403C65.4803 114.104 65.6058 115.543 66.8606 120.3C68.3036 125.62 69.433 127.185 71.3779 126.434C72.0681 126.184 72.3818 125.245 72.3818 123.492C72.3818 122.115 73.1347 117.984 74.0758 114.291L75.7071 107.657L76.3972 110.411C77.2756 113.603 82.4204 123.492 87.0632 130.69C87.3136 131.072 88.391 130.586 89.3625 128.244C90.2478 126.109 89.8885 122.699 91.3924 119.044C94.8181 110.718 101.545 99.8936 109.333 91.2289C120.844 78.4231 124.663 63.6029 135.453 51.7063C155.59 29.5049 180.864 15.8255 177.346 14.4478Z" fill="white"/>
<path fill-rule="evenodd" clip-rule="evenodd" d="M79.4468 55.8323C76.2165 58.4236 71.4216 79.4423 71.3394 79.7936C69.6454 86.9916 68.0124 111.987 69.6816 116.72C71.3507 121.452 76.0246 104.393 76.0246 104.393C76.0246 104.393 83.089 122.693 89.3311 127.711C89.5978 127.925 81.9115 105.069 79.4468 91.7269C76.1932 74.114 81.2852 54.3575 79.4468 55.8323Z" fill="#E7EAEE"/>
<path fill-rule="evenodd" clip-rule="evenodd" d="M199.846 423.944C205.869 422.629 216.032 418.052 219.923 416.487C223.814 414.922 235.671 398.219 239.938 379.379C243.012 365.484 244.581 345.705 242.824 342.388C242.564 341.917 241.615 332.923 244.142 335.86C249.757 342.388 256.423 352.636 277.456 334.272C283.185 329.27 290.778 322.815 288.779 317.108C283.185 301.141 258.937 268.99 255.24 266.555C250.821 263.643 228.481 266.117 195.235 256.328C157.532 245.227 141.832 212.536 127.078 216.791C115.146 220.233 86.5574 241.381 79.3826 254.774C45.5105 318.001 86.5574 362.305 95.9052 375.03L104.981 378.941L105.295 387.015L105.734 392.085C106.55 401.786 106.864 402.663 111.256 405.917C122.235 414.242 143.881 422.003 163.456 424.757C172.554 426.009 192.317 425.571 199.846 423.944Z" fill="white"/>
<path fill-rule="evenodd" clip-rule="evenodd" d="M108.551 384.059L108.99 389.129C109.806 398.831 110.12 399.707 114.512 402.962C120.989 407.873 131.178 412.588 142.464 416.194C150.31 418.701 158.685 420.672 166.712 421.802C175.81 423.054 195.573 422.615 203.102 420.988C206.824 420.184 176.212 396.192 158.179 402.962C144.331 408.161 111.69 368.506 124.961 358.146C139.849 346.524 112.568 300.686 111.69 290.734C110.811 280.783 107.352 278.405 107.251 278.754C107.15 279.104 107.15 280.294 107.422 283.163C108.592 295.528 108.551 384.059 108.551 384.059Z" fill="#E7EAEE"/>
<path fill-rule="evenodd" clip-rule="evenodd" d="M105.283 287.894C106.6 287.638 107.876 288.496 108.132 289.81C112.867 314.079 132.897 330.509 168.713 339.101C204.741 347.744 229.283 347.278 242.213 338.052C243.305 337.274 242.491 343.943 241.692 344.454C233.258 349.849 204.584 357.9 170.365 350.624C126.614 341.32 106.071 304.619 103.362 290.736C103.106 289.422 103.965 288.149 105.283 287.894Z" fill="#FFB61D"/>
<path fill-rule="evenodd" clip-rule="evenodd" d="M87.0377 244.106C88.2024 243.441 131.658 293.126 191.293 304.372C250.929 315.618 265.368 308.466 267.689 293.126C267.889 291.802 269.127 290.891 270.454 291.091C271.781 291.29 272.694 292.525 272.494 293.849C269.552 313.29 241.958 317.915 190.476 309.151C139.641 300.497 104.788 279.936 86.1354 247.414C85.469 246.252 85.8729 244.771 87.0377 244.106Z" fill="#FFB61D"/>
<path fill-rule="evenodd" clip-rule="evenodd" d="M337.338 241.351C335.707 240.788 333.95 239.536 332.82 238.096L330.938 235.78L337.589 229.208C347.816 219.194 355.658 208.929 362.434 196.724C364.693 192.655 370.402 179.073 370.402 177.759C370.402 177.321 371.093 175.568 371.908 173.753C373.163 171.124 374.104 170.123 376.802 168.62C380.002 166.743 383.641 166.117 385.209 167.181C388.221 169.184 388.221 175.505 385.209 186.396C381.884 198.351 377.429 206.926 368.207 219.256C366.763 221.134 364.066 224.827 362.121 227.393C356.913 234.278 353.525 237.596 348.945 240.162C344.428 242.665 341.792 242.978 337.338 241.351ZM382.386 235.718L386.903 237.721C387.84 238.152 398.174 243.105 410.586 249.055C430.598 258.648 456.015 270.831 456.17 270.831C456.421 270.831 457.598 268.115 457.864 264.948C458.491 258.125 460.812 248.862 463.51 242.415C464.765 239.536 465.769 235.938 465.769 235.625C465.769 235.482 464.749 235.071 463.079 234.399C461.091 233.599 458.183 232.429 454.978 230.898C439.167 223.325 408.235 207.865 404.408 205.549C400.644 203.358 399.891 203.171 399.891 204.61C399.891 206.488 396.064 215.188 393.115 219.882C391.546 222.449 388.472 227.08 386.276 230.147L382.386 235.718ZM455.103 259.565C456.902 260.605 453.785 262.131 453.033 262.382C448.6 262.757 443.38 261.925 439.104 259.44C436.868 257.858 419.263 248.101 407.584 241.628C402.245 238.669 398.145 236.397 397.318 235.906C394.683 234.341 392.174 232.651 391.734 232.15C390.417 230.46 391.672 229.709 395.373 230.022C397.599 230.21 451.217 257.318 455.103 259.565ZM200.06 423.428C204.9 422.372 212.412 419.209 217.196 417.195L217.202 417.193L217.223 417.184C218.382 416.696 219.379 416.276 220.137 415.971C224.028 414.406 235.885 397.703 240.152 378.863C243.226 364.968 244.795 345.189 243.038 341.872C241.979 339.951 248.271 346.396 252.958 351.196L252.96 351.198L252.98 351.218L252.983 351.222C254.393 352.666 255.657 353.96 256.527 354.828C283.882 381.93 324.601 403.712 366.889 413.914C387.97 419.047 402.965 420.862 423.105 420.862C456.922 420.862 483.587 414.227 507.806 399.644C508.956 398.951 510.034 398.314 511.062 397.707C519.504 392.721 524.533 389.751 538.298 374.294C553.738 356.957 567.472 316.711 572.053 302.815C574.06 296.556 578.954 271.661 578.954 265.449C578.954 258.093 576.382 254.62 572.868 251.053C566.657 244.981 558.249 242.791 551.285 245.419L548.023 246.671L547.019 243.354C545.576 238.347 542.564 234.341 537.921 231.336C531.02 226.767 530.016 226.454 523.805 226.454C518.973 226.454 517.656 226.705 514.582 228.144L511.005 229.772L510.252 227.518C508.809 222.887 503.969 216.43 500.214 214.562C496.883 212.906 491.118 212.754 487.101 213.498C478.317 215.125 472.043 219.194 469.471 224.89C468.718 226.642 467.777 228.019 467.4 228.019C467.087 228.019 454.727 224.575 439.982 218.066C437.518 216.974 435.201 215.95 433.024 214.987L432.965 214.961C406.488 203.254 400.75 200.716 401.271 197.537C401.71 194.846 401.585 193.344 400.832 191.028C399.514 187.147 398.009 186.083 393.742 186.083C390.354 186.083 390.354 186.083 390.731 184.393C392.738 174.817 392.676 169.309 390.542 165.804C389.099 163.488 387.405 162.549 383.515 161.986C381.257 161.673 380.19 161.861 377.68 163.238C375.986 164.114 374.543 164.74 374.418 164.615C374.292 164.489 374.732 161.047 375.422 156.978C380.566 126.872 376.592 100.933 363.479 73.3926C363.356 73.1346 363.214 72.8303 363.052 72.4828L363.046 72.4706L363.041 72.4609C359.055 63.923 343.026 29.5914 297.183 12.2681C295.108 11.484 293.145 10.7259 291.258 9.9972C275.642 3.96732 265.261 -0.041278 240.214 0.000320714C212.141 0.0469464 202.632 4.00614 184.124 12.4559C181.551 13.6451 179.293 14.3336 179.105 14.0833C178.916 13.7703 177.724 13.0192 176.532 12.3933C175.34 11.7674 172.768 10.2026 170.885 8.95083C165.49 5.32055 162.164 3.81837 160.47 4.19391C158.525 4.69464 158.525 6.32201 160.47 7.0731C161.286 7.38605 162.227 8.4501 162.604 9.51414C163.419 11.7674 164.36 12.0178 164.925 10.1401C165.176 9.45155 165.552 8.95083 165.741 9.07601C165.812 9.11162 166.051 9.22322 166.416 9.39351C167.333 9.82182 169.045 10.6214 170.885 11.5171C173.458 12.7689 176.281 14.0833 177.034 14.3962C178.414 14.897 177.975 15.2725 172.015 18.7776C148.738 32.4224 129.79 53.6408 119.187 77.8009C117.555 81.4311 116.112 83.6844 114.607 84.9362C110.779 88.1284 103.25 97.2041 101.494 100.772C100.553 102.712 98.5449 105.716 96.9763 107.469C95.4706 109.222 93.8393 111.475 93.2746 112.414C92.7727 113.415 92.2708 114.104 92.0825 113.978C91.957 113.791 92.1453 110.724 92.5845 107.156C93.5256 98.8314 93.5256 96.6407 92.7727 96.453C91.6433 96.14 90.0121 100.521 89.3219 105.967C88.82 109.284 88.6945 114.291 89.0082 119.424L89.3847 127.561L84.93 120.363C83.3958 117.952 81.8851 115.542 80.8134 113.832C80.1324 112.745 79.6282 111.94 79.4088 111.6C77.7775 109.222 76.8364 105.654 77.5266 104.465C77.903 103.776 77.8403 103.463 77.2129 103.463C75.8953 103.463 73.3229 107.657 71.6289 112.476C70.8133 114.73 69.9976 116.607 69.7467 116.607C68.8056 116.607 69.2448 94.1997 70.2486 87.0017C72.3191 72.7936 77.7775 55.2681 80.2245 55.2681C80.7264 55.2681 81.1656 55.0178 81.1656 54.6422C81.1656 53.5156 79.5343 53.9537 78.2167 55.3933C75.2679 58.5855 71.3779 68.4122 68.931 78.8649C67.237 86.0629 66.1704 95.3263 65.794 105.403C65.4803 114.104 65.6058 115.543 66.8606 120.3C68.3036 125.62 69.433 127.185 71.3779 126.434C72.0681 126.184 72.3818 125.245 72.3818 123.492C72.3818 122.115 73.1347 117.984 74.0758 114.291L75.7071 107.657L76.3972 110.411C77.2756 113.603 82.4204 123.492 87.0632 130.69C90.263 135.572 90.3258 135.885 91.3924 143.521C91.9571 147.84 93.7138 158.345 97.792 174.504C101.395 188.781 121.652 202.945 126.71 206.481L126.712 206.482C127.377 206.948 127.779 207.229 127.845 207.302C128.472 207.99 129.351 208.366 129.853 208.178C130.417 207.99 130.731 208.24 130.731 208.929C130.731 209.555 131.17 210.369 131.672 210.744C132.3 211.182 132.739 212.872 132.864 215.814C133.178 221.697 137.57 232.964 140.958 236.657C143.154 239.035 147.734 240.037 152.816 239.16C156.141 238.66 157.082 238.284 156.769 237.533C156.58 237.032 157.773 237.658 159.404 238.91C178.477 253.431 197.801 262.131 219.51 265.887C227.917 267.326 241.846 268.14 249.437 267.577C254.305 267.259 255.643 267.172 255.892 267.649C255.986 267.83 255.923 268.092 255.837 268.453C255.398 270.205 255.962 271.27 265.185 286.855C272.526 299.185 273.154 299.999 281.31 308.323C298.626 326.162 317.512 339.994 338.906 350.697C359.046 360.712 391.201 369.037 420.595 371.665C449.99 374.294 471.102 347.38 471.039 340.495C470.914 331.044 469.596 324.847 466.396 318.839C463.259 313.018 461.189 311.015 451.778 304.756C441.3 297.808 434.838 292.112 430.571 286.041C427.873 282.223 426.869 277.904 426.869 275.588C426.869 274.086 428.814 270.706 431.701 270.018C434.336 269.329 434.838 269.392 437.786 270.831C439.543 271.645 444.123 273.773 447.888 275.588C451.715 277.341 455.417 279.093 456.17 279.469C458.389 280.084 459.328 284.419 459.836 286.768C459.95 287.293 460.042 287.718 460.122 287.981C461.001 291.236 465.158 295.438 467.839 296.869C472.549 299.382 484.153 299.718 487.353 296.275C488.169 295.399 490.873 294.321 491.43 294.648C491.987 294.974 494.003 297.683 494.003 299.874C494.065 303.629 496.01 307.072 500.151 310.514C507.994 317.023 514.08 318.588 520.228 315.709C523.428 314.207 526.051 313.62 526.051 313.62C526.051 313.62 528.666 316.949 528.824 318.088C530.056 326.981 543.254 330.709 546.767 331.084C547.573 331.164 549.14 330.821 550.732 330.472C552.86 330.005 555.032 329.529 555.489 330.042C556.385 331.051 540.494 357.269 538.298 360.587C517.405 391.882 476.749 411.035 426.995 413.038C394.683 414.352 354.968 405.339 320.523 388.941C298.501 378.363 278.988 365.406 258.096 347.255C254.457 344.125 250.253 340.558 248.747 339.306C247.241 338.117 243.665 334.048 240.905 330.293C236.262 324.034 233.627 321.78 233.627 323.908C233.627 324.847 236.638 330.606 240.089 336.302C241.469 338.555 242.348 340.12 242.034 339.869C241.72 339.619 240.716 344.125 239.775 349.884C236.701 368.348 231.619 386.562 226.474 397.891C223.651 404.025 218.237 408.606 216.606 409.857C210.583 414.427 201.566 416.481 189.08 417.732C173.27 419.297 149.993 415.792 132.237 409.157C127.531 407.405 115.422 402.335 114.607 401.772C114.558 401.723 114.28 399.927 113.893 397.42L113.893 397.416L113.893 397.415L113.892 397.411L113.892 397.41L113.724 396.326C113.665 395.94 113.603 395.543 113.54 395.137C111.281 379.677 108.144 320.153 108.144 292.613C108.144 281.221 108.019 278.718 107.266 278.718C105.697 278.718 105.07 280.22 104.38 285.603C102.811 297.871 103.125 361.901 104.819 375.358L105.195 378.425L103.062 377.236C99.7997 375.358 87.3769 362.777 83.0478 356.957C79.3828 351.98 77.2046 345.607 75.5749 340.838C75.1958 339.729 74.8465 338.707 74.515 337.81C65.4175 312.648 68.6173 284.414 81.1656 259.002C91.8316 237.345 104.944 225.328 124.143 219.507C127.28 218.568 130.041 217.566 130.355 217.316C131.547 216.189 123.892 216.753 119.689 218.067C106.011 222.261 91.7061 233.715 81.9812 248.361C68.3036 268.891 62.155 299.185 66.4841 325.035C67.488 331.169 71.5662 344.438 72.6955 345.377C72.7955 345.477 73.3115 346.557 74.0919 348.19C76.2499 352.706 80.4292 361.453 83.4243 365.406C87.0632 370.351 98.043 381.117 102.623 384.434L105.509 386.499L105.948 391.569C106.764 401.271 107.078 402.147 111.47 405.402C122.449 413.727 144.095 421.488 163.67 424.242C172.768 425.494 192.531 425.055 200.06 423.428ZM412.125 364.655C375.673 361.463 331.628 344.124 299.756 317.335C286.329 306.006 268.887 283.975 261.986 271.77C260.543 269.267 259.476 268.077 258.221 267.764C256.904 267.389 258.033 267.013 263.429 266.137C286.204 262.256 308.351 252.805 326.233 239.348L328.868 237.408L329.621 239.223C331.315 243.291 337.84 247.422 342.671 247.422C344.616 247.422 351.141 244.481 355.094 241.789L357.791 239.974L359.987 242.165C361.995 244.168 362.372 244.293 366.136 244.293C370.465 244.293 375.673 242.353 378.559 239.598L380.127 238.159L384.582 241.101C386.966 242.791 393.617 246.484 399.326 249.425C407.859 253.807 416.894 258.876 425.489 264.134L426.87 265.01L425.552 266.763C424.172 268.641 421.6 272.208 421.6 277.654C421.6 283.788 427.994 294.808 440.233 302.377C449.849 308.323 466.396 320.019 465.769 337.115C465.693 339.18 463.385 344.313 460.311 348.945C458.303 351.887 452.719 356.268 447.637 358.834C438.979 363.153 423.732 365.657 412.125 364.655ZM77.5893 83.6844C79.2833 84.06 80.4127 84.6233 80.1617 84.8736C79.3461 85.6873 75.0169 85.3118 74.0131 84.3103C72.4445 82.8082 72.821 81.7441 75.0169 81.306C76.1463 81.1182 77.8403 80.1793 78.7814 79.2405C79.7225 78.3016 80.5381 77.8635 80.5381 78.1764C80.5381 78.9901 77.4011 81.8693 75.8326 82.4952C74.8287 82.9333 75.1424 83.1211 77.5893 83.6844ZM102.56 84.6859C104.38 83.6844 104.003 82.9959 101.87 83.3089C99.737 83.6218 99.6115 83.3715 100.992 81.2434C101.556 80.4297 101.87 79.2404 101.745 78.6145C101.556 77.8008 101.117 78.1764 100.113 80.1793C99.3605 81.6189 98.2939 82.8081 97.792 82.8081C96.2234 82.8081 96.098 84.06 97.6038 84.6233C99.5487 85.437 101.055 85.437 102.56 84.6859ZM80.8519 50.5112C79.3461 50.7616 74.6405 52.6393 70.4996 54.7048C66.2959 56.7077 62.7197 58.3977 62.4687 58.3351C56.0691 57.6466 64.9783 47.0061 81.1656 36.1153C96.6626 25.6626 107.14 20.1546 116.865 17.338C122.951 15.5855 129.79 15.3351 131.735 16.7747C132.802 17.5884 132.425 17.651 127.782 17.7136C117.744 17.7136 106.137 22.846 87.2515 35.4268C77.4638 41.9363 66.1077 51.2623 66.1077 52.7645C66.1077 53.0775 67.9272 52.4515 70.1859 51.4501C75.0169 49.2594 79.9735 48.1328 82.1694 48.6335C84.4909 49.2594 83.9889 50.0731 80.8519 50.5112ZM105.133 55.8941C111.03 54.7048 111.281 54.6422 111.281 54.0163C111.281 53.7034 109.023 53.3904 106.199 53.2652L101.117 53.0775L105.823 47.7572C108.395 44.8154 111.407 41.8737 112.473 41.1852C114.795 39.683 114.92 38.6189 113.038 37.993L111.595 37.5549L113.164 36.9916C114.042 36.6786 115.673 36.5534 116.803 36.7412C118.497 36.9916 118.873 36.8664 118.685 35.9901C118.497 35.1138 117.806 34.9261 114.732 34.9887C105.76 35.1138 101.933 37.4923 108.96 38.6189C110.905 38.9319 112.536 39.4326 112.536 39.7456C112.536 39.9959 112.222 40.2463 111.846 40.2463C110.654 40.2463 100.553 50.4486 99.2978 52.9523C97.3528 56.6451 98.4194 57.2085 105.133 55.8941ZM146.542 31.6088C144.722 31.7339 144.283 32.0469 144.409 32.9232L144.428 33.0507C144.498 33.5137 144.539 33.7796 144.435 33.8604C144.295 33.9694 143.891 33.7409 142.942 33.204L142.777 33.1109C141.585 32.485 141.46 32.1721 142.15 31.6713C142.589 31.2958 143.781 30.7325 144.722 30.5447L146.479 30.1066L145.162 28.7296C144.471 27.9159 144.095 27.1648 144.283 26.9144C144.785 26.4137 150.934 27.1022 151.812 27.7907C152.189 28.1037 152.753 28.0411 153.13 27.6655C154.008 26.7892 155.2 27.4777 155.2 28.8547C155.2 29.6058 155.012 29.6684 154.447 29.1051C153.945 28.6044 153.506 28.6044 152.941 29.0425C152.44 29.4807 152.063 29.4807 151.749 28.9799C151.561 28.667 150.369 28.354 149.114 28.354C147.957 28.354 147.409 28.354 147.298 28.5741C147.197 28.7715 147.448 29.1459 147.922 29.8562C148.923 31.4162 148.864 31.421 146.563 31.607L146.542 31.6088ZM137.005 14.9595C137.005 14.1459 136.252 12.7063 135.311 11.7674L133.554 10.0149L142.966 10.3904C148.173 10.6408 154.071 11.2041 156.141 11.7674C158.212 12.2681 160.596 12.6437 161.474 12.6437C162.792 12.6437 162.541 12.3933 160.094 11.0789C155.828 8.88823 150.369 7.82418 139.891 7.07309C127.343 6.19682 121.006 7.38605 122.198 10.5156C122.387 11.1415 123.39 11.4545 124.896 11.4545C127.97 11.4545 132.99 13.2696 134.684 14.9595C136.503 16.7747 137.005 16.7747 137.005 14.9595ZM106.388 180.7C111.47 187.21 118.183 194.596 121.32 197.099C123.202 198.601 124.833 199.853 124.959 199.853C125.022 199.853 123.641 196.974 121.885 193.469C114.795 179.386 110.654 165.366 108.709 149.217C108.27 145.65 107.58 142.645 106.827 141.393C105.321 138.89 105.321 135.635 106.889 132.568C107.705 130.941 108.144 128.875 108.144 126.622V123.179L105.133 126.309C102.184 129.376 99.3605 130.628 99.3605 128.75C99.3605 127.373 104.003 120.738 106.45 118.673C108.395 117.045 108.646 116.482 109.274 111.6C109.713 108.658 110.717 103.463 111.532 100.021C112.411 96.5782 112.913 93.6364 112.787 93.5112C112.348 93.0731 97.6038 109.966 95.5961 115.355C95.1553 116.539 93.9648 118.61 93.0237 119.862L91.3924 121.951C91.3924 121.951 91.8991 124.877 92.459 128.554C93.0247 132.269 93.2901 134.823 93.5265 137.098C93.8427 140.141 94.107 142.684 94.9686 146.839C95.9725 151.971 96.9764 156.415 97.2273 156.728C97.4156 157.104 98.2312 159.983 99.0468 163.175C100.804 170.248 103.752 177.258 106.388 180.7ZM360.991 239.911L359.674 238.597C359.674 238.597 381.542 210.88 385.46 200.667C388.451 192.873 390.21 190.663 392.585 190.663C393.913 190.663 394.997 190.965 395.499 191.716C396.377 193.031 397.224 194.658 396.094 200.229C394.212 209.242 391.326 215.188 382.668 228.019C380.66 230.961 378.088 234.216 376.958 235.342C374.323 237.783 368.395 240.287 364.944 240.85C362.748 241.163 362.121 241.038 360.991 239.911Z" fill="#00160A"/>
<path d="M534.722 301.141C542.527 279.925 541.346 275.405 539.992 274.962C539.992 274.962 537.011 276.652 535.693 280.22C533.247 286.917 524.871 304.443 521.734 307.572C518.032 311.265 518.032 311.265 514.268 311.265C510.504 311.265 499.646 305.61 498.168 300.035C495.803 291.115 505.986 260.128 506.237 258.376L504.543 257.187C503.414 258.251 488.724 302.69 469.408 291.111C467.196 289.785 462.507 283.537 462.13 280.22C460.04 270.581 469.632 236.876 471.263 229.953C472.723 223.756 480.325 218.005 489.673 218.005C504.041 218.005 502.111 230.534 508.547 234.949C511.399 236.905 516.086 233.358 517.531 233.089C525.624 231.587 528.726 233.336 534.659 238.034C539.239 241.66 542.628 248.837 546.358 251.366C548.43 252.77 550.628 250.85 551.348 250.489C554.3 249.011 560.634 250.114 562.39 251.366C564.966 252.486 571.277 258.538 572.274 262.058C576.793 278.011 562.524 313.379 557.137 320.014C548.22 330.996 526.916 322.358 534.722 301.141Z" fill="white"/>
<path fill-rule="evenodd" clip-rule="evenodd" d="M174.023 243.007C191.214 253.835 208.94 260.908 229.142 262.848C245.079 264.35 266.566 262.285 282 257.277C294.988 253.084 312.555 241.467 324.288 231.64C347.063 212.612 361.43 182.891 367.705 151.345C368.583 146.901 369.923 135.731 369.86 124.652C369.86 111.758 364.172 76.5233 346.937 56.207C311.391 14.3047 252.961 -4.57116 203.855 11.557C186.14 17.375 167.28 27.9159 153.037 41.6859C135.093 59.1488 121.855 82.9333 116.585 107.219C111.064 132.881 118.246 163.55 130.731 188.712C140.707 208.741 157.145 232.304 174.023 243.007ZM341.542 167.369C329.746 202.732 299.003 229.146 260.354 237.157C254.457 238.347 250.379 238.785 242.097 238.91C236.262 239.098 230.427 239.035 229.235 238.91C202.193 235.655 181.614 225.703 162.666 206.801C154.385 198.476 150.871 193.97 145.726 185.082C137.633 170.999 133.304 156.603 131.986 139.265C127.469 79.8664 170.07 30.3569 230.05 25.2245C253.578 23.2216 279.679 30.4195 299.505 44.4399C306.846 49.6349 320.147 62.779 324.288 68.913C325.982 71.354 342.42 95.3263 345.306 109.096C349.008 126.997 347.565 149.405 341.542 167.369Z" fill="white"/>
<path fill-rule="evenodd" clip-rule="evenodd" d="M369.882 124.652C369.882 166.664 349.962 212.594 324.253 232.209C311.988 241.568 295.959 252.9 282 257.277C261.544 263.693 229.142 262.848 229.142 262.848C229.142 262.848 262.199 258.44 274.448 253.522C309.576 239.419 328.752 217.77 340.593 196.998C363.966 155.996 369.882 123.631 369.882 124.652Z" fill="#E7EAEE"/>
<path fill-rule="evenodd" clip-rule="evenodd" d="M229.862 231.399C213.11 229.271 196.484 223.325 183.057 214.5C175.089 209.304 163.043 197.099 157.208 188.399C148.863 175.881 143.342 162.486 140.644 148.091C138.699 137.638 138.762 121.552 140.707 112.226C142.715 102.712 145.287 95.4515 149.867 86.2507C155.2 75.6102 160.847 67.7863 169.317 59.3365C183.747 44.9406 200.499 35.8023 220.451 31.421C226.913 30.044 250.316 28.9173 251.131 29.9814C251.32 30.2943 252.574 31.108 253.892 31.7965C255.21 32.5476 258.723 35.1764 261.609 37.7427C265.938 41.4981 267.883 43.8766 271.648 49.7601C274.22 53.7659 276.291 57.3962 276.291 57.7092C276.291 58.3977 278.298 59.6495 279.428 59.6495C280.996 59.6495 282.063 54.9552 282.377 46.6932C282.565 42.124 282.941 38.3686 283.192 38.3686C284.071 38.3686 293.733 43.6888 298.25 46.6932C307.097 52.5767 315.943 60.8387 322.468 69.4763C325.417 73.3569 325.856 74.3584 325.856 76.7368C325.856 78.9275 326.484 80.6175 328.429 83.9974C333.322 92.5098 337.15 103.213 339.471 115.042C340.977 122.992 340.977 138.013 339.408 146.338C335.142 169.246 322.468 192.029 305.967 206.488C291.976 218.693 277.106 226.204 259.539 229.897C253.516 231.211 235.446 232.088 229.862 231.399ZM185.002 188.587C185.567 187.961 185.943 187.022 185.755 186.584C185.699 186.452 184.913 186.084 183.763 185.545C181.083 184.288 176.422 182.102 174.403 179.824C166.372 170.686 163.423 163.863 161.603 149.78C159.847 136.073 161.322 126.806 164.489 111.913C166.034 104.648 170.141 98.6465 172.695 94.9128C174.432 92.3742 175.452 90.8839 174.462 90.7572C172.015 90.3817 171.638 90.5694 169.066 93.0105C163.545 98.2681 161.035 102.462 158.4 110.536C154.322 123.179 153.534 157.348 161.603 172.751C169.673 188.155 183.559 190.214 185.002 188.587ZM274.22 136.01C273.155 145.734 268.636 159.795 263.366 165.929C260.919 168.808 251.937 173.753 244.355 172.751C237.032 171.784 231.305 168.37 226.411 161.047C222.208 154.725 220.037 147.052 218.569 137.387C216.034 120.699 227.102 101.272 231.87 96.453C236.701 91.5083 240.152 89.7558 244.544 89.6932C248.81 89.6932 251.571 90.632 255.9 93.699C263.805 99.207 276.291 117.116 274.22 136.01ZM189.645 84.2477C190.9 82.8082 191.088 82.1197 190.712 79.4282C190.461 76.9246 189.959 75.9231 188.641 74.8591C186.32 72.9814 183.434 72.9814 181.3 74.9843C179.795 76.4239 179.606 76.9246 179.795 80.3671C179.983 84.06 180.108 84.3103 182.179 85.437C184.939 86.9392 187.637 86.501 189.645 84.2477ZM228.796 45.6291C217.502 53.7034 212.608 57.0207 207.526 60.1502C203.511 62.6539 202.256 62.7165 202.256 60.4632C202.256 59.274 203.134 57.9595 205.393 55.894L208.53 53.0149L202.444 52.2012C195.606 51.3249 188.955 49.4472 187.512 48.0076C185.128 45.5665 187.198 45.0032 193.974 46.255C196.986 46.7558 202.821 47.3817 206.962 47.5069L214.491 47.8198L219.949 43.8766C231.933 35.239 244.355 30.3569 250.316 31.8591C254.018 32.7354 253.578 33.7369 249.375 34.2376C244.544 34.8009 241.595 36.4283 228.796 45.6291Z" fill="white"/>
<path d="M244.92 164.176C244.92 163.863 245.297 163.55 245.798 163.55C246.3 163.55 246.928 163.863 247.116 164.176C247.304 164.552 246.928 164.802 246.238 164.802C245.485 164.802 244.92 164.552 244.92 164.176Z" fill="white"/>
<path d="M248.685 163.613C248.685 162.925 250.253 162.299 252.01 162.299C253.39 162.361 253.39 162.361 252.198 163.238C250.818 164.302 248.685 164.489 248.685 163.613Z" fill="white"/>
<path d="M238.96 161.986C238.771 161.485 238.52 160.609 238.332 160.108C238.144 159.482 238.458 159.169 239.273 159.169C239.964 159.169 240.528 159.545 240.528 160.045C240.528 160.546 240.716 161.36 240.905 161.923C241.156 162.612 240.967 162.925 240.277 162.925C239.713 162.925 239.085 162.486 238.96 161.986Z" fill="white"/>
<path d="M242.285 160.421C241.971 158.543 242.661 157.917 244.92 157.917C245.61 157.917 246.175 158.543 246.426 159.607C246.928 161.422 246.112 162.299 243.916 162.299C242.912 162.299 242.473 161.861 242.285 160.421Z" fill="white"/>
<path d="M235.885 160.734C234.693 159.795 234.693 159.795 236.011 159.795C236.826 159.795 237.391 160.171 237.391 160.734C237.391 161.861 237.391 161.861 235.885 160.734Z" fill="white"/>
<path d="M248.496 160.671C247.681 159.858 248.057 157.417 249.061 157.041C250.88 156.353 251.696 156.666 252.073 158.293C252.324 159.232 252.449 160.045 252.324 160.108C251.822 160.671 248.873 161.047 248.496 160.671Z" fill="white"/>
<path d="M254.08 159.357C253.892 159.169 253.704 158.355 253.704 157.604C253.704 156.54 254.206 156.102 255.712 155.789C257.029 155.539 257.845 155.664 258.221 156.165C258.849 157.166 258.849 158.418 258.284 158.731C257.155 159.357 254.519 159.732 254.08 159.357Z" fill="white"/>
<path d="M232.999 157.417C232.999 156.665 233.564 156.04 234.38 155.852C236.011 155.414 235.948 155.351 236.262 156.978C236.387 157.917 236.074 158.293 234.756 158.418C233.376 158.606 232.999 158.355 232.999 157.417Z" fill="white"/>
<path d="M237.768 157.479C236.889 156.54 237.454 154.788 238.646 154.788C239.462 154.788 239.901 155.226 239.901 155.977C239.901 157.166 238.458 158.168 237.768 157.479Z" fill="white"/>
<path d="M241.532 155.601C241.03 154.412 242.097 153.536 244.167 153.536C245.108 153.536 245.548 153.911 245.548 154.725C245.548 155.414 244.983 156.04 244.167 156.29C242.097 156.791 241.971 156.791 241.532 155.601Z" fill="white"/>
<path d="M259.664 155.414C259.852 155.101 260.166 154.788 260.354 154.788C260.543 154.788 260.48 155.101 260.292 155.414C260.103 155.789 259.79 156.04 259.602 156.04C259.413 156.04 259.476 155.789 259.664 155.414Z" fill="white"/>
<path d="M247.179 154.35C246.677 153.098 247.304 152.472 249.312 152.159C250.441 152.034 250.943 152.284 251.069 153.16C251.508 155.226 247.932 156.353 247.179 154.35Z" fill="white"/>
<path d="M232.121 153.286C231.556 151.22 231.682 151.032 233.313 151.032C234.191 151.032 234.881 151.283 234.881 151.596C234.881 151.909 235.07 152.597 235.258 153.098C235.446 153.724 235.07 154.099 234.003 154.287C232.811 154.537 232.372 154.287 232.121 153.286Z" fill="white"/>
<path d="M253.076 152.597C253.076 151.47 253.516 150.97 254.708 150.657C256.464 150.219 257.468 151.095 257.468 153.098C257.468 153.912 256.966 154.162 255.272 154.162C253.327 154.162 253.076 153.974 253.076 152.597Z" fill="white"/>
<path d="M230.239 152.597C230.05 152.096 230.176 151.658 230.49 151.658C230.866 151.658 231.117 152.096 231.117 152.597C231.117 153.098 230.992 153.536 230.866 153.536C230.741 153.536 230.49 153.098 230.239 152.597Z" fill="white"/>
<path d="M236.575 153.098C235.697 152.284 236.199 150.532 237.328 150.219C238.019 150.031 238.709 150.093 238.897 150.281C239.65 150.97 239.211 152.785 238.27 153.16C237.077 153.599 237.077 153.599 236.575 153.098Z" fill="white"/>
<path d="M258.974 152.66C258.284 150.845 259.037 149.468 260.794 149.28C262.111 149.092 262.488 149.342 262.488 150.344C262.488 152.409 261.797 153.536 260.543 153.536C259.852 153.536 259.162 153.16 258.974 152.66Z" fill="white"/>
<path d="M240.967 151.846C240.214 151.157 240.465 149.906 241.532 149.53C242.724 149.092 245.234 150.344 244.544 151.032C243.665 151.783 241.407 152.347 240.967 151.846Z" fill="white"/>
<path d="M246.426 150.281C245.861 149.405 247.869 147.903 249.5 147.903C250.253 147.903 250.567 148.278 250.441 148.967C250.19 150.219 246.991 151.22 246.426 150.281Z" fill="white"/>
<path d="M229.235 149.843C229.235 149.53 229.047 148.842 228.858 148.278C228.67 147.715 228.733 147.277 229.109 147.277C229.925 147.277 230.552 149.655 229.799 150.156C229.486 150.344 229.235 150.219 229.235 149.843Z" fill="white"/>
<path d="M230.929 148.403C230.552 147.026 231.305 146.025 232.748 146.025C233.564 146.025 234.38 148.466 233.878 149.28C233.187 150.344 231.242 149.718 230.929 148.403Z" fill="white"/>
<path d="M235.321 148.716C234.379 147.778 234.944 145.524 236.199 145.211C237.14 144.961 237.642 145.274 238.144 146.401C238.52 147.214 238.709 148.028 238.583 148.153C237.956 148.716 235.697 149.155 235.321 148.716Z" fill="white"/>
<path d="M252.261 148.716C251.445 147.903 251.822 147.402 253.704 146.714C255.272 146.213 255.712 146.275 256.025 147.026C256.59 148.529 253.453 149.968 252.261 148.716Z" fill="white"/>
<path d="M257.782 147.277C257.155 146.275 258.033 145.399 259.664 145.399C261.609 145.399 262.174 147.026 260.417 147.527C258.535 148.028 258.221 147.965 257.782 147.277Z" fill="white"/>
<path d="M263.115 145.775C263.115 144.836 264.244 143.834 264.746 144.335C265.185 144.773 264.307 146.651 263.68 146.651C263.366 146.651 263.115 146.275 263.115 145.775Z" fill="white"/>
<path d="M228.419 144.961C228.168 144.773 227.98 143.96 228.043 143.271C228.043 142.082 228.105 142.082 228.67 143.459C229.298 144.961 229.172 145.712 228.419 144.961Z" fill="white"/>
<path d="M229.611 144.022C229.047 141.831 229.109 141.644 230.741 141.644C232.56 141.644 233.689 143.96 232.309 144.836C230.866 145.712 230.05 145.462 229.611 144.022Z" fill="white"/>
<path d="M251.194 145.274C251.194 145.086 251.508 144.085 251.884 142.958C252.763 140.454 254.708 140.329 255.147 142.77C255.335 143.709 255.398 144.523 255.335 144.585C255.021 144.961 251.194 145.524 251.194 145.274Z" fill="white"/>
<path d="M234.066 143.709C233.815 143.521 233.627 142.77 233.627 142.082C233.627 141.08 233.815 141.018 234.568 141.644C235.07 142.082 235.509 142.833 235.509 143.271C235.509 144.21 234.756 144.46 234.066 143.709Z" fill="white"/>
<path d="M256.653 142.457C256.276 140.517 257.092 139.641 259.037 139.891C259.978 140.016 260.292 140.58 260.292 141.957C260.292 143.521 260.041 143.897 258.66 144.022C257.28 144.21 256.966 143.897 256.653 142.457Z" fill="white"/>
<path d="M262.801 142.708C261.986 140.204 262.237 139.453 263.931 139.265C265.436 139.077 265.625 139.265 265.625 140.893C265.625 142.27 265.248 142.833 264.307 143.083C263.617 143.271 262.927 143.083 262.801 142.708Z" fill="white"/>
<path d="M227.478 139.14C227.478 137.951 227.603 137.45 227.792 138.076C227.917 138.639 227.917 139.641 227.792 140.267C227.603 140.83 227.478 140.329 227.478 139.14Z" fill="white"/>
<path d="M229.047 139.954C228.231 139.203 228.607 136.762 229.611 136.386C231.054 135.823 231.744 136.511 231.744 138.577C231.744 139.891 231.431 140.392 230.615 140.392C229.988 140.392 229.235 140.204 229.047 139.954Z" fill="white"/>
<path d="M232.811 138.264C232.56 137.325 232.435 136.323 232.686 136.136C233.313 135.51 233.689 136.511 233.501 138.326L233.313 140.079L232.811 138.264Z" fill="white"/>
<path d="M253.076 137.826C253.076 137.137 253.39 136.762 253.704 136.949C254.08 137.137 254.331 137.763 254.331 138.264C254.331 138.764 254.08 139.14 253.704 139.14C253.39 139.14 253.076 138.577 253.076 137.826Z" fill="white"/>
<path d="M255.9 138.639C255.021 137.7 255.712 136.01 257.155 135.635C258.974 135.197 259.037 135.197 259.601 137.012C259.978 138.139 259.727 138.389 258.096 138.639C257.092 138.827 256.088 138.764 255.9 138.639Z" fill="white"/>
<path d="M261.672 137.45C260.982 136.824 261.17 134.759 261.86 134.759C262.237 134.759 262.488 134.508 262.488 134.133C262.488 133.82 262.111 133.507 261.609 133.507C260.543 133.507 259.664 130.44 260.543 129.564C261.672 128.437 262.927 129.626 263.68 132.693C264.119 134.321 264.558 136.198 264.746 136.824C264.997 137.638 264.746 137.888 263.554 137.888C262.739 137.888 261.86 137.7 261.672 137.45Z" fill="white"/>
<path d="M265.06 134.133C264.621 132.255 263.491 128.5 262.676 125.746C261.421 121.74 261.296 120.738 261.986 120.3C262.425 119.987 262.99 119.737 263.178 119.737C263.868 119.737 266.378 132.568 266.127 135.072L265.938 137.575L265.06 134.133Z" fill="white"/>
<path d="M226.851 133.82C226.851 132.818 226.976 132.443 227.164 133.069C227.29 133.632 227.29 134.508 227.164 134.946C226.976 135.322 226.851 134.884 226.851 133.82Z" fill="white"/>
<path d="M228.105 133.695C228.356 131.504 230.176 131.003 230.678 133.006C231.117 134.633 231.242 134.446 229.36 135.072C228.043 135.447 227.917 135.322 228.105 133.695Z" fill="white"/>
<path d="M254.582 133.131C254.08 131.316 255.147 130.252 257.155 130.502C258.66 130.69 259.225 133.382 257.97 134.195C256.402 135.197 254.959 134.759 254.582 133.131Z" fill="white"/>
<path d="M231.744 132.631C231.744 131.567 232.058 131.003 232.748 131.003C233.376 131.003 233.627 131.441 233.501 132.38C233.187 134.383 231.744 134.571 231.744 132.631Z" fill="white"/>
<path d="M226.16 130.002C226.16 129.313 226.349 129.125 226.537 129.626C226.725 130.064 226.662 130.628 226.474 130.815C226.286 131.066 226.098 130.69 226.16 130.002Z" fill="white"/>
<path d="M227.353 129.814C227.353 128.875 227.729 128.5 228.67 128.5C229.548 128.5 229.862 128.813 229.737 129.564C229.423 131.191 227.353 131.379 227.353 129.814Z" fill="white"/>
<path d="M230.803 129.251C230.364 128.124 230.364 128.124 232.246 127.623C233.376 127.248 233.627 127.436 233.627 128.374C233.627 129.877 231.368 130.628 230.803 129.251Z" fill="white"/>
<path d="M253.516 128.374C253.076 126.81 253.892 125.996 256.088 125.996C257.155 125.996 257.468 126.371 257.468 127.561C257.468 128.5 257.092 129.125 256.59 129.125C256.088 129.125 255.272 129.313 254.77 129.501C254.206 129.689 253.767 129.313 253.516 128.374Z" fill="white"/>
<path d="M258.974 126.935C258.472 125.683 259.225 124.744 260.668 124.744C261.546 124.744 261.86 125.182 261.86 126.309C261.86 127.436 261.546 127.874 260.605 127.874C259.915 127.874 259.162 127.436 258.974 126.935Z" fill="white"/>
<path d="M226.725 126.059C226.725 124.744 228.168 123.242 228.796 123.93C229.047 124.118 229.235 124.994 229.235 125.808C229.235 126.81 228.858 127.248 227.98 127.248C227.164 127.248 226.725 126.81 226.725 126.059Z" fill="white"/>
<path d="M230.176 125.307C229.674 123.743 230.239 123.054 232.372 122.741C234.317 122.491 234.944 124.556 233.25 125.808C231.619 126.997 230.615 126.81 230.176 125.307Z" fill="white"/>
<path d="M252.888 124.932C252.449 124.556 252.261 122.24 252.637 122.24C252.7 122.24 253.641 121.99 254.77 121.677C256.653 121.114 256.778 121.176 256.715 122.866C256.653 124.118 256.276 124.744 255.335 124.994C253.641 125.433 253.39 125.433 252.888 124.932Z" fill="white"/>
<path d="M250.567 123.492C250.567 123.054 250.755 122.866 251.006 123.054C251.194 123.305 251.194 123.68 251.006 123.93C250.755 124.118 250.567 123.93 250.567 123.492Z" fill="white"/>
<path d="M257.594 122.491C257.782 121.427 259.727 119.862 260.166 120.363C260.354 120.55 260.668 121.302 260.856 122.115C261.296 123.367 261.107 123.492 259.351 123.492C257.845 123.492 257.406 123.242 257.594 122.491Z" fill="white"/>
<path d="M227.353 122.428C227.353 122.115 227.666 121.489 227.98 120.989C228.482 120.238 228.607 120.3 228.607 121.489C228.607 122.24 228.356 122.866 227.98 122.866C227.666 122.866 227.353 122.679 227.353 122.428Z" fill="white"/>
<path d="M229.235 121.051C229.235 119.299 230.552 118.735 231.556 120.05C232.184 120.989 232.184 121.302 231.556 121.74C230.239 122.553 229.235 122.303 229.235 121.051Z" fill="white"/>
<path d="M248.308 120.238C247.179 118.986 247.179 118.923 248.245 119.299C248.873 119.549 249.688 119.737 250.002 119.737C250.316 119.737 250.567 120.175 250.567 120.676C250.567 121.99 249.688 121.865 248.308 120.238Z" fill="white"/>
<path d="M234.819 120.175C232.121 118.109 231.744 113.478 234.254 113.478C235.948 113.478 237.517 116.107 237.266 118.548C237.077 120.801 236.325 121.302 234.819 120.175Z" fill="white"/>
<path d="M252.01 120.55C252.261 120.363 252.637 120.363 252.888 120.55C253.076 120.801 252.888 120.989 252.449 120.989C252.01 120.989 251.822 120.801 252.01 120.55Z" fill="white"/>
<path d="M261.484 118.109C261.672 117.546 261.86 116.983 261.86 116.858C261.86 116.732 262.174 116.607 262.488 116.607C262.864 116.607 263.115 117.171 263.115 117.859C263.115 118.61 262.676 119.111 262.111 119.111C261.421 119.111 261.233 118.798 261.484 118.109Z" fill="white"/>
<path d="M228.607 117.922C228.607 116.482 229.925 114.104 230.678 114.104C231.995 114.104 231.054 118.109 229.674 118.36C229.109 118.485 228.607 118.297 228.607 117.922Z" fill="white"/>
<path d="M242.724 117.233L240.842 116.795L242.536 116.357C244.293 115.856 245.548 116.232 245.548 117.296C245.548 117.922 245.485 117.922 242.724 117.233Z" fill="white"/>
<path d="M240.528 114.229C240.528 111.663 241.971 111.287 243.289 113.54C244.167 115.043 244.23 115.355 243.414 115.355C242.912 115.355 242.097 115.543 241.532 115.731C240.779 116.044 240.528 115.668 240.528 114.229Z" fill="white"/>
<path d="M251.445 115.105C248.622 113.853 246.802 110.536 246.802 106.593C246.802 103.776 247.053 103.088 248.747 101.523C249.814 100.521 250.88 99.7077 251.194 99.7077C252.574 99.7077 257.657 104.527 259.351 107.532L261.296 110.974L259.225 113.165C256.841 115.668 254.206 116.357 251.445 115.105Z" fill="white"/>
<path d="M238.332 113.478C238.144 113.165 238.269 112.852 238.583 112.852C238.96 112.852 239.273 113.165 239.273 113.478C239.273 113.853 239.148 114.104 239.022 114.104C238.834 114.104 238.52 113.853 238.332 113.478Z" fill="white"/>
<path d="M230.113 112.476C230.301 111.913 230.49 111.35 230.49 111.224C230.49 111.099 231.054 110.974 231.744 110.974C233.313 110.974 233.376 111.976 231.807 112.852C230.113 113.728 229.674 113.666 230.113 112.476Z" fill="white"/>
<path d="M235.07 111.725C233.627 111.537 233.187 110.724 234.129 110.16C234.38 109.973 235.509 109.66 236.638 109.409C238.332 109.034 238.646 109.159 238.646 110.223C238.646 111.537 237.328 112.101 235.07 111.725Z" fill="white"/>
<path d="M239.901 109.597C239.901 108.846 239.964 108.408 240.089 108.533C240.152 108.658 240.654 109.284 241.093 109.91C241.846 110.786 241.783 110.974 240.905 110.974C240.277 110.974 239.901 110.473 239.901 109.597Z" fill="white"/>
<path d="M231.117 109.159C231.117 108.783 231.431 108.345 231.744 108.157C232.121 107.97 232.372 108.22 232.372 108.721C232.372 109.284 232.121 109.722 231.744 109.722C231.431 109.722 231.117 109.472 231.117 109.159Z" fill="white"/>
<path d="M233.438 108.22C232.936 106.968 237.391 105.591 238.144 106.78C238.709 107.782 238.144 108.22 235.76 108.721C234.317 109.034 233.689 108.909 233.438 108.22Z" fill="white"/>
<path d="M239.336 106.217C239.336 105.529 239.524 105.341 239.713 105.842C239.901 106.28 239.838 106.843 239.65 107.031C239.462 107.281 239.273 106.906 239.336 106.217Z" fill="white"/>
<path d="M234.003 105.216C234.756 103.839 236.952 101.585 237.517 101.585C238.144 101.585 238.207 104.527 237.579 104.903C237.266 105.028 236.262 105.341 235.321 105.591C233.94 105.904 233.627 105.842 234.003 105.216Z" fill="white"/>
<path d="M239.022 103.776C238.332 101.898 238.646 101.085 240.152 100.834C241.72 100.521 241.72 100.521 240.716 102.462C239.462 104.965 239.524 104.965 239.022 103.776Z" fill="white"/>
<path d="M238.646 100.021C238.646 99.8955 239.901 99.0192 241.469 98.1429C243.352 97.0163 244.669 96.6407 245.61 96.8911C246.74 97.2667 246.426 97.517 243.665 98.8314C240.591 100.208 238.646 100.709 238.646 100.021Z" fill="white"/>
<path d="M273.467 44.5651C271.773 42.124 268.197 38.1808 265.625 35.8023C263.052 33.4239 261.358 31.4836 261.86 31.4836C263.24 31.4836 273.781 34.3628 276.416 35.4894C278.612 36.4283 278.675 36.5534 278.11 38.4938C277.796 39.6204 277.545 42.437 277.545 44.7529C277.545 47.1313 277.357 49.009 277.106 49.009C276.793 49.009 275.224 47.0061 273.467 44.5651Z" fill="white"/>
<path d="M145.789 234.153C143.217 232.839 142.652 232.088 139.389 225.641C134.684 216.502 134.558 214.374 139.013 219.569C140.77 221.635 144.848 225.891 148.048 229.021C153.506 234.278 153.757 234.654 151.938 234.403C150.62 234.216 150.118 234.341 150.432 234.842C151.185 235.968 148.801 235.655 145.789 234.153Z" fill="white"/>
<path fill-rule="evenodd" clip-rule="evenodd" d="M250.936 348.188C250.415 346.955 250.996 345.533 252.233 345.014L253.584 344.442C266.727 338.832 274.27 335.462 279.396 330.111C284.522 324.76 285.135 316.9 286.098 312.118C286.362 310.805 289.341 313.11 290.657 313.374C291.972 313.638 292.825 314.915 292.561 316.228C291.403 321.978 288.285 327.46 283.265 332.664C278.263 337.85 268.577 343.409 254.118 349.482C252.881 350.001 251.457 349.422 250.936 348.188Z" fill="#00160A"/>
<path fill-rule="evenodd" clip-rule="evenodd" d="M310.368 98.4504C311.521 97.7656 313.012 98.143 313.699 99.2934C320.571 110.811 324.253 123.977 324.253 137.676C324.253 179.175 290.53 212.818 248.931 212.818C237.877 212.818 227.156 210.439 217.338 205.908C216.12 205.346 211.519 200.87 216.153 202.69C220.787 204.51 238.714 208.596 249.06 208.596C287.976 208.596 315.506 176.498 315.506 137.676C315.506 124.856 310.368 113.478 309.523 101.773C309.425 100.416 309.215 99.1351 310.368 98.4504Z" fill="#00160A"/>
<path fill-rule="evenodd" clip-rule="evenodd" d="M69.7308 281.905C70.5896 280.876 72.1217 278.798 73.1528 279.655C77.3826 283.17 81.8964 287.242 86.7247 288.028C91.7491 288.846 97.7097 288.846 104.599 288.014C105.931 287.853 107.142 288.8 107.303 290.129C107.464 291.458 106.515 292.666 105.183 292.826C97.867 293.71 91.456 293.71 85.9421 292.812C80.2322 291.883 74.9222 289.373 70.0426 285.319C69.0116 284.462 68.8719 282.934 69.7308 281.905Z" fill="#00160A"/>
<path d="M121.32 197.099C118.183 194.596 111.47 187.21 106.388 180.7C103.752 177.258 100.804 170.248 99.0468 163.175C98.2312 159.983 97.4156 157.104 97.2273 156.728C96.9764 156.415 95.9725 151.971 94.9686 146.839C93.4629 139.578 93.7813 137.239 92.459 128.554C91.8991 124.877 91.3924 121.951 91.3924 121.951L93.0237 119.862C93.9648 118.61 95.1553 116.539 95.5961 115.355C97.6038 109.966 112.348 93.0731 112.787 93.5112C112.913 93.6364 112.411 96.5782 111.532 100.021C110.717 103.463 109.713 108.658 109.274 111.6C108.646 116.482 108.395 117.045 106.45 118.673C104.003 120.738 99.3605 127.373 99.3605 128.75C99.3605 130.628 102.184 129.376 105.133 126.309L108.144 123.179V126.622C108.144 128.875 107.705 130.941 106.889 132.568C105.321 135.635 105.321 138.89 106.827 141.393C107.58 142.645 108.27 145.65 108.709 149.217C110.654 165.366 114.795 179.386 121.885 193.469C123.641 196.974 125.022 199.853 124.959 199.853C124.833 199.853 123.202 198.601 121.32 197.099Z" fill="white"/>
<path fill-rule="evenodd" clip-rule="evenodd" d="M382.386 235.718L386.903 237.721C387.84 238.152 398.174 243.105 410.586 249.055C430.598 258.648 456.015 270.831 456.17 270.831C456.421 270.831 457.598 268.115 457.864 264.948C458.491 258.125 460.812 248.862 463.51 242.415C464.765 239.536 465.769 235.938 465.769 235.625C465.769 235.482 464.749 235.071 463.079 234.399C461.091 233.599 458.183 232.429 454.978 230.898C439.167 223.325 408.235 207.865 404.408 205.549C400.644 203.358 399.891 203.171 399.891 204.61C399.891 206.488 396.064 215.188 393.115 219.882C391.546 222.449 388.472 227.08 386.276 230.147L382.386 235.718ZM455.103 259.565C456.902 260.605 453.785 262.131 453.033 262.382C448.6 262.757 443.38 261.925 439.104 259.44C436.868 257.858 419.263 248.101 407.584 241.628C402.245 238.669 398.145 236.397 397.318 235.906C394.683 234.341 392.174 232.651 391.734 232.15C390.417 230.46 391.672 229.709 395.373 230.022C397.599 230.21 451.217 257.318 455.103 259.565Z" fill="white"/>
<path d="M337.338 241.351C335.707 240.788 333.95 239.536 332.82 238.096L330.938 235.78L337.589 229.208C347.816 219.194 355.345 208.249 362.121 196.044C364.379 191.976 371.093 175.568 371.908 173.753C373.163 171.124 374.104 170.123 376.802 168.62C380.002 166.743 383.641 166.117 385.209 167.181C388.221 169.184 388.221 175.505 385.209 186.396C381.884 198.351 377.429 206.926 368.207 219.256C366.763 221.134 364.066 224.827 362.121 227.393C356.913 234.278 353.525 237.596 348.945 240.162C344.428 242.665 341.792 242.978 337.338 241.351Z" fill="white"/>
<path d="M360.991 239.911L359.674 238.597C359.674 238.597 381.542 210.88 385.46 200.667C388.451 192.873 390.21 190.663 392.585 190.663C393.913 190.663 394.997 190.965 395.499 191.716C396.377 193.031 397.224 194.658 396.094 200.229C394.212 209.242 391.326 215.188 382.668 228.019C380.66 230.961 378.088 234.216 376.958 235.342C374.323 237.783 368.395 240.287 364.944 240.85C362.748 241.163 362.121 241.038 360.991 239.911Z" fill="white"/>
<path fill-rule="evenodd" clip-rule="evenodd" d="M397.724 210.928C398.989 208.04 399.891 205.522 399.891 204.61C399.891 203.171 400.644 203.358 404.408 205.549C408.235 207.865 439.167 223.325 454.978 230.898C460.875 233.715 465.769 235.312 465.769 235.625C465.769 235.938 396.382 213.99 397.724 210.928Z" fill="#E7EAEE"/>
<path fill-rule="evenodd" clip-rule="evenodd" d="M183.057 214.5C175.089 209.304 163.043 197.099 157.208 188.399C148.863 175.881 143.342 162.486 140.644 148.091C138.699 137.638 138.762 121.552 140.707 112.226C142.715 102.712 145.287 95.4515 149.867 86.2507C155.2 75.6102 160.847 67.7863 169.317 59.3365C177.623 51.0504 140.707 85.317 149.867 146.627C157.208 198.005 188.756 218.245 183.057 214.5Z" fill="#E7EAEE"/>
</svg>
