<svg width="1512" height="106" viewBox="0 0 1512 106" fill="none" xmlns="http://www.w3.org/2000/svg">
<path fill-rule="evenodd" clip-rule="evenodd" d="M0 49.6675L28 47.5008C56 45.0247 112 40.3819 168 40.3819C224 40.3819 280 45.0247 336 52.1436C392 59.2626 448 68.5482 504 56.7864C560 45.0247 616 12.2156 672 2.93005C728 -6.35553 784 7.57284 840 28.6202C896 49.6675 952 77.8337 1008 75.6671C1064 73.1909 1120 40.3819 1176 40.3819C1232 40.3819 1288 73.1909 1344 75.6671C1400 77.8337 1456 49.6675 1484 35.7391L1512 21.8107V106H1484C1456 106 1400 106 1344 106C1288 106 1232 106 1176 106C1120 106 1064 106 1008 106C952 106 896 106 840 106C784 106 728 106 672 106C616 106 560 106 504 106C448 106 392 106 336 106C280 106 224 106 168 106C112 106 56 106 28 106H0V49.6675Z" fill="#F2F2F2"/>
</svg>
